<?xml version="1.0" encoding="UTF-8"?> <svg xmlns="http://www.w3.org/2000/svg" width="395" height="111" viewBox="0 0 395 111" fill="none"><path d="M369.42 101.175C366.801 102.14 368.729 102.56 370.782 103.147C372.794 103.735 374.743 104.427 376.713 105.12C378.662 105.855 380.59 106.631 382.622 107.219C383.733 107.533 384.802 107.89 385.808 108.352L388.134 109.338C389.077 109.758 390.062 110.199 390.774 110.136C391.172 110.157 391.445 110.136 391.738 110.073C392.053 110.01 392.43 109.863 392.765 109.611C393.436 109.149 393.918 108.415 394.148 107.659C394.379 106.862 394.337 106.295 394.148 105.498C393.981 104.7 393.331 103.756 392.849 102.874L392.325 101.93L392.032 101.384L391.508 100.272L390.565 98.0267C389.936 96.5366 389.266 95.0466 388.26 93.7035C384.592 88.8347 382.455 83.0635 379.123 78.0058C378.264 76.7047 377.467 75.3406 376.797 73.8925C376.461 73.158 376.042 72.2976 375.581 71.7519C372.228 67.8485 370.133 63.0846 367.869 58.5516C366.319 55.4456 364.663 54.3334 362.924 53.2001C362.232 52.7594 362.086 53.1162 362.568 54.3334C363.636 57.0196 365.48 59.3491 366.612 62.0143C368.351 66.1066 371.118 69.6953 373.15 73.6197C375.875 78.9082 379.165 83.882 381.931 89.2125C383.44 92.1086 384.99 95.6552 387.317 98.2995C387.547 98.5723 387.799 98.971 387.966 99.3278C388.511 100.524 389.119 101.699 389.747 102.874L390.481 104.239C390.69 104.658 390.963 105.036 391.152 105.477C391.298 105.917 391.152 106.442 390.816 106.778C390.481 107.177 389.936 107.114 389.538 106.862L388.239 106.274L386.709 105.561C384.865 104.616 382.895 104.113 380.988 103.399C379.081 102.686 377.153 102.014 375.267 101.196C373.213 100.293 370.699 99.8315 368.393 99.118C364.726 98.0267 361.038 96.9354 357.371 95.8441C353.682 94.8158 349.973 93.8294 346.264 92.969C340.543 91.6888 334.969 89.7791 329.185 88.8977C328.724 88.8347 328.221 88.6668 327.76 88.5199C325.35 87.7015 323.191 86.904 320.341 86.7151C317.219 86.5262 314.117 84.7844 310.765 84.1548C307.705 83.5672 304.499 82.287 301.628 82.0142C298.401 81.6994 295.509 80.3773 292.24 80.2094C290.877 80.1464 287.902 79.9995 286.414 78.5934C286.288 78.4675 285.785 78.2996 285.534 78.2786C280.546 77.9219 276.082 75.7603 271.221 74.9628C271.074 74.9418 270.843 74.7949 270.781 74.8159C267.993 75.4665 265.122 73.2839 262.231 73.4098C261.246 73.4518 259.758 73.095 258.626 72.7383C257.075 72.2556 255.86 71.8569 254.456 72.2556C254.142 72.3395 252.276 71.5211 251.229 71.0384C248.358 69.7373 245.193 69.2756 242.155 68.9608C239.703 68.7089 237.985 67.7226 235.973 67.093C233.584 66.3585 231.928 66.1486 230.65 66.8202C228.617 65.2672 225.558 64.9944 222.854 64.4277C219.313 63.6722 215.541 63.7562 212.293 62.0143C209.233 62.4341 206.194 60.4823 203.177 60.5033C202.129 60.5033 201.542 60.3354 200.578 59.8947C198.692 59.0343 196.555 58.3417 194.333 58.6775C192.804 58.9084 191.19 58.0899 189.555 57.943C188.298 57.8381 187.208 57.943 185.469 56.9776C183.667 55.9493 180.02 55.4247 177.17 54.963C174.928 54.6062 172.623 54.1025 170.318 54.3963C169.228 54.5432 166.42 53.5569 164.974 52.8224C161.747 51.2064 158.08 51.1435 154.664 50.2411C153.972 50.0522 153.343 50.0942 153.784 50.5139C155.146 51.7731 152.861 51.3533 151.939 51.4793C151.395 51.5632 150.368 51.2694 150.032 50.8707C149.718 50.5139 150.41 50.4719 150.913 50.4299C151.374 50.388 151.793 50.304 151.604 50.0102C151.374 49.6535 150.703 49.6325 150.158 49.4646C144.919 47.9116 139.261 47.7227 134.085 45.9179C132.89 45.4982 131.654 45.4772 130.481 45.5192C129.915 45.5402 129.496 45.6241 129.642 45.9809C129.768 46.2957 131.109 46.7364 130.166 46.9043C129.307 47.0512 128.825 46.4006 128.175 46.1278C123.188 44.0501 117.97 43.1267 112.563 42.9798C111.956 42.9798 111.453 42.8329 110.887 42.686C107.01 41.7626 103.196 40.6084 99.1933 40.0628C98.7952 39.9998 98.3132 39.727 97.9989 39.5381C95.5261 37.9222 92.5084 37.5234 89.4069 37.4605C88.4639 37.4605 87.6047 37.5234 86.5779 37.1876C84.3356 36.4321 82.1562 35.8026 79.7253 35.9704C78.447 36.0544 77.462 35.131 76.1208 34.8582C71.8458 33.9768 67.6546 33.0534 63.2958 32.7176C61.1164 32.5497 58.7065 31.5633 56.3804 31.0807C55.123 30.8288 53.3837 30.0523 52.6502 30.9757C52.3149 31.3955 52.1472 30.9128 52.0005 30.8078C48.7524 28.4994 44.7708 28.1426 40.2652 27.8068C37.8343 27.6179 34.8796 27.1352 32.2182 26.2328C29.5358 25.3304 26.7067 25.4773 23.9825 24.9947C21.1744 24.491 18.5129 23.4627 15.5372 23.2948C12.8548 23.1479 10.1725 21.8887 7.5949 21.8048C2.90077 21.6578 -1.2066 19.7271 -5.54448 19.1395C-9.81949 18.5519 -14.1574 17.4816 -18.4114 17.3767C-20.6118 17.3137 -23.0427 16.7051 -24.803 16.0965C-28.135 14.9213 -31.5089 14.7744 -34.8199 14.0399C-36.6641 13.6411 -38.571 13.4103 -40.4361 13.1165C-41.0019 13.0325 -41.7563 12.8436 -42.1126 12.9066C-45.6122 13.6831 -48.6299 12.0671 -51.5218 11.0388C-52.9678 10.5142 -53.8898 10.6191 -54.9586 10.6191C-56.0483 10.6191 -55.6292 11.1228 -55.3777 11.5215C-55.0634 12.0042 -55.713 11.9832 -56.4255 11.9202C-57.3057 11.8573 -57.599 11.6474 -57.5571 11.2487C-57.4523 10.2413 -58.6678 9.59077 -60.8263 9.21302C-63.7601 8.68837 -66.652 8.0378 -69.6068 7.5761C-73.3789 6.98848 -77.13 6.04411 -80.902 5.4355C-84.4646 4.86888 -88.2995 3.75661 -91.4638 4.68C-92.1344 4.88986 -92.4907 4.36521 -92.5745 4.17633C-92.9517 3.27393 -94.3348 2.93815 -95.7598 2.8542C-98.2326 2.7073 -100.705 2.11968 -103.262 1.97278C-106.217 1.80489 -109.486 0.881497 -112.629 0.272897C-114.453 -0.0418959 -116.108 0.105008 -117.596 0.251911C-118.665 0.377828 -117.994 1.13333 -117.701 1.61601C-117.177 2.43448 -116.003 2.93815 -114.18 3.21097C-111.749 3.56773 -109.297 3.90351 -106.992 4.23929C-104.603 4.61704 -102.214 4.34422 -99.8462 5.16268C-99.0709 5.43551 -98.2536 5.83424 -97.7087 5.2886C-97.4782 5.05775 -96.8705 5.26762 -96.5142 5.51945C-96.3675 5.62438 -96.2628 5.7503 -96.137 5.85523C-93.2241 5.33057 -91.9877 7.21933 -89.6197 7.66004C-86.9793 8.16371 -84.5484 8.37358 -82.1594 8.28963C-81.1745 8.24766 -80.0429 8.28963 -79.3513 8.70935C-76.5223 10.4302 -72.9178 10.5352 -69.6068 11.0388C-67.0711 11.4166 -64.766 11.8783 -62.3351 12.6128C-60.1766 13.2843 -57.599 13.7041 -55.2939 13.9139C-49.6986 14.4176 -44.4806 16.0545 -39.074 17.1248C-36.2868 17.6705 -33.5416 17.5026 -30.7335 18.2161L-25.7041 19.4753C-25.3898 19.5592 -24.9497 19.7691 -24.803 19.7481C-21.8692 19.2234 -18.9144 20.5456 -16.0224 21.0702C-14.2622 21.385 -12.921 20.7764 -11.7055 21.1752C-7.70293 22.5183 -3.53271 22.6652 0.511787 23.5886C1.7901 23.8824 2.29305 24.6589 3.92761 24.8058C5.4574 24.9527 6.7357 25.5823 8.51696 25.0786C9.83719 24.7008 12.8758 25.939 14.9295 26.6106C18.7225 27.8488 22.3479 28.3315 26.099 28.3944C26.3086 28.3944 26.6229 28.3944 26.6858 28.4154C30.3111 30.8288 34.6909 29.5277 38.5468 30.7029C39.0707 30.8708 39.6994 30.8918 40.2233 31.0597C45.3785 32.6756 50.7641 33.4731 56.1079 34.4804C57.512 34.7532 58.7484 34.8372 60.1943 34.8162C61.8708 34.7952 64.2807 35.6766 66.2925 36.2643C69.1635 37.0827 72.0344 37.7543 74.9683 37.9431C75.9113 38.0061 76.6238 37.9851 77.4201 38.4468C80.0187 39.9788 81.8628 40.2936 84.8595 39.8739C85.8444 39.727 86.997 39.7899 88.1496 40.1887C91.3349 41.3009 94.5621 41.9305 97.8731 41.9725C98.7533 41.9725 99.1514 42.4132 99.7801 42.665C102.609 43.7563 105.312 44.6587 108.791 44.8266C112.899 45.0155 117.257 45.729 121.49 46.8203C121.826 46.9043 122.161 47.1351 122.329 47.324C122.957 48.0165 124.068 48.3733 125.179 48.2684C126.75 48.1215 124.948 47.4079 124.969 46.7993C126.939 48.1634 129.831 48.1005 131.822 48.9189C135.342 50.367 139.01 50.325 142.551 51.2274C145.317 51.9409 148.398 52.0879 151.101 52.8643C155.23 54.0396 159.505 54.1235 163.591 55.6135C166.441 56.6628 169.291 56.5159 171.366 55.6975C171.617 55.8864 171.827 55.9703 171.806 56.0333C171.24 57.4184 171.889 57.7961 175.347 58.3208C179.832 58.9923 184.295 59.475 188.78 60.4613C190.1 60.7552 190.226 60.2305 190.855 59.9997C191.064 61.1539 193.348 61.3008 194.438 61.5946C196.094 62.0143 197.581 62.518 199.111 63.0427C200.788 63.6093 202.632 64.008 204.413 64.029C207.598 64.092 210.909 64.8475 214.116 65.1623C215.52 65.3092 215.834 66.2326 216.756 66.2326C220.193 66.2326 223.19 67.3658 226.312 68.3312C227.046 68.562 227.716 68.3941 228.261 68.2682C231.153 67.6176 232.704 67.9324 235.072 69.7163C235.721 70.199 235.973 71.1223 237.628 70.5347C238.047 70.3878 238.362 70.8285 238.655 71.0384C239.284 71.4581 239.912 71.647 240.772 71.4791C242.679 71.1014 244.313 71.71 246.597 72.4025C249.908 73.4098 253.094 75.3825 257.013 75.0887C257.746 75.0258 257.914 75.4455 258.375 75.6344C260.24 76.4109 262.21 77.1454 264.2 76.8516C265.143 76.7047 265.835 77.2713 266.715 77.2923C270.487 77.3972 273.777 79.202 277.424 79.8316C279.414 80.1674 281.363 80.2723 283.396 80.755C285.387 81.2377 287.252 81.5105 289.264 82.35C291.003 83.0635 293.581 83.6721 295.655 83.3363C296.389 83.2314 297.122 83.4203 297.814 83.882C299.888 85.288 304.876 86.4213 307.139 86.0016C307.852 85.8756 308.25 86.1485 308.48 86.4213C309.256 87.3657 310.681 87.7014 312.19 87.8274C314.222 87.9743 315.605 89.2334 317.764 89.3594C320.907 89.5482 323.988 90.5136 327.215 91.3531C332.726 92.8011 338.28 94.438 343.959 95.4244C346.453 95.9071 348.925 96.9144 351.524 96.8514C352.383 96.8305 354.395 97.3551 355.61 98.3205C356.281 98.8451 358.062 99.7475 359.194 99.055C359.382 98.9291 359.613 98.992 359.99 99.1389C364.873 101.133 364.873 101.091 369.294 101.112L369.42 101.175Z" fill="#F2F0EE"></path></svg> 