<svg width="39" height="39" viewBox="0 0 39 39" fill="none" xmlns="http://www.w3.org/2000/svg">
<circle cx="19.0888" cy="19.0888" r="19.0888" transform="matrix(-1 0 0 1 38.2617 0.758728)" fill="#AB6333"/>
<mask id="mask0_1261_1017" style="mask-type:alpha" maskUnits="userSpaceOnUse" x="0" y="0" width="30" height="39">
<ellipse cx="14.5075" cy="19.0888" rx="14.5075" ry="19.0888" transform="matrix(-1 0 0 1 29.0986 0.75885)" fill="#996239"/>
</mask>
<g mask="url(#mask0_1261_1017)">
<path d="M84.7125 -1.80778C84.7125 8.7347 93.2589 17.2811 103.801 17.2811C114.344 17.2811 122.89 8.7347 122.89 -1.80778C122.89 -12.3503 114.344 -20.8966 103.801 -20.8966C93.2589 -20.8966 84.7125 -12.3503 84.7125 -1.80778Z" fill="#FFF5EE"/>
<path d="M260.924 -52.4254C260.467 -52.2115 260.224 -52.227 260.29 -52.4145C260.312 -52.6177 260.209 -52.701 259.929 -52.706C259.487 -52.44 259.222 -52.2522 259.089 -52.1584C258.994 -52.075 258.927 -51.8874 258.935 -51.5801C258.36 -51.5015 257.859 -51.4438 257.535 -51.4644C257.174 -51.4745 256.747 -51.4377 256.246 -51.38C255.848 -51.2391 255.789 -51.1661 256.106 -51.1716C256.423 -51.177 256.364 -51.104 255.981 -50.911C255.575 -50.7961 255.369 -50.822 255.362 -50.9887C255.317 -51.1449 255.148 -51.1812 254.743 -51.0663C254.595 -51.0246 254.485 -50.9932 254.47 -50.9046C254.448 -50.8421 254.426 -50.7796 254.441 -50.7275C254.455 -50.6754 254.47 -50.6234 254.411 -50.5504C254.389 -50.4879 254.242 -50.4461 253.969 -50.425C254.058 -50.6751 254.057 -50.8158 253.976 -50.8209C253.895 -50.8261 253.682 -50.878 253.424 -50.9455C253.276 -50.7631 253.041 -50.6118 252.717 -50.4918C252.348 -50.3873 252.068 -50.2517 251.833 -50.1004C251.943 -49.9911 252.12 -49.9288 252.348 -49.9654C252.54 -49.9916 252.533 -49.877 252.238 -49.6528C251.671 -49.4075 251.398 -49.3865 251.354 -49.5427C251.31 -49.6989 251.059 -49.7404 250.647 -49.6515C250.337 -49.4794 250.315 -49.4169 250.588 -49.4379C250.86 -49.459 250.809 -49.36 250.544 -49.1722C249.939 -49.1978 249.416 -49.0776 249.004 -48.8481C248.591 -48.6186 248.009 -48.4254 247.265 -48.2425C247.214 -48.4248 247.132 -48.5706 247.022 -48.6799C246.911 -48.7892 246.639 -48.7681 246.241 -48.6272C245.961 -48.6322 245.872 -48.5227 245.939 -48.2884C246.005 -48.054 246.138 -48.0072 246.374 -48.1585C245.968 -48.0436 245.541 -47.8661 245.129 -47.6366C244.716 -47.4071 244.355 -47.4172 244.023 -47.6045C244.112 -47.8546 244.399 -47.9642 244.841 -47.9489C245.283 -47.9337 245.578 -48.0172 245.674 -48.2413C245.644 -48.3454 245.534 -48.4547 245.349 -48.5431C245.128 -48.3398 244.745 -48.1468 244.193 -47.9901L242.535 -47.52C242.019 -47.3738 241.511 -47.2015 241.091 -46.998C240.671 -46.7945 240.495 -46.5756 240.561 -46.3413L238.867 -45.8607L238.719 -46.3815C238.336 -46.1885 238.1 -46.0372 238.027 -45.8757C237.953 -45.7142 237.71 -45.7296 237.312 -45.87C236.929 -45.6769 236.877 -45.5779 237.128 -45.5364C237.378 -45.495 237.364 -45.4064 237.091 -45.2447C236.465 -45.2078 236.074 -45.1814 235.89 -45.1292C235.706 -45.0769 235.323 -44.8839 234.807 -44.597C234.512 -44.6541 234.453 -44.7218 234.557 -44.7792C234.667 -44.8105 234.711 -44.9355 234.66 -45.1178C234.181 -44.982 233.849 -44.888 233.717 -44.7941C233.54 -44.7159 233.481 -44.6429 233.466 -44.5543C233.452 -44.4658 233.429 -44.4032 233.452 -44.3251C233.474 -44.247 233.378 -44.1636 233.142 -44.0123C232.546 -43.8712 232.229 -44.0064 232.118 -44.397C231.897 -44.1937 231.529 -43.9486 230.925 -43.6929C230.32 -43.4372 229.716 -43.1815 229.098 -42.9778C228.442 -42.7638 227.853 -42.5966 227.256 -42.4555C226.652 -42.3405 226.261 -42.3141 225.974 -42.3451C225.878 -42.1211 225.502 -41.902 224.928 -41.6828C224.316 -41.4531 223.661 -41.2391 222.924 -41.0301C222.187 -40.8212 221.487 -40.6227 220.839 -40.5232C220.161 -40.3873 219.667 -40.3036 219.314 -40.2877C219.13 -40.2354 219.071 -40.1625 219.056 -40.0739C219.041 -39.9853 218.953 -39.8759 218.828 -39.756C216.286 -39.1758 213.56 -38.4028 210.65 -37.4369C207.784 -36.4554 205.066 -35.6563 202.495 -35.0397C202.458 -35.1699 202.546 -35.2793 202.804 -35.3524C203.062 -35.4256 203.113 -35.5246 202.988 -35.686C202.502 -35.5762 202.141 -35.4457 201.993 -35.2633C201.846 -35.0808 201.544 -35.0233 201.212 -35.0699C200.756 -34.856 200.623 -34.7621 200.866 -34.7467C201.073 -34.7208 201.065 -34.6062 200.771 -34.382C200.1 -34.22 199.408 -33.9955 198.634 -33.7761C197.875 -33.5047 197.146 -33.2697 196.454 -33.0452C195.754 -32.8467 195.164 -32.6796 194.597 -32.5749C194.067 -32.4808 193.617 -32.5221 193.315 -32.7458C192.976 -32.6779 192.799 -32.5996 192.777 -32.5371C192.755 -32.4745 192.784 -32.3704 192.843 -32.3027C192.902 -32.235 192.925 -32.1569 192.91 -32.0684C192.895 -31.9798 192.711 -31.9276 192.357 -31.9117C192.586 -32.0889 192.586 -32.2296 192.431 -32.3545C192.276 -32.4794 192.062 -32.5313 191.782 -32.5363C191.502 -32.5413 191.421 -32.4058 191.495 -32.1454C191.569 -31.885 191.709 -31.8122 191.959 -31.9114C191.915 -31.7863 191.812 -31.7289 191.621 -31.7027C191.429 -31.6765 191.267 -31.6868 191.097 -31.7232C190.891 -31.7491 190.773 -31.7438 190.626 -31.702C190.479 -31.6602 190.464 -31.5716 190.516 -31.3893C190.133 -31.1963 189.926 -31.2222 189.919 -31.3889C189.911 -31.5556 189.705 -31.5814 189.307 -31.4405C189.16 -31.3987 189.064 -31.3153 189.094 -31.2111C189.123 -31.107 189.219 -31.0498 189.41 -31.076C188.526 -30.8252 187.539 -30.5172 186.53 -30.1465C185.484 -29.7655 184.423 -29.4365 183.325 -29.0971C182.22 -28.7837 181.189 -28.4912 180.157 -28.1987C179.119 -27.9322 178.205 -27.7856 177.343 -27.7381C177.424 -27.733 177.476 -27.6913 177.49 -27.6392C177.505 -27.5872 177.586 -27.582 177.77 -27.6343C175.796 -26.8774 173.321 -26.0629 170.389 -25.1751C167.42 -24.2769 164.686 -23.3893 162.108 -22.5174C161.725 -22.3243 161.496 -22.2877 161.459 -22.4179C161.423 -22.5481 161.327 -22.6053 161.12 -22.6312C159.205 -21.6661 157.039 -20.883 154.638 -20.2301C152.236 -19.5771 149.886 -18.8825 147.558 -18.1098C147.653 -18.3338 147.624 -18.438 147.395 -18.4013C147.204 -18.3751 147.101 -18.4584 147.123 -18.6616C147.542 -19.0057 148.021 -19.1415 148.596 -19.0794C148.662 -19.4076 148.485 -19.47 148.014 -19.3082C147.542 -19.1463 147.1 -19.021 146.688 -18.9321C146.364 -18.812 146.29 -18.6505 146.496 -18.484C146.666 -18.307 146.666 -18.1664 146.416 -18.0672C145.826 -17.9001 145.679 -17.7176 145.908 -17.473C145.502 -17.3581 145.185 -17.3526 144.928 -17.4202C144.67 -17.4877 144.537 -17.3938 144.434 -17.0551C144.25 -17.0029 144.176 -16.982 144.117 -17.0497C144.066 -17.0913 144.014 -17.133 143.992 -17.2111C143.97 -17.2892 143.955 -17.3413 143.874 -17.3464C143.793 -17.3516 143.682 -17.3202 143.432 -17.2211C143.034 -17.0801 142.982 -16.9811 143.299 -16.9866C143.616 -16.992 143.69 -16.8723 143.58 -16.7003C143.174 -16.5854 142.872 -16.5278 142.703 -16.5642C142.496 -16.59 142.297 -16.5899 142.069 -16.5533C140.964 -16.0992 139.734 -15.6659 138.341 -15.2429C136.942 -14.846 135.962 -14.5118 135.321 -14.2457C135.085 -14.0944 134.746 -14.0265 134.341 -14.0522C133.899 -14.0675 133.634 -14.0204 133.567 -13.9735C132.632 -13.6237 131.622 -13.2531 130.584 -12.846C129.545 -12.4389 128.536 -12.2089 127.482 -12.1352C125.257 -11.2792 123.01 -10.5013 120.712 -9.76511C118.413 -9.02887 116.107 -8.31867 113.831 -7.64495C111.518 -6.96079 109.248 -6.26104 107.06 -5.55614C104.836 -4.84079 102.662 -4.08382 100.548 -3.25916L100.43 -3.67579C98.7576 -3.11713 97.2768 -2.58468 96.0687 -2.07327C94.8605 -1.56186 93.5197 -1.23787 92.0386 -1.12733C91.6925 -0.804108 91.2064 -0.553703 90.617 -0.386559C90.0276 -0.219421 89.5192 -0.187775 89.1286 -0.302063C88.7308 -0.161118 88.6792 -0.0621033 88.9961 -0.0675583C89.3129 -0.0730133 89.3793 0.0206909 89.2615 0.166634C88.5174 0.349525 87.8469 0.51152 87.2207 0.68911C86.5945 0.866699 86.1156 1.0025 85.6957 1.06533L85.4889 0.336243C85.01 0.472046 84.7522 0.545174 84.7375 0.633736C84.7154 0.696259 84.7744 0.763931 84.9071 0.810707C85.0397 0.857483 85.2166 0.919853 85.364 1.01871C85.5115 1.11756 85.5852 1.23731 85.5485 1.3884C84.9591 1.55554 84.6054 1.57144 84.458 1.47259C84.3106 1.37373 84.1189 1.25928 83.8978 1.18132C83.5663 1.27534 83.4779 1.3848 83.6033 1.54617C83.7287 1.70756 83.6845 1.8326 83.4488 1.98384C82.2037 2.22442 80.9512 2.57959 79.6547 3.05982C78.4023 3.55563 77.2603 3.73884 76.295 3.70312C76.1108 3.75536 76.0519 3.82832 76.0889 3.95852L76.1848 4.29702C75.2712 4.44358 74.4534 4.64737 73.7978 4.86144C73.1053 5.08596 72.3539 5.38345 71.4625 5.74876C71.1751 5.71774 71.0719 5.63447 71.0718 5.49383C71.0717 5.35319 71.079 5.23859 71.0789 5.09795C71.042 4.96775 71.0862 4.8427 71.0566 4.73854C71.0271 4.63439 70.8944 4.58762 70.6292 4.6347C70.2757 4.93188 70.1726 5.12991 70.298 5.29128C70.4233 5.45266 70.453 5.69746 70.3942 6.0517C69.5323 6.38054 68.6924 6.64685 67.9189 6.86622C67.1453 7.08559 66.4086 7.29453 65.7087 7.493C65.0088 7.69148 64.3458 7.87952 63.7195 8.05711C63.0639 8.27118 62.504 8.54248 61.9516 8.83981C61.5095 8.82453 61.0084 8.88222 60.4927 9.02847C59.977 9.17472 59.4245 9.33141 58.8425 9.5246C58.2899 9.6813 57.7448 9.86403 57.2733 10.0259C56.8018 10.1877 56.3744 10.2245 55.9912 10.1362C55.1588 10.5692 54.3043 10.9241 53.4718 11.2164C52.6393 11.5088 51.7627 11.7855 50.8049 12.0572L47.9317 12.872C46.9739 13.1436 45.9131 13.4726 44.7933 13.8745C44.6827 13.7652 44.6532 13.6611 44.7857 13.5672C44.9183 13.4733 44.933 13.3848 44.9035 13.2806C44.4024 13.3383 44.2036 13.4791 44.3215 13.6144C44.4469 13.7758 44.4912 13.932 44.4545 14.0831C42.7526 14.5376 41.1392 15.0233 39.592 15.4621C38.0449 15.9008 36.601 16.4228 35.1792 16.8823C33.7573 17.3418 32.4018 17.7543 31.0388 18.1409C29.6759 18.5274 28.335 18.8514 26.9057 19.1442C26.3091 19.5666 25.5724 19.9161 24.681 20.1408C23.7895 20.3655 22.8612 20.6006 21.9182 20.7836C20.9751 20.9667 20.0394 21.1758 19.1848 21.39C18.3302 21.6042 17.6451 21.8548 17.1074 22.2042C16.3337 22.2829 15.7296 22.398 15.2213 22.5703C14.7498 22.7321 14.2561 22.8159 13.6887 22.7798C13.5487 22.8477 13.453 22.9311 13.4383 23.0196C13.4236 23.1082 13.3279 23.1916 13.2027 23.3115C12.4218 23.6455 11.7956 23.8231 11.3609 23.8338C10.9335 23.8706 10.6019 23.824 10.3292 23.7044C10.0565 23.5848 9.88693 23.4079 9.78363 23.1839C9.68036 22.96 9.56964 22.7101 9.5032 22.4758C10.4459 21.7301 11.5951 21.1511 12.958 20.7645C14.321 20.378 15.8092 20.0123 17.3195 19.7246C18.8668 19.4265 20.4434 19.0919 22.0938 18.7364C23.7441 18.3809 25.2617 17.838 26.6613 17.1598C27.1256 17.2532 27.7003 17.1746 28.4296 16.9396C29.159 16.7047 29.682 16.4438 30.0503 16.1987C30.1167 16.4331 30.22 16.657 30.3528 16.8444C30.4855 17.0318 30.876 17.0054 31.5169 16.7393C31.281 16.6093 31.1042 16.5469 30.942 16.5366C30.7431 16.5367 30.8167 16.3752 31.0891 16.0729C31.428 16.0049 31.6712 16.0203 31.8187 16.1192C31.9661 16.2181 32.2461 16.223 32.6955 16.1237C33.027 16.0297 33.0417 15.9411 32.8206 15.8632C32.5995 15.7852 32.4006 15.7854 32.2238 15.8636C32.8647 15.5975 33.5498 15.3469 34.3086 15.0755C35.0674 14.804 35.6494 14.7515 36.0622 14.9439C36.1726 14.7719 36.3347 14.6416 36.5483 14.5529C36.7619 14.4641 36.9903 14.4275 37.2114 14.3648C37.4324 14.3021 37.6902 14.229 37.8744 14.1768C38.0586 14.1246 38.2133 13.9682 38.3605 13.7857C38.7657 13.6708 38.9352 13.7072 38.9132 13.9103C40.5045 13.3465 42.2063 12.7514 44.048 12.0884C45.8897 11.4255 47.7389 10.9292 49.6693 10.5787C50.7595 10.0726 52.0561 9.59236 53.5884 9.10154C55.1208 8.61071 56.2554 8.40147 56.9629 8.51031C57.3827 8.1662 57.8615 7.88976 58.3698 7.71747C58.8781 7.54518 59.4233 7.36244 59.9537 7.26827C60.4842 7.1741 61.022 6.96532 61.6114 6.79819C62.2007 6.63104 62.7312 6.39623 63.232 6.05726C63.4089 6.11963 63.5195 6.22894 63.5638 6.38517C63.6081 6.5414 63.7481 6.61422 64.0281 6.61921C64.426 6.47826 64.4775 6.37924 64.1606 6.3847C63.8438 6.39015 63.7406 6.30689 63.8952 6.15051C65.1476 5.65469 66.3779 5.2214 67.5493 4.86108C68.728 4.52679 69.8699 4.20295 70.975 3.88956C72.0801 3.57616 73.1484 3.27322 74.2019 2.9182C75.2627 2.58921 76.2278 2.203 77.1707 1.73868C77.2224 1.92095 77.1856 2.07204 77.112 2.23357C77.0384 2.3951 76.928 2.56709 76.7955 2.80159C77.282 2.97311 77.9229 2.8476 78.6964 2.48758C79.4699 2.12756 79.5728 1.78891 79.0495 1.4872C80.8912 0.824234 82.6004 0.255142 84.1401 -0.209648C85.7241 -0.658844 87.6912 -1.16042 90.1004 -1.64672C90.1224 -1.84989 90.3581 -2.00113 90.7633 -2.11604C91.1685 -2.23095 91.4042 -2.38219 91.4262 -2.58535C91.8535 -2.62215 92.001 -2.52329 91.8316 -2.27834C91.6623 -2.03339 91.6403 -1.83022 91.6772 -1.70003C91.7068 -1.59588 91.9057 -1.59603 92.193 -1.70564C92.5246 -1.79966 92.7161 -1.82585 92.8562 -1.75303C93.1508 -1.97724 93.1212 -2.08141 92.8486 -2.06036C92.5392 -2.02886 92.436 -2.11212 92.4579 -2.31529C92.7525 -2.5395 93.2976 -2.86288 94.1668 -3.30631C94.9992 -3.7393 95.6844 -3.84921 96.1783 -3.65166C96.5022 -4.05299 96.9884 -4.3034 97.6736 -4.41331C98.3588 -4.52323 98.7787 -4.72671 98.9406 -4.9977C99.2943 -5.0136 99.6112 -5.01906 99.8617 -4.97758C100.149 -4.94655 100.503 -4.96245 100.893 -4.98879C101.195 -5.18697 101.291 -5.41103 101.224 -5.64538C101.917 -5.72926 102.514 -5.87036 103.081 -6.11562C103.648 -6.36088 104.112 -6.54875 104.54 -6.72619C104.967 -6.90363 105.372 -7.01854 105.755 -7.07092C106.138 -7.12331 106.514 -7.06109 106.927 -6.86868C107.266 -7.21794 107.855 -7.52573 108.695 -7.79203C109.542 -8.0323 110.264 -8.2933 110.92 -8.50738L111.053 -8.03868C111.377 -8.44002 111.819 -8.70601 112.342 -8.82622C112.857 -8.97247 113.432 -9.19169 114.043 -9.562C114.456 -9.36959 114.795 -9.29692 115.038 -9.28149C115.421 -9.47451 115.473 -9.57353 115.156 -9.56807C114.839 -9.56262 114.765 -9.68236 114.861 -9.90642C115.554 -9.9903 116.335 -10.1836 117.211 -10.4604C118.088 -10.7371 119.038 -11.0348 119.989 -11.3324C120.946 -11.604 121.904 -11.8756 122.788 -12.1264C123.672 -12.3771 124.475 -12.4923 125.175 -12.5501C125.779 -12.9465 126.553 -13.3065 127.496 -13.6302C128.439 -13.9539 129.5 -14.2828 130.561 -14.6118C131.666 -14.9252 132.727 -15.2542 133.787 -15.5832C134.856 -15.8861 135.784 -16.2619 136.631 -16.6428C136.683 -16.4605 136.83 -16.3617 137.118 -16.3306C137.493 -16.5497 137.898 -16.8053 138.303 -17.0608C138.709 -17.3164 139.077 -17.2802 139.438 -16.9888C139.615 -17.067 139.644 -17.2442 139.578 -17.4785C140.108 -17.432 140.676 -17.5367 141.295 -17.7403C141.877 -17.9335 142.518 -18.1996 143.114 -18.4814C143.711 -18.7631 144.389 -19.0397 145.118 -19.2747C145.847 -19.5096 146.562 -19.656 147.24 -19.6514C147.8 -19.782 148.065 -19.9697 147.984 -20.2562C148.676 -20.34 149.502 -20.5178 150.533 -20.8103C151.564 -21.1028 152.168 -21.3585 152.338 -21.6034C153.215 -21.5989 154.276 -21.7873 155.484 -22.158C156.692 -22.5288 157.922 -22.9621 159.226 -23.4163C160.493 -23.86 161.797 -24.3142 163.079 -24.7059C164.361 -25.0975 165.569 -25.3277 166.704 -25.3963C167.05 -25.7195 167.529 -25.9959 168.185 -26.21C168.84 -26.4241 169.496 -26.6381 170.211 -26.7845C170.911 -26.983 171.537 -27.1606 172.163 -27.3382C172.782 -27.5418 173.224 -27.8078 173.57 -28.1311C173.924 -28.147 174.123 -28.1471 174.167 -28.1315C174.211 -28.1159 174.189 -28.0534 174.093 -27.97C173.997 -27.8866 173.872 -27.7667 173.784 -27.6572C173.696 -27.5478 173.688 -27.4332 173.791 -27.3499C174.999 -28.0019 176.392 -28.5656 177.954 -29.0929C179.515 -29.6202 181.092 -30.0954 182.676 -30.5446L187.317 -31.8609C188.828 -32.2892 190.176 -32.7278 191.362 -33.1767C191.87 -33.2083 192.43 -33.339 192.975 -33.5217C193.521 -33.7044 194.058 -33.9132 194.596 -34.122C195.097 -34.3203 195.605 -34.4926 196.092 -34.6024C196.578 -34.7121 196.976 -34.7124 197.293 -34.5772C197.676 -34.7703 197.904 -34.9476 198.014 -35.1195C198.088 -35.2811 198.434 -35.4636 198.987 -35.6203C199.739 -35.4959 200.534 -35.6372 201.411 -36.0546C202.287 -36.472 203.297 -36.8426 204.439 -37.1664C204.829 -37.0521 204.999 -36.8751 204.984 -36.6459C205.382 -36.7869 205.537 -36.9433 205.492 -37.0995C205.448 -37.2557 205.477 -37.4329 205.625 -37.6153C206.067 -37.6 206.457 -37.6264 206.826 -37.7308C207.194 -37.8353 207.702 -38.0076 208.306 -38.2633L208.484 -37.6383C208.889 -37.7533 209.147 -37.8264 209.206 -37.8994C209.272 -37.9463 209.287 -38.0349 209.228 -38.1025C209.169 -38.1702 209.102 -38.2639 209.043 -38.3316C208.984 -38.3992 208.999 -38.4878 209.161 -38.6182C209.994 -38.7699 210.62 -38.9474 211.04 -39.1509C211.467 -39.3284 211.924 -39.4016 212.395 -39.2822C212.528 -39.5167 212.764 -39.6679 213.161 -39.8089C213.567 -39.9238 213.957 -40.0908 214.355 -40.2317C214.642 -40.2007 214.701 -40.133 214.613 -40.0236C214.524 -39.9141 214.48 -39.7891 214.532 -39.6068C215.018 -39.7166 215.298 -39.8522 215.32 -40.0554C215.342 -40.2585 215.622 -40.3942 216.108 -40.504L216.227 -40.0873L217.7 -40.5052C217.692 -40.8125 217.398 -40.8696 216.735 -40.6815C217.059 -41.0829 217.346 -41.1925 217.633 -41.0208C217.884 -40.8387 218.12 -40.7087 218.356 -40.5786C218.945 -40.7458 219.21 -40.9335 219.232 -41.1367C219.254 -41.3398 219.394 -41.5483 219.586 -41.7151C220.536 -42.0128 221.449 -42.3 222.311 -42.4881C223.173 -42.6763 223.814 -42.9425 224.301 -43.1929C224.713 -43.2818 224.912 -43.1413 224.927 -42.8079C225.067 -42.8757 225.266 -43.0165 225.465 -43.1573C225.664 -43.2981 225.899 -43.4494 226.15 -43.5485C226.4 -43.6477 226.584 -43.6999 226.702 -43.7052C226.82 -43.7105 226.857 -43.5803 226.732 -43.3198C227.476 -43.5027 227.727 -43.7425 227.432 -44.0808L228.905 -44.4987C228.905 -44.4987 229.089 -44.4103 229.222 -44.3635C229.318 -44.3063 229.347 -44.2021 229.311 -44.051C230.128 -44.2548 230.821 -44.4793 231.344 -44.7402C231.904 -45.0115 232.412 -45.0431 232.921 -44.7935C233.016 -45.0176 233.363 -45.2001 233.878 -45.3464C234.394 -45.4926 234.615 -45.696 234.549 -45.9303C234.836 -45.8993 235.109 -45.9203 235.44 -46.0143C235.772 -46.1084 236.103 -46.2024 236.449 -46.385C236.803 -46.5415 237.157 -46.698 237.554 -46.839C237.952 -46.9799 238.402 -47.0793 238.895 -47.163C238.851 -47.0379 238.873 -46.9598 239.035 -46.9495C239.161 -46.9288 239.256 -46.8716 239.286 -46.7674C239.691 -46.8823 239.979 -46.9919 240.104 -47.1118C240.229 -47.2317 240.524 -47.3153 240.951 -47.3521C240.988 -47.5032 240.958 -47.6073 240.796 -47.6176C240.671 -47.6384 240.575 -47.6956 240.545 -47.7998C241.142 -47.9409 241.606 -47.9881 241.931 -47.9675C242.292 -47.9574 242.653 -47.9472 242.977 -47.9267C243.161 -47.9789 243.235 -47.9998 243.257 -48.0623C243.249 -48.0883 243.382 -48.1822 243.522 -48.25C243.47 -48.4323 243.161 -48.4008 242.616 -48.2181C242.822 -48.4735 243.286 -48.6614 244.074 -48.8286C244.863 -48.9959 245.445 -49.0485 245.813 -49.0123C246.071 -49.0854 246.145 -49.247 246.078 -49.4813C246.432 -49.4972 246.844 -49.5861 247.397 -49.7428C247.95 -49.8995 248.171 -49.8215 248.163 -49.5663C248.893 -49.8012 249.747 -50.0155 250.705 -50.2871C251.678 -50.5066 252.193 -50.7935 252.178 -51.1269C252.65 -51.2887 252.915 -51.3358 252.996 -51.19C253.07 -51.0702 253.379 -51.1017 253.947 -51.347C254.197 -51.4462 254.256 -51.5191 254.175 -51.5243C254.094 -51.5294 253.969 -51.5502 253.851 -51.5449C253.733 -51.5396 253.571 -51.5499 253.379 -51.5237C253.224 -51.5079 253.202 -51.586 253.32 -51.732C254.234 -51.8785 255.147 -52.0251 256.024 -52.1612C256.901 -52.2973 257.719 -52.3604 258.404 -52.3297C258.736 -52.4237 258.912 -52.502 258.927 -52.5906C258.942 -52.6791 258.927 -52.7312 258.868 -52.7989C258.809 -52.8666 258.757 -52.9082 258.706 -52.9498C258.654 -52.9915 258.676 -53.054 258.853 -53.1323C259.103 -53.2314 259.258 -53.2472 259.42 -53.2369C259.553 -53.1901 259.531 -53.1276 259.295 -52.9763C259.325 -52.8722 259.487 -52.8619 259.811 -52.9819C260.143 -53.076 260.327 -53.1282 260.423 -53.071C260.673 -52.8888 260.688 -52.6961 260.489 -52.5553C260.327 -52.425 260.357 -52.3208 260.644 -52.2898L260.924 -52.4254ZM78.121 1.44104C78.6957 1.36246 78.9168 1.44042 78.7917 1.70097C78.6666 1.9615 78.5341 2.19601 78.4016 2.43051C77.709 2.51439 77.5616 2.41553 77.8488 2.16528C78.136 1.91503 78.2612 1.6545 78.121 1.44104ZM230.676 -39.7964C230.676 -39.7964 230.971 -39.7393 231.03 -39.6717C231.089 -39.604 231.214 -39.5833 231.369 -39.599C231.767 -39.74 231.811 -39.865 231.516 -39.9221C231.258 -39.9896 230.949 -39.9581 230.64 -39.786C230.676 -39.9371 230.912 -40.0883 231.325 -40.1772C231.737 -40.266 232.187 -40.3654 232.643 -40.4386C233.1 -40.5119 233.542 -40.6373 233.933 -40.8043C234.33 -40.9452 234.47 -41.1537 234.389 -41.4401C234.787 -41.5811 235.052 -41.6281 235.17 -41.4928C235.281 -41.3835 235.362 -41.2377 235.414 -41.0554C236.077 -41.2435 236.283 -41.3582 236.106 -41.4206C235.892 -41.4725 235.811 -41.6183 235.863 -41.858L236.968 -42.1714C237.093 -42.01 237.24 -41.9111 237.388 -41.8123C237.535 -41.7134 237.756 -41.6354 238.066 -41.5263C238.471 -41.6412 238.633 -41.7716 238.589 -41.9278L238.449 -42.4225C239.34 -42.6472 239.966 -42.8248 240.29 -42.9448C240.615 -43.0649 241.123 -43.0965 241.867 -42.9982C242.272 -43.1131 242.508 -43.2643 242.545 -43.4154C242.582 -43.5665 242.663 -43.702 242.825 -43.8323C243.002 -43.77 243.355 -43.7859 243.819 -43.8331C244.284 -43.8803 244.556 -44.042 244.666 -44.3546C245.005 -44.4226 245.109 -44.3394 245.05 -44.1258C244.991 -43.9121 245.057 -43.8184 245.323 -43.8655C245.661 -44.2148 246.037 -44.4338 246.45 -44.5227C246.862 -44.6116 247.12 -44.8254 247.179 -45.1796C247.076 -44.8409 247.385 -44.7318 248.078 -44.8157L250.119 -45.0569C250.237 -45.3434 250.568 -45.5781 251.165 -45.7192C251.762 -45.8603 252.233 -46.0222 252.542 -46.1943C252.52 -46.2724 252.439 -46.2776 252.329 -46.2462L251.96 -46.1418C251.96 -46.1418 251.702 -46.0686 251.577 -46.0894C251.459 -46.0841 251.437 -46.1622 251.592 -46.3186C252.159 -46.5638 252.572 -46.6527 252.881 -46.6842C253.19 -46.7157 253.544 -46.7316 253.949 -46.8465C253.721 -46.6692 253.706 -46.5807 253.839 -46.5339C253.972 -46.4871 254.075 -46.4038 254.127 -46.2216C254.348 -46.4249 254.686 -46.6335 255.195 -46.8058C255.703 -46.9781 256.248 -47.1608 256.756 -47.3331C257.265 -47.5054 257.699 -47.6568 258.053 -47.8133C258.407 -47.9699 258.488 -48.1054 258.252 -48.2354C258.738 -48.3452 259.35 -48.4342 260.005 -48.5076C260.661 -48.5811 261.346 -48.691 262.031 -48.8009C262.717 -48.9108 263.343 -49.0884 263.925 -49.2816C264.544 -49.4852 264.986 -49.7512 265.332 -50.0744C265.744 -50.1633 266.032 -50.1323 266.223 -50.0178C266.378 -49.8929 266.57 -49.7785 266.754 -49.6901C267.292 -50.0395 267.852 -50.3108 268.5 -50.5509C269.148 -50.791 269.745 -51.0728 270.371 -51.391C270.658 -51.36 270.88 -51.282 271.042 -51.1311C271.204 -50.9801 271.432 -50.8761 271.727 -50.8191C271.683 -50.694 271.484 -50.5532 271.204 -50.4176C270.888 -50.2715 270.556 -50.1775 270.173 -50.1251C269.797 -50.0466 269.451 -50.0047 269.097 -49.9888C268.743 -49.9729 268.574 -50.0092 268.544 -50.1134C268.382 -49.983 268.294 -49.8736 268.176 -49.7276C268.095 -49.5921 267.97 -49.4722 267.845 -49.3523C267.329 -49.3467 266.821 -49.3151 266.445 -49.2367C266.032 -49.1478 265.848 -49.2362 265.863 -49.4654C265.48 -49.2724 265.141 -49.0638 264.861 -48.7875C264.581 -48.5112 264.191 -48.3442 263.69 -48.2865C263.358 -48.1925 263.211 -48.1507 263.196 -48.2028C263.189 -48.2288 263.174 -48.2809 263.233 -48.3539C263.218 -48.4059 263.277 -48.4789 263.299 -48.5414C263.321 -48.604 263.196 -48.6247 262.953 -48.6401C262.57 -48.4471 262.326 -48.3219 262.238 -48.2125C262.15 -48.103 261.87 -48.108 261.516 -48.2327C261.118 -48.0918 260.956 -47.9614 261.104 -47.8626C261.251 -47.7637 261.516 -47.8108 261.988 -47.9726C261.104 -47.7219 260.168 -47.5129 259.218 -47.3558C258.267 -47.1988 257.457 -46.8284 256.831 -46.2289C256.426 -46.114 256.116 -46.0825 255.858 -46.15C255.6 -46.2175 255.423 -46.2799 255.21 -46.3318C254.827 -46.1388 254.775 -46.0398 255.026 -45.9983C255.276 -45.9568 255.262 -45.8682 254.989 -45.7066C254.377 -45.6175 253.81 -45.5129 253.177 -45.3614C252.543 -45.2098 252.13 -45.2616 251.902 -45.5062C251.519 -45.3132 251.283 -45.0213 251.232 -44.641C249.228 -44.2696 247.305 -43.7525 245.485 -43.152C243.665 -42.5516 241.853 -42.0658 240.107 -41.7675C239.105 -41.2302 237.956 -40.7918 236.586 -40.4313C235.252 -40.0812 233.882 -39.7208 232.482 -39.3238C230.39 -38.7023 228.268 -38.0444 226.109 -37.3759C223.988 -36.718 221.851 -36.1121 219.7 -35.5583C219.501 -35.4175 219.376 -35.2976 219.405 -35.1934C216.002 -34.1438 212.51 -33.1253 208.9 -32.1016C205.29 -31.0778 202.122 -30.0388 199.44 -28.9689C198.645 -28.9683 197.525 -28.707 196.037 -28.2006C194.548 -27.6941 193.377 -27.1932 192.442 -26.7028C189.576 -26.0026 186.644 -25.1148 183.719 -24.0603C180.794 -23.0059 177.523 -21.9095 173.98 -20.792C173.766 -20.8439 173.56 -20.8698 173.361 -20.8697C173.162 -20.8695 172.985 -20.9319 172.874 -21.0412C172.668 -20.7858 172.447 -20.5825 172.145 -20.3843C171.843 -20.1861 171.386 -19.9722 170.731 -19.7581C170.694 -19.8883 170.767 -20.0499 170.996 -20.2271C170.414 -19.7527 169.611 -19.3562 168.521 -18.9907C167.43 -18.6252 166.451 -18.2911 165.574 -18.0143C165.367 -18.0402 165.257 -18.1495 165.205 -18.3318C165.154 -18.5141 165.006 -18.6129 164.726 -18.6179C164.498 -18.4406 164.424 -18.2791 164.476 -18.0968C164.528 -17.9146 164.41 -17.7686 164.1 -17.5965C163.761 -17.5285 163.393 -17.424 162.958 -17.2727C162.524 -17.1213 162.133 -16.9543 161.772 -16.8238C161.411 -16.6933 161.087 -16.5732 160.829 -16.5001C160.572 -16.427 160.373 -16.4268 160.343 -16.531C159.916 -16.4942 159.739 -16.4159 159.776 -16.2857C159.813 -16.1555 159.761 -16.0565 159.599 -15.9261C158.428 -15.7065 157.323 -15.3931 156.247 -14.9755C155.164 -14.584 154.125 -14.1769 153.087 -13.7698C152.048 -13.3627 151.039 -12.9921 150.059 -12.658C149.042 -12.3134 148.033 -12.0834 147.038 -11.942C146.773 -11.6136 146.434 -11.405 146.014 -11.3422C145.594 -11.2794 145.204 -11.1124 144.865 -10.7631C143.672 -10.3403 142.537 -9.99038 141.432 -9.67699C140.327 -9.3636 139.369 -8.95135 138.552 -8.46629C137.211 -8.00166 135.892 -7.59955 134.669 -7.28085C133.446 -6.96217 132.57 -6.54477 131.995 -6.04427C130.367 -5.61066 128.827 -5.14588 127.398 -4.57179C125.962 -4.02374 124.569 -3.4601 123.214 -2.90691C121.822 -2.34326 120.496 -1.82655 119.162 -1.33588C117.866 -0.855652 116.569 -0.516068 115.302 -0.353607C114.919 -0.160583 114.867 -0.0615768 115.199 -0.0149536C115.53 0.0316696 115.523 0.146278 115.221 0.344452C112.613 1.11218 110.108 1.96317 107.589 2.90273C105.069 3.84229 102.66 4.75051 100.288 5.64828C99.9051 5.84131 99.7135 5.86751 99.6766 5.73731C99.6397 5.60712 99.5439 5.54989 99.3376 5.524C99.0429 5.74821 98.7336 5.92035 98.4315 5.97788C98.1 6.0719 97.7537 6.11385 97.3705 6.16623C96.9874 6.21861 96.6042 6.271 96.2211 6.32339C95.838 6.37577 95.4991 6.44376 95.1676 6.53777C94.9243 6.38169 94.9537 6.20457 95.1525 6.06377C95.3514 5.92297 95.3882 5.77189 95.1523 5.64185C96.1026 5.34421 96.7879 5.37492 97.1713 5.74446C97.4955 5.6244 97.6281 5.53054 97.6133 5.47846C97.5985 5.42638 97.5101 5.3952 97.3774 5.34843C97.2447 5.30165 97.0826 5.29136 96.8763 5.26547C96.7068 5.22914 96.5741 5.18236 96.5446 5.0782C96.8024 5.00508 96.9424 4.93726 96.9939 4.83824C97.0454 4.73923 97.2149 4.63493 97.4285 4.54621C98.0179 4.37907 98.3274 4.48821 98.4234 4.82672C98.7991 4.60765 99.3147 4.32076 99.9777 3.99209C100.641 3.66341 101.34 3.3243 102.121 2.99032C102.902 2.65634 103.654 2.35884 104.412 2.08739C105.171 1.81594 105.878 1.6435 106.571 1.55962C106.829 1.4865 106.902 1.32497 106.836 1.09061C109.717 0.161194 112.428 -0.804558 114.903 -1.75971C117.378 -2.71486 120.023 -3.77431 122.771 -4.89116C122.866 -4.83393 123.058 -4.86013 123.353 -4.9437L124.2 -5.18397C124.495 -5.26753 124.716 -5.33022 124.878 -5.31992C125.032 -5.33567 125.165 -5.28889 125.195 -5.18473C125.467 -5.48706 125.762 -5.71128 126.115 -5.86782C126.469 -6.02436 126.83 -6.15486 127.198 -6.25932C127.567 -6.36379 127.898 -6.45781 128.215 -6.6039C128.539 -6.72396 128.723 -6.91683 128.848 -7.17738C129.349 -7.23506 129.953 -7.35013 130.675 -7.47049C131.397 -7.59086 131.906 -7.90379 132.2 -8.40928C132.51 -8.30013 132.782 -8.32118 133.07 -8.43079C133.357 -8.5404 133.563 -8.65515 133.769 -8.76991C133.939 -8.87421 134.116 -8.95249 134.292 -9.03076C134.44 -9.07254 134.609 -9.03621 134.742 -8.84879C135.353 -9.2191 136.09 -9.56868 136.981 -9.93399C137.873 -10.2993 138.683 -10.3885 139.347 -10.1546C139.685 -10.7851 140.613 -11.3015 142.05 -11.7089L142.153 -11.3444C143.936 -12.2157 145.778 -13.0193 147.73 -13.7136C149.682 -14.4079 151.671 -15.1126 153.675 -15.7653C155.679 -16.418 157.675 -17.0967 159.642 -17.7389C161.609 -18.3811 163.473 -19.1066 165.271 -19.9258C165.425 -19.9415 165.698 -19.9626 166.044 -20.0045C166.39 -20.0465 166.693 -20.104 166.995 -20.1615C167.289 -20.2451 167.51 -20.3078 167.717 -20.4225C167.886 -20.5268 167.967 -20.6623 167.915 -20.8446C168.704 -20.8713 169.492 -21.0386 170.354 -21.3674C171.179 -21.6858 172.041 -22.0146 172.903 -22.3434C173.765 -22.6723 174.627 -23.0011 175.467 -23.2674C176.306 -23.5337 177.139 -23.6854 177.935 -23.686C178.156 -23.8893 178.428 -24.051 178.833 -24.1659C179.239 -24.2808 179.644 -24.3958 180.049 -24.5107C180.454 -24.6256 180.823 -24.73 181.154 -24.8241C181.486 -24.9181 181.677 -25.0849 181.81 -25.3194C182.163 -25.3353 182.48 -25.3408 182.797 -25.3462C183.114 -25.3517 183.239 -25.1903 183.232 -24.9351C183.416 -24.9873 183.475 -25.0603 183.438 -25.1905L183.357 -25.4769C184.307 -25.7745 185.243 -26.1243 186.105 -26.4531C186.967 -26.7819 187.829 -27.1107 188.661 -27.4031C189.494 -27.6954 190.333 -27.9617 191.151 -28.1655C191.962 -28.3953 192.765 -28.5106 193.553 -28.5372C193.811 -28.6103 193.87 -28.6833 193.796 -28.8031C193.722 -28.9228 193.737 -29.0114 193.789 -29.1104C194.908 -29.5123 196.087 -29.8466 197.31 -30.1653C198.533 -30.484 199.719 -30.7922 200.861 -31.1161C202.003 -31.4399 203.035 -31.7324 203.933 -32.0717C204.839 -32.3849 205.606 -32.771 206.202 -33.1934C207.875 -33.4707 209.952 -34.0037 212.405 -34.7556C214.859 -35.5076 216.98 -36.1656 218.763 -36.7556C218.918 -36.7713 219.021 -36.6881 219.021 -36.5474C219.021 -36.4068 219.198 -36.3444 219.5 -36.402C219.677 -36.4802 219.729 -36.5792 219.699 -36.6834L219.611 -36.9959C220.576 -37.2414 221.489 -37.5286 222.27 -37.8626C222.182 -37.4719 222.366 -37.2428 222.735 -37.2066C223.162 -37.2434 223.435 -37.4051 223.523 -37.6552C223.648 -37.9158 223.501 -38.0146 223.147 -37.9987C223.788 -38.2649 224.421 -38.4164 225.099 -38.5524C225.784 -38.6623 226.506 -38.7827 227.376 -38.9448C227.516 -39.0126 227.589 -39.1742 227.53 -39.3825C228.09 -39.5131 228.562 -39.675 228.901 -39.8836C229.239 -40.0922 229.556 -40.0977 229.881 -39.9364C229.917 -39.8062 229.638 -39.6706 229.063 -39.592C229.387 -39.4308 229.954 -39.5354 230.802 -39.9163L230.676 -39.7964ZM123.514 -5.63661C123.551 -5.7877 123.61 -5.86066 123.654 -5.84507C123.662 -5.81903 123.75 -5.78786 123.765 -5.73578C123.78 -5.6837 123.794 -5.63161 123.728 -5.58469C123.699 -5.5482 123.618 -5.55335 123.514 -5.63661ZM146.298 -18.0619C146.637 -18.1299 146.836 -18.13 146.887 -18.0884C146.939 -18.0468 146.917 -17.9843 146.85 -17.9373C146.784 -17.8904 146.681 -17.833 146.563 -17.8277C146.453 -17.7964 146.349 -17.8796 146.298 -18.0619ZM152.353 -20.8482C152.353 -20.8482 152.213 -20.6397 152.279 -20.6866C152.353 -20.7075 152.449 -20.7909 152.508 -20.8639C152.567 -20.9369 152.633 -20.9838 152.662 -21.0203C152.692 -21.0568 152.589 -20.9994 152.39 -20.8586L152.353 -20.8482ZM210.87 -38.6247L211.46 -38.7918L211.386 -39.0522L210.797 -38.8851L210.87 -38.6247ZM229.701 -44.64C229.811 -44.8119 229.944 -44.9058 230.025 -44.9007C230.106 -44.8955 230.158 -44.8539 230.135 -44.7913C230.113 -44.7288 230.054 -44.6559 229.988 -44.6089C229.922 -44.562 229.804 -44.5567 229.701 -44.64ZM239.941 -47.5441C239.978 -47.6951 240.037 -47.7681 240.081 -47.7525C240.089 -47.7265 240.177 -47.6953 240.192 -47.6432C240.207 -47.5911 240.221 -47.5391 240.155 -47.4921C240.126 -47.4556 240.045 -47.4608 239.941 -47.5441ZM241.099 -46.6907C241.099 -46.6907 241.327 -46.868 241.548 -46.9306L242.285 -47.1396C242.285 -47.1396 242.056 -46.9623 241.835 -46.8996L241.099 -46.6907ZM247.865 -44.1644C247.865 -44.1644 247.688 -43.9455 247.717 -43.982C247.717 -43.982 247.813 -44.0654 247.953 -44.1332C248.056 -44.1906 248.115 -44.2636 248.181 -44.3105C248.174 -44.3365 248.108 -44.2896 247.901 -44.1748L247.865 -44.1644ZM250.115 -50.6825L250.742 -50.8601L250.815 -50.5997L250.189 -50.4221L250.115 -50.6825ZM252.429 -51.226C252.429 -51.226 252.149 -51.0904 252.038 -51.059C251.928 -51.0277 251.862 -50.9808 251.884 -50.9026C251.272 -50.8136 251.25 -50.8917 251.699 -51.1317C252.149 -51.3716 252.414 -51.4187 252.466 -51.2365L252.429 -51.226ZM257.287 -47.8492C257.471 -47.9014 257.655 -47.9537 257.824 -48.058C257.773 -47.959 257.633 -47.8911 257.412 -47.8285C257.191 -47.7658 257.044 -47.724 256.874 -47.6197C256.926 -47.7187 257.066 -47.7865 257.25 -47.8388L257.287 -47.8492ZM260.924 -52.4254C260.924 -52.4254 261.182 -52.4986 261.197 -52.4465C261.204 -52.4205 261.123 -52.4256 260.924 -52.4254ZM261.372 -54.0718C261.8 -54.1086 262.146 -54.1505 262.456 -54.182C262.765 -54.2135 263.104 -54.2815 263.509 -54.3964C263.598 -54.084 263.834 -53.9539 264.246 -54.0428C264.99 -54.507 265.83 -54.9139 266.736 -55.2271C267.642 -55.5404 268.497 -55.614 269.219 -55.453C269.396 -55.8126 269.69 -56.0368 270.213 -56.157C270.737 -56.2772 270.884 -56.4597 270.729 -56.7252C271.274 -56.9079 271.665 -56.9343 271.834 -56.7573C272.004 -56.5803 272.299 -56.5233 272.711 -56.6121C273.035 -56.7322 273.006 -56.8363 272.711 -56.8934C272.379 -56.94 272.416 -57.0911 272.792 -57.3102C273.16 -57.274 273.344 -57.3262 273.381 -57.4773C273.816 -57.4881 274.125 -57.3789 274.273 -57.1394C274.42 -56.8999 274.538 -56.624 274.627 -56.3115C274.155 -56.4309 273.632 -56.4514 273.109 -56.3312C272.586 -56.211 272.034 -56.0543 271.525 -55.882C271.017 -55.7097 270.472 -55.5269 269.89 -55.3338C269.337 -55.1771 268.807 -55.0829 268.365 -55.0982C267.982 -54.9052 267.812 -54.8008 267.937 -54.7801C268.026 -54.7489 268.092 -54.6552 268.144 -54.4729C267.252 -54.2483 266.744 -54.2166 266.597 -54.3155C266.486 -54.4248 265.956 -54.3306 265.094 -54.0018C264.917 -53.9235 264.932 -53.8714 265.057 -53.8507C265.182 -53.8299 265.241 -53.7623 265.197 -53.6372C264.534 -53.4492 263.871 -53.2612 263.149 -53.1408C262.434 -52.9944 261.8 -52.9835 261.255 -53.082C261.336 -53.3582 261.321 -53.5509 261.225 -53.6081C261.13 -53.6653 261.129 -53.806 261.225 -54.03L261.372 -54.0718ZM262.731 -49.2807C262.731 -49.2807 262.65 -49.2858 262.805 -49.3016C262.923 -49.3069 262.923 -49.3069 262.731 -49.2807ZM268.917 -54.6923C268.917 -54.6923 269.035 -54.6976 268.844 -54.6714C268.763 -54.6766 268.763 -54.6766 268.917 -54.6923ZM275.064 -52.6656C275.116 -52.4833 275.197 -52.3375 275.307 -52.2282C275.418 -52.1189 275.691 -52.14 276.089 -52.2809C276.309 -52.4843 276.575 -52.672 276.972 -52.8129C277.37 -52.9539 277.768 -53.0948 278.181 -53.1837C278.586 -53.2986 278.954 -53.4031 279.286 -53.4971C279.617 -53.5911 279.846 -53.7684 280.067 -53.9717C280.494 -54.0085 280.84 -54.0504 281.157 -54.0559C281.474 -54.0613 281.82 -54.1033 282.247 -54.1401C282.226 -53.9369 282.24 -53.7442 282.344 -53.5203C282.447 -53.2964 282.211 -53.1452 281.637 -53.0666C281.194 -53.0819 281.054 -53.1547 281.253 -53.2955C281.415 -53.4258 281.57 -53.5822 281.717 -53.7646C281.076 -53.4985 280.597 -53.3627 280.207 -53.3363C279.816 -53.31 279.396 -53.2471 279.006 -53.2208C278.159 -52.8399 277.4 -52.4278 276.715 -52.0366C276.03 -51.6454 275.242 -51.3375 274.35 -51.1128C274.254 -51.17 274.129 -51.1908 273.996 -51.2375C273.864 -51.2843 273.797 -51.378 273.834 -51.5291C273.429 -51.4142 273.208 -51.3515 273.186 -51.289C273.156 -51.2525 273.171 -51.2004 273.23 -51.1328C273.289 -51.0651 273.304 -51.013 273.275 -50.9765C273.245 -50.94 273.105 -50.8722 272.847 -50.7991C272.715 -50.9865 272.486 -51.0905 272.235 -51.132C271.948 -51.163 271.86 -51.3348 271.962 -51.6735C272.419 -51.8874 272.684 -52.0751 272.706 -52.2783C273.134 -52.3151 273.333 -52.3153 273.237 -52.2318C273.178 -52.1589 273.134 -52.0338 273.075 -51.8202C273.672 -51.9613 274.07 -52.1023 274.35 -52.2379C274.622 -52.3996 274.865 -52.5248 275.064 -52.6656ZM275.064 -52.6656C275.064 -52.6656 275.108 -52.7906 275.226 -52.7959C275.337 -52.8273 275.315 -52.7648 275.064 -52.6656ZM275.01 -57.489C275.798 -57.7969 276.417 -57.8599 276.866 -57.678C277.316 -57.496 277.485 -57.319 277.353 -57.0845C276.55 -56.8287 276.012 -56.7605 275.761 -56.9427C275.511 -57.1248 275.26 -57.3069 275.01 -57.489ZM279.139 -52.7521C279.264 -52.5907 279.176 -52.4813 278.837 -52.4133C278.505 -52.3193 278.358 -52.2775 278.395 -52.1473C277.968 -52.1105 277.872 -52.1677 278.13 -52.3815C278.387 -52.5953 278.711 -52.7153 279.139 -52.7521ZM281.493 -59.3276C281.397 -58.9629 281.626 -58.8589 282.105 -58.9947C281.707 -58.8537 281.279 -58.6763 280.852 -58.4989C280.425 -58.3214 280.314 -58.1494 280.558 -57.9934C280.293 -57.9463 280.13 -57.9566 280.042 -57.9878C279.954 -58.0189 279.902 -58.0606 279.88 -58.1387C279.858 -58.2168 279.769 -58.248 279.637 -58.2948C279.504 -58.3415 279.239 -58.2945 278.944 -58.2109C278.649 -57.9867 278.502 -57.8043 278.458 -57.6792C278.244 -57.7311 278.038 -57.757 277.832 -57.7829C277.625 -57.8088 277.485 -57.8816 277.433 -58.0639C278.118 -58.4551 278.73 -58.6847 279.253 -58.805C279.776 -58.9252 280.564 -59.0925 281.53 -59.338L281.493 -59.3276ZM282.542 -54.2237C282.896 -54.5208 283.338 -54.6462 283.854 -54.6518C284.369 -54.6574 284.841 -54.6786 285.253 -54.7675C285.011 -54.361 284.473 -54.0116 283.559 -53.7244C283.382 -53.7868 283.198 -53.8752 283.08 -54.0105C282.962 -54.1459 282.749 -54.1978 282.505 -54.2132L282.542 -54.2237ZM283.364 -59.1832C282.547 -58.9794 282.082 -59.0728 281.972 -59.4634C282.554 -59.6566 282.929 -59.735 283.217 -59.704C283.268 -59.5217 283.217 -59.4227 283.114 -59.3653C283.003 -59.334 283.07 -59.2402 283.364 -59.1832ZM283.364 -59.1832C283.696 -59.2772 283.807 -59.1679 283.726 -58.8918L283.247 -58.756C283.247 -58.756 282.908 -58.8286 282.834 -58.8077C282.812 -58.8858 282.878 -58.9328 283.062 -58.985C283.247 -59.0372 283.35 -59.0946 283.401 -59.1936L283.364 -59.1832ZM284.462 -59.9445C284.366 -59.7205 284.057 -59.5483 283.578 -59.4125C283.467 -59.5218 283.519 -59.6208 283.777 -59.694C284.035 -59.7671 284.256 -59.8298 284.499 -59.955L284.462 -59.9445ZM285.659 -54.3198C285.696 -54.4709 285.755 -54.5439 285.799 -54.5283C285.843 -54.5127 285.895 -54.4711 285.909 -54.419C285.924 -54.3669 285.939 -54.3148 285.873 -54.2679C285.843 -54.2314 285.762 -54.2366 285.659 -54.3198ZM292.161 -61.5653C292.161 -61.5653 292.308 -61.7477 292.404 -61.8311C292.5 -61.9145 292.596 -61.9979 292.647 -62.097C291.94 -61.7839 291.284 -61.5698 290.643 -61.4443C290.039 -61.3292 289.295 -61.1463 288.485 -60.9165C288.146 -60.5673 287.895 -60.3274 287.755 -60.2596C287.579 -60.1813 287.196 -59.9883 286.599 -59.7066C286.658 -60.0608 286.466 -60.1753 285.98 -60.0655C285.493 -59.9557 285.14 -59.9398 284.941 -60.0803C285.029 -60.3304 285.427 -60.4714 286.053 -60.5083C286.679 -60.5453 287.158 -60.5404 287.446 -60.5094C287.829 -60.7024 287.954 -60.8223 287.77 -60.9107C287.622 -61.0096 287.814 -61.1764 288.337 -61.4373C289.14 -61.4119 289.796 -61.4853 290.37 -61.7045C290.908 -61.9133 291.704 -62.1952 292.765 -62.5242C292.971 -62.3576 293.155 -62.2692 293.31 -62.285C293.428 -62.2903 293.472 -62.1341 293.369 -61.7954C293.045 -61.6753 292.817 -61.6387 292.699 -61.6334C292.574 -61.6541 292.382 -61.6279 292.124 -61.5548L292.161 -61.5653ZM286.594 -55.654C286.992 -55.795 287.257 -55.8421 287.427 -55.8057C287.559 -55.759 287.802 -55.7435 288.141 -55.8115C287.839 -55.6133 287.618 -55.41 287.397 -55.2067C286.815 -55.0135 286.499 -55.0081 286.41 -55.1799C286.322 -55.3517 286.395 -55.5132 286.594 -55.654ZM285.486 -59.5599C285.575 -59.5287 285.575 -59.5287 285.486 -59.5599V-59.5599ZM293.07 -57.378C293.122 -57.1957 293.269 -57.0969 293.549 -57.0919C293.829 -57.0869 294.013 -56.9985 294.139 -56.8371C293.343 -56.8365 292.621 -56.7161 291.928 -56.4916C291.236 -56.2671 290.654 -56.2145 290.167 -56.3861C290.838 -56.5481 291.309 -56.7099 291.678 -56.8144C292.031 -56.9709 292.495 -57.1588 293.04 -57.3415L293.07 -57.378ZM292.161 -61.5653C291.955 -61.3099 291.498 -61.096 290.761 -60.887C290.555 -61.0535 290.643 -61.163 291.056 -61.2519C291.469 -61.3407 291.837 -61.4452 292.161 -61.5653ZM294.617 -57.5355C295.273 -57.7495 295.759 -57.8593 296.128 -57.9638C296.511 -58.0162 296.96 -58.1155 297.549 -58.2826C297.277 -57.9803 296.754 -57.7194 295.988 -57.474C295.214 -57.2547 294.735 -57.2595 294.573 -57.5511L294.617 -57.5355ZM294.076 -62.671C294.813 -62.88 295.159 -62.7813 295.071 -62.3905C294.342 -62.1556 294.003 -62.2282 294.076 -62.671ZM297.336 -57.6313C297.572 -57.7826 297.638 -57.8295 297.609 -57.793L297.38 -57.6157C297.38 -57.6157 297.218 -57.4854 297.152 -57.4385C297.086 -57.3915 297.152 -57.4385 297.299 -57.6209L297.336 -57.6313ZM295.815 -62.9953C295.815 -62.9953 295.734 -63.0005 295.889 -63.0162C296.007 -63.0215 296.007 -63.0215 295.815 -62.9953ZM296.574 -62.7042C296.574 -62.7042 296.618 -62.8293 296.736 -62.8346C296.847 -62.8659 296.994 -62.9077 297.178 -62.9599C297.2 -62.8818 296.987 -62.7931 296.581 -62.6782L296.574 -62.7042ZM297.392 -63.0487L298.018 -63.2262L298.092 -62.9659L297.466 -62.7883L297.392 -63.0487ZM298.971 -58.8827C299.369 -59.0237 299.737 -59.1282 300.076 -59.1961C300.415 -59.2641 300.563 -59.1653 300.548 -58.9361C300.209 -58.8681 300.032 -58.7898 299.937 -58.7064C299.885 -58.6074 299.664 -58.5447 299.362 -58.4872C299.075 -58.5182 298.957 -58.6535 298.971 -58.8827ZM302.254 -64.9901C301.9 -64.693 301.908 -64.5263 302.276 -64.4901C302.645 -64.4539 302.711 -64.3602 302.475 -64.209C301.989 -64.3805 301.51 -64.3853 301.068 -64.26C300.626 -64.1346 300.066 -64.004 299.381 -63.894C299.417 -64.3264 299.778 -64.5975 300.39 -64.6866C301.038 -64.786 301.605 -64.8907 302.217 -64.9797L302.254 -64.9901ZM301.027 -59.0719C301.064 -59.2229 301.123 -59.2959 301.167 -59.2803C301.211 -59.2647 301.263 -59.2231 301.277 -59.171C301.292 -59.1189 301.307 -59.0669 301.241 -59.0199C301.211 -58.9835 301.13 -58.9886 301.027 -59.0719ZM303.934 -65.5227C304.295 -65.5126 304.781 -65.6224 305.422 -65.8885C305.775 -65.9044 305.805 -65.8003 305.584 -65.597C305.326 -65.3832 305.466 -65.3104 305.967 -65.3681C305.798 -65.4044 305.231 -65.2998 304.251 -65.1063C303.271 -64.9128 302.711 -64.9228 302.445 -65.157C303.086 -65.4231 303.573 -65.5329 303.934 -65.5227ZM306.38 -66.1601L306.858 -66.2959L306.932 -66.0356L306.453 -65.8997L306.38 -66.1601ZM308.148 -66.3803C308.148 -66.3803 308.398 -66.6201 308.479 -66.6149C308.553 -66.6358 308.605 -66.5942 308.583 -66.5317C308.56 -66.4692 308.502 -66.3962 308.435 -66.3493C308.369 -66.3023 308.288 -66.3075 308.148 -66.3803ZM308.553 -65.9326C308.553 -65.9326 308.598 -66.0577 308.708 -66.089C308.819 -66.1204 308.966 -66.1621 309.135 -66.2665C309.157 -66.1883 309.091 -66.1414 308.981 -66.1101C308.87 -66.0787 308.723 -66.0369 308.553 -65.9326ZM310.218 -67.0799C310.218 -67.0799 310.262 -67.2049 310.373 -67.2363C310.483 -67.2676 310.63 -67.3094 310.8 -67.4137C310.822 -67.3356 310.756 -67.2887 310.645 -67.2573C310.535 -67.226 310.387 -67.1842 310.218 -67.0799ZM311.242 -67.5391L312.2 -67.8107C312.325 -67.6493 312.281 -67.5242 312.03 -67.4251C311.78 -67.3259 311.773 -67.2113 312.009 -67.0813C311.839 -67.1176 311.706 -67.1644 311.64 -67.2581C311.574 -67.3518 311.426 -67.4506 311.242 -67.5391ZM312.605 -67.363C312.642 -67.5141 312.701 -67.5871 312.745 -67.5715C312.789 -67.5559 312.841 -67.5143 312.856 -67.4622C312.87 -67.4101 312.885 -67.358 312.819 -67.3111C312.789 -67.2746 312.708 -67.2797 312.605 -67.363ZM314.778 -68.5419C314.778 -68.5419 314.454 -68.2812 314.167 -68.1716C313.88 -68.062 313.629 -67.9628 313.415 -67.8741C313.172 -68.0302 313.334 -68.1605 313.784 -68.2599C314.233 -68.3592 314.565 -68.4532 314.815 -68.5524L314.778 -68.5419ZM315.147 -68.6464C315.699 -68.8031 316.031 -68.7564 316.112 -68.47L315.265 -68.2298L315.147 -68.6464ZM317.873 -68.8568C317.578 -68.9139 317.512 -69.0076 317.6 -69.1171C317.688 -69.2265 317.828 -69.2944 317.939 -69.3257C318.049 -69.357 318.13 -69.3519 318.226 -69.2947C318.322 -69.2374 318.167 -69.0811 317.873 -68.8568ZM318.941 -69.7224C318.941 -69.7224 319.051 -69.8943 319.095 -69.8787C319.103 -69.8527 319.191 -69.8215 319.206 -69.7694C319.221 -69.7174 319.236 -69.6653 319.169 -69.6183C319.14 -69.5819 319.059 -69.587 318.941 -69.7224ZM322.742 -70.6316C322.978 -70.7829 323.044 -70.8298 323.015 -70.7933L322.787 -70.6161L322.558 -70.4388C322.558 -70.4388 322.551 -70.4648 322.706 -70.6212L322.742 -70.6316ZM325.019 -71.446C325.144 -71.2846 325.063 -71.1491 324.739 -71.0291C324.415 -70.909 324.061 -70.7525 323.663 -70.6115C323.906 -71.018 324.348 -71.284 325.019 -71.446ZM327.826 -71.792C327.826 -71.792 327.87 -71.917 327.981 -71.9484C328.091 -71.9797 328.238 -72.0215 328.408 -72.1258C328.43 -72.0477 328.364 -72.0007 328.253 -71.9694C328.143 -71.9381 327.995 -71.8963 327.826 -71.792Z" fill="#FFF5EE"/>
<path d="M21.4714 13.3144C21.3611 13.627 21.2581 13.9657 21.1552 14.3044C21.0522 14.643 20.9051 14.9661 20.7357 15.211C19.8665 15.6545 18.9826 16.1865 18.1135 16.7705C17.2443 17.3546 16.3604 17.746 15.4099 17.903C15.3731 18.0541 15.2774 18.1375 15.0932 18.1897C14.9091 18.2419 14.8575 18.341 14.8798 18.5597C14.4819 18.56 14.1061 18.6384 13.7157 18.8054C13.3253 18.9724 12.898 19.1498 12.5149 19.3429C12.095 19.5463 11.7046 19.7133 11.3216 19.9064C10.9385 20.0994 10.5628 20.1778 10.2017 20.1677C9.76715 20.4597 9.39148 20.6788 8.94946 20.8041C8.54425 20.9191 8.10959 21.0704 7.71918 21.2374C7.32135 21.3784 6.93829 21.5714 6.60687 21.8061C6.27542 22.0407 5.97351 22.3795 5.74536 22.8381C5.8266 23.1245 5.88565 23.3328 5.9668 23.4786C6.08478 23.614 6.16595 23.7598 6.32077 23.8846C7.55884 24.1806 8.84845 24.3775 10.197 24.5015C11.5455 24.6255 12.894 24.7494 14.2352 24.8474C15.5837 24.9713 16.8954 25.1058 18.1776 25.2766C19.4598 25.4475 20.6463 25.7019 21.7813 26.0552C21.833 26.2375 21.8404 26.4042 21.6563 26.597C21.5091 26.7794 21.4871 26.9826 21.5462 27.1909C21.7895 27.4876 22.0548 27.5812 22.4011 27.5393C22.7474 27.4973 23.0568 27.3252 23.2998 27.0593C23.587 26.8091 23.7784 26.5016 23.9108 26.1265C24.0432 25.7513 24.0209 25.3919 23.8438 25.0483C23.291 24.6424 22.7382 24.3772 22.1118 24.2735C21.4854 24.1698 20.859 24.0661 20.1958 23.9729C19.6947 23.8899 19.1788 23.7549 18.685 23.5573C18.1912 23.3598 17.6974 23.3028 17.1816 23.3085C17.1079 23.3293 16.9974 23.3607 16.9017 23.4441C16.806 23.5275 16.6955 23.5589 16.6586 23.5693C16.3712 23.5383 16.0396 23.4917 15.7227 23.3565C15.3689 23.2317 15.0594 23.1226 14.7204 23.0499C14.3519 23.0137 13.9909 23.0036 13.6003 23.03C13.2098 23.0563 12.893 23.0618 12.5982 23.0047C12.1708 22.9008 11.6697 22.8179 11.0507 22.7402C10.4685 22.6521 9.88632 22.564 9.3999 22.3925C9.61346 22.1632 9.84915 22.0119 10.1364 21.9023C10.4312 21.8187 10.7258 21.7352 11.0501 21.7557C11.1826 21.6619 11.3152 21.568 11.4478 21.4742C11.5877 21.4063 11.7203 21.3125 11.8455 21.1926L12.9065 21.0042C13.3779 20.7017 13.8714 20.4774 14.3577 20.3676C14.844 20.2578 15.2933 20.0179 15.7426 19.6373C16.4719 19.4023 17.1865 19.1153 17.9747 18.8073C18.7261 18.5098 19.4922 18.1238 20.1625 17.6805C20.8327 17.2372 21.4735 16.6898 22.011 16.0591C22.5485 15.4284 22.8944 14.6833 23.1297 13.8288C22.9008 13.0216 22.3333 12.845 21.4346 13.3249L21.4714 13.3144Z" fill="#FFF5EE"/>
</g>
</svg>
