<svg width="39" height="39" viewBox="0 0 39 39" fill="none" xmlns="http://www.w3.org/2000/svg">
<circle cx="19.1733" cy="19.8476" r="19.0888" fill="#AB6333"/>
<mask id="mask0_1261_948" style="mask-type:alpha" maskUnits="userSpaceOnUse" x="9" y="0" width="30" height="39">
<ellipse cx="23.7546" cy="19.8477" rx="14.5075" ry="19.0888" fill="#996239"/>
</mask>
<g mask="url(#mask0_1261_948)">
<path d="M-46.3663 -1.80778C-46.3663 8.7347 -54.9127 17.2811 -65.4552 17.2811C-75.9977 17.2811 -84.544 8.7347 -84.544 -1.80778C-84.544 -12.3503 -75.9977 -20.8966 -65.4552 -20.8966C-54.9127 -20.8966 -46.3663 -12.3503 -46.3663 -1.80778Z" fill="#FFF5EE"/>
<path d="M-222.578 -52.4254C-222.121 -52.2115 -221.878 -52.227 -221.944 -52.4145C-221.966 -52.6177 -221.863 -52.701 -221.583 -52.706C-221.141 -52.44 -220.876 -52.2522 -220.743 -52.1584C-220.647 -52.075 -220.581 -51.8874 -220.589 -51.5801C-220.014 -51.5015 -219.513 -51.4438 -219.189 -51.4644C-218.828 -51.4745 -218.4 -51.4377 -217.899 -51.38C-217.502 -51.2391 -217.443 -51.1661 -217.76 -51.1716C-218.076 -51.177 -218.017 -51.104 -217.634 -50.911C-217.229 -50.7961 -217.023 -50.822 -217.015 -50.9887C-216.971 -51.1449 -216.802 -51.1812 -216.396 -51.0663C-216.249 -51.0246 -216.139 -50.9932 -216.124 -50.9046C-216.102 -50.8421 -216.08 -50.7796 -216.095 -50.7275C-216.109 -50.6754 -216.124 -50.6234 -216.065 -50.5504C-216.043 -50.4879 -215.896 -50.4461 -215.623 -50.425C-215.711 -50.6751 -215.711 -50.8158 -215.63 -50.8209C-215.549 -50.8261 -215.335 -50.878 -215.077 -50.9455C-214.93 -50.7631 -214.695 -50.6118 -214.37 -50.4918C-214.002 -50.3873 -213.722 -50.2517 -213.486 -50.1004C-213.597 -49.9911 -213.774 -49.9288 -214.002 -49.9654C-214.194 -49.9916 -214.187 -49.877 -213.892 -49.6528C-213.325 -49.4075 -213.052 -49.3865 -213.008 -49.5427C-212.963 -49.6989 -212.713 -49.7404 -212.3 -49.6515C-211.991 -49.4794 -211.969 -49.4169 -212.242 -49.4379C-212.514 -49.459 -212.463 -49.36 -212.197 -49.1722C-211.593 -49.1978 -211.07 -49.0776 -210.658 -48.8481C-210.245 -48.6186 -209.663 -48.4254 -208.919 -48.2425C-208.867 -48.4248 -208.786 -48.5706 -208.676 -48.6799C-208.565 -48.7892 -208.292 -48.7681 -207.895 -48.6272C-207.615 -48.6322 -207.526 -48.5227 -207.593 -48.2884C-207.659 -48.054 -207.792 -48.0072 -208.027 -48.1585C-207.622 -48.0436 -207.195 -47.8661 -206.783 -47.6366C-206.37 -47.4071 -206.009 -47.4172 -205.677 -47.6045C-205.766 -47.8546 -206.053 -47.9642 -206.495 -47.9489C-206.937 -47.9337 -207.232 -48.0172 -207.327 -48.2413C-207.298 -48.3454 -207.187 -48.4547 -207.003 -48.5431C-206.782 -48.3398 -206.399 -48.1468 -205.847 -47.9901L-204.189 -47.52C-203.673 -47.3738 -203.165 -47.2015 -202.745 -46.998C-202.325 -46.7945 -202.148 -46.5756 -202.215 -46.3413L-200.52 -45.8607L-200.373 -46.3815C-199.99 -46.1885 -199.754 -46.0372 -199.68 -45.8757C-199.607 -45.7142 -199.364 -45.7296 -198.966 -45.87C-198.583 -45.6769 -198.531 -45.5779 -198.782 -45.5364C-199.032 -45.495 -199.017 -45.4064 -198.745 -45.2447C-198.119 -45.2078 -197.728 -45.1814 -197.544 -45.1292C-197.36 -45.0769 -196.977 -44.8839 -196.461 -44.597C-196.166 -44.6541 -196.107 -44.7218 -196.21 -44.7792C-196.321 -44.8105 -196.365 -44.9355 -196.313 -45.1178C-195.834 -44.982 -195.503 -44.888 -195.37 -44.7941C-195.194 -44.7159 -195.135 -44.6429 -195.12 -44.5543C-195.105 -44.4658 -195.083 -44.4032 -195.105 -44.3251C-195.128 -44.247 -195.032 -44.1636 -194.796 -44.0123C-194.199 -43.8712 -193.882 -44.0064 -193.772 -44.397C-193.551 -44.1937 -193.182 -43.9486 -192.578 -43.6929C-191.974 -43.4372 -191.37 -43.1815 -190.751 -42.9778C-190.096 -42.7638 -189.506 -42.5966 -188.91 -42.4555C-188.305 -42.3405 -187.915 -42.3141 -187.628 -42.3451C-187.532 -42.1211 -187.156 -41.902 -186.582 -41.6828C-185.97 -41.4531 -185.314 -41.2391 -184.578 -41.0301C-183.841 -40.8212 -183.141 -40.6227 -182.493 -40.5232C-181.815 -40.3873 -181.321 -40.3036 -180.968 -40.2877C-180.783 -40.2354 -180.725 -40.1625 -180.71 -40.0739C-180.695 -39.9853 -180.607 -39.8759 -180.482 -39.756C-177.94 -39.1758 -175.214 -38.4028 -172.304 -37.4369C-169.438 -36.4554 -166.72 -35.6563 -164.148 -35.0397C-164.112 -35.1699 -164.2 -35.2793 -164.458 -35.3524C-164.716 -35.4256 -164.767 -35.5246 -164.642 -35.686C-164.155 -35.5762 -163.794 -35.4457 -163.647 -35.2633C-163.5 -35.0808 -163.198 -35.0233 -162.866 -35.0699C-162.41 -34.856 -162.277 -34.7621 -162.52 -34.7467C-162.726 -34.7208 -162.719 -34.6062 -162.425 -34.382C-161.754 -34.22 -161.062 -33.9955 -160.288 -33.7761C-159.529 -33.5047 -158.8 -33.2697 -158.107 -33.0452C-157.408 -32.8467 -156.818 -32.6796 -156.251 -32.5749C-155.72 -32.4808 -155.271 -32.5221 -154.969 -32.7458C-154.63 -32.6779 -154.453 -32.5996 -154.431 -32.5371C-154.409 -32.4745 -154.438 -32.3704 -154.497 -32.3027C-154.556 -32.235 -154.578 -32.1569 -154.564 -32.0684C-154.549 -31.9798 -154.365 -31.9276 -154.011 -31.9117C-154.24 -32.0889 -154.239 -32.2296 -154.085 -32.3545C-153.93 -32.4794 -153.716 -32.5313 -153.436 -32.5363C-153.156 -32.5413 -153.075 -32.4058 -153.149 -32.1454C-153.223 -31.885 -153.363 -31.8122 -153.613 -31.9114C-153.569 -31.7863 -153.466 -31.7289 -153.274 -31.7027C-153.083 -31.6765 -152.921 -31.6868 -152.751 -31.7232C-152.545 -31.7491 -152.427 -31.7438 -152.28 -31.702C-152.132 -31.6602 -152.118 -31.5716 -152.169 -31.3893C-151.786 -31.1963 -151.58 -31.2222 -151.573 -31.3889C-151.565 -31.5556 -151.359 -31.5814 -150.961 -31.4405C-150.814 -31.3987 -150.718 -31.3153 -150.747 -31.2111C-150.777 -31.107 -150.873 -31.0498 -151.064 -31.076C-150.18 -30.8252 -149.193 -30.5172 -148.184 -30.1465C-147.138 -29.7655 -146.077 -29.4365 -144.979 -29.0971C-143.874 -28.7837 -142.843 -28.4912 -141.811 -28.1987C-140.772 -27.9322 -139.859 -27.7856 -138.997 -27.7381C-139.078 -27.733 -139.129 -27.6913 -139.144 -27.6392C-139.159 -27.5872 -139.24 -27.582 -139.424 -27.6343C-137.45 -26.8774 -134.974 -26.0629 -132.042 -25.1751C-129.073 -24.2769 -126.34 -23.3893 -123.762 -22.5174C-123.379 -22.3243 -123.15 -22.2877 -123.113 -22.4179C-123.076 -22.5481 -122.981 -22.6053 -122.774 -22.6312C-120.859 -21.6661 -118.693 -20.883 -116.291 -20.2301C-113.89 -19.5771 -111.539 -18.8825 -109.211 -18.1098C-109.307 -18.3338 -109.278 -18.438 -109.049 -18.4013C-108.858 -18.3751 -108.754 -18.4584 -108.776 -18.6616C-109.196 -19.0057 -109.675 -19.1415 -110.25 -19.0794C-110.316 -19.4076 -110.139 -19.47 -109.668 -19.3082C-109.196 -19.1463 -108.754 -19.021 -108.341 -18.9321C-108.017 -18.812 -107.944 -18.6505 -108.15 -18.484C-108.32 -18.307 -108.32 -18.1664 -108.069 -18.0672C-107.48 -17.9001 -107.333 -17.7176 -107.561 -17.473C-107.156 -17.3581 -106.839 -17.3526 -106.581 -17.4202C-106.323 -17.4877 -106.191 -17.3938 -106.088 -17.0551C-105.904 -17.0029 -105.83 -16.982 -105.771 -17.0497C-105.719 -17.0913 -105.668 -17.133 -105.646 -17.2111C-105.623 -17.2892 -105.609 -17.3413 -105.528 -17.3464C-105.447 -17.3516 -105.336 -17.3202 -105.086 -17.2211C-104.688 -17.0801 -104.636 -16.9811 -104.953 -16.9866C-105.27 -16.992 -105.344 -16.8723 -105.233 -16.7003C-104.828 -16.5854 -104.526 -16.5278 -104.357 -16.5642C-104.15 -16.59 -103.951 -16.5899 -103.723 -16.5533C-102.618 -16.0992 -101.388 -15.6659 -99.9952 -15.2429C-98.5954 -14.846 -97.6156 -14.5118 -96.9747 -14.2457C-96.739 -14.0944 -96.4001 -14.0265 -95.9948 -14.0522C-95.5527 -14.0675 -95.2874 -14.0204 -95.2211 -13.9735C-94.2856 -13.6237 -93.2763 -13.2531 -92.2375 -12.846C-91.1988 -12.4389 -90.1895 -12.2089 -89.1358 -12.1352C-86.9111 -11.2792 -84.6641 -10.5013 -82.3656 -9.76511C-80.067 -9.02887 -77.7611 -8.31867 -75.4847 -7.64495C-73.1714 -6.96079 -70.9023 -6.26104 -68.7142 -5.55614C-66.4894 -4.84079 -64.3161 -4.08382 -62.2018 -3.25916L-62.0837 -3.67579C-60.4114 -3.11713 -58.9306 -2.58468 -57.7225 -2.07327C-56.5143 -1.56186 -55.1735 -1.23787 -53.6924 -1.12733C-53.3463 -0.804108 -52.8602 -0.553703 -52.2708 -0.386559C-51.6814 -0.219421 -51.173 -0.187775 -50.7824 -0.302063C-50.3846 -0.161118 -50.333 -0.0621033 -50.6499 -0.0675583C-50.9667 -0.0730133 -51.0331 0.0206909 -50.9153 0.166634C-50.1712 0.349525 -49.5007 0.51152 -48.8745 0.68911C-48.2483 0.866699 -47.7695 1.0025 -47.3495 1.06533L-47.1427 0.336243C-46.6638 0.472046 -46.406 0.545174 -46.3913 0.633736C-46.3692 0.696259 -46.4282 0.763931 -46.5609 0.810707C-46.6935 0.857483 -46.8704 0.919853 -47.0179 1.01871C-47.1653 1.11756 -47.239 1.23731 -47.2023 1.3884C-46.6129 1.55554 -46.2592 1.57144 -46.1118 1.47259C-45.9644 1.37373 -45.7727 1.25928 -45.5516 1.18132C-45.2201 1.27534 -45.1317 1.3848 -45.2571 1.54617C-45.3825 1.70756 -45.3383 1.8326 -45.1026 1.98384C-43.8575 2.22442 -42.6051 2.57959 -41.3085 3.05982C-40.0561 3.55563 -38.9141 3.73884 -37.9488 3.70313C-37.7646 3.75536 -37.7057 3.82832 -37.7427 3.95852L-37.8386 4.29702C-36.925 4.44358 -36.1073 4.64737 -35.4516 4.86144C-34.7591 5.08596 -34.0077 5.38345 -33.1163 5.74876C-32.8289 5.71774 -32.7257 5.63447 -32.7256 5.49383C-32.7255 5.35319 -32.7328 5.23859 -32.7327 5.09795C-32.6958 4.96775 -32.74 4.8427 -32.7104 4.73854C-32.6809 4.63439 -32.5482 4.58762 -32.283 4.6347C-31.9295 4.93188 -31.8264 5.12991 -31.9518 5.29128C-32.0771 5.45266 -32.1068 5.69746 -32.048 6.0517C-31.1861 6.38054 -30.3463 6.64685 -29.5727 6.86622C-28.7991 7.08559 -28.0624 7.29453 -27.3625 7.493C-26.6626 7.69148 -25.9996 7.87952 -25.3734 8.05711C-24.7177 8.27118 -24.1578 8.54248 -23.6054 8.83981C-23.1633 8.82453 -22.6622 8.88222 -22.1465 9.02847C-21.6308 9.17472 -21.0783 9.33141 -20.4963 9.5246C-19.9437 9.6813 -19.3986 9.86403 -18.9271 10.0259C-18.4556 10.1877 -18.0282 10.2245 -17.645 10.1362C-16.8126 10.5692 -15.9581 10.9241 -15.1256 11.2164C-14.2932 11.5088 -13.4165 11.7855 -12.4587 12.0572L-9.58548 12.872C-8.62775 13.1436 -7.56686 13.4726 -6.44711 13.8745C-6.33652 13.7652 -6.30698 13.6611 -6.43954 13.5672C-6.57211 13.4733 -6.58682 13.3848 -6.55728 13.2806C-6.05624 13.3383 -5.85736 13.4791 -5.97534 13.6144C-6.10071 13.7758 -6.14502 13.932 -6.10828 14.0831C-4.4064 14.5376 -2.793 15.0233 -1.24585 15.4621C0.30127 15.9008 1.74518 16.4228 3.16702 16.8823C4.58887 17.3418 5.94443 17.7543 7.30737 18.1409C8.67032 18.5274 10.0112 18.8514 11.4405 19.1442C12.0371 19.5666 12.7738 19.9161 13.6652 20.1408C14.5567 20.3655 15.485 20.6006 16.428 20.7836C17.3711 20.9667 18.3068 21.1758 19.1614 21.39C20.016 21.6042 20.7011 21.8548 21.2388 22.2042C22.0125 22.2829 22.6166 22.398 23.1249 22.5703C23.5964 22.7321 24.0901 22.8159 24.6575 22.7798C24.7975 22.8477 24.8932 22.9311 24.9079 23.0196C24.9225 23.1082 25.0183 23.1916 25.1435 23.3115C25.9243 23.6455 26.5506 23.8231 26.9853 23.8338C27.4127 23.8706 27.7443 23.824 28.017 23.7044C28.2897 23.5848 28.4593 23.4079 28.5626 23.1839C28.6658 22.96 28.7766 22.7101 28.843 22.4758C27.9003 21.7301 26.7511 21.1511 25.3882 20.7645C24.0252 20.378 22.537 20.0123 21.0266 19.7246C19.4794 19.4265 17.9028 19.0919 16.2524 18.7364C14.6021 18.3809 13.0845 17.838 11.6849 17.1598C11.2206 17.2532 10.6459 17.1746 9.91656 16.9396C9.18723 16.7047 8.66422 16.4438 8.29593 16.1987C8.22946 16.4331 8.12619 16.657 7.99344 16.8444C7.86069 17.0318 7.47018 17.0054 6.82928 16.7393C7.06516 16.6093 7.242 16.5469 7.40414 16.5366C7.60309 16.5367 7.52951 16.3752 7.25705 16.0729C6.91815 16.0049 6.67496 16.0203 6.52753 16.1192C6.3801 16.2181 6.1001 16.223 5.6507 16.1237C5.31915 16.0297 5.30447 15.9411 5.52557 15.8632C5.74667 15.7852 5.94562 15.7854 6.12244 15.8636C5.48154 15.5975 4.79642 15.3469 4.0376 15.0755C3.27881 14.804 2.69675 14.7515 2.28397 14.9439C2.17355 14.7719 2.01151 14.6416 1.79788 14.5529C1.58426 14.4641 1.35587 14.4275 1.13483 14.3648C0.913818 14.3021 0.655945 14.229 0.471771 14.1768C0.287598 14.1246 0.132935 13.9682 -0.0143127 13.7857C-0.419525 13.6708 -0.588989 13.7072 -0.567017 13.9103C-2.15826 13.3465 -3.86008 12.7514 -5.70181 12.0884C-7.54355 11.4255 -9.39273 10.9292 -11.3231 10.5787C-12.4133 10.0726 -13.7099 9.59236 -15.2422 9.10154C-16.7746 8.61071 -17.9092 8.40147 -18.6167 8.51031C-19.0365 8.1662 -19.5153 7.88976 -20.0236 7.71747C-20.5319 7.54518 -21.0771 7.36244 -21.6075 7.26827C-22.138 7.1741 -22.6758 6.96532 -23.2652 6.79819C-23.8546 6.63104 -24.385 6.39623 -24.8858 6.05726C-25.0627 6.11963 -25.1733 6.22894 -25.2176 6.38517C-25.2619 6.5414 -25.4019 6.61422 -25.6819 6.61921C-26.0798 6.47826 -26.1313 6.37924 -25.8145 6.3847C-25.4976 6.39015 -25.3944 6.30689 -25.549 6.15051C-26.8014 5.65469 -28.0317 5.2214 -29.2031 4.86108C-30.3818 4.52679 -31.5237 4.20295 -32.6288 3.88956C-33.7339 3.57616 -34.8022 3.27322 -35.8557 2.9182C-36.9165 2.58921 -37.8816 2.203 -38.8245 1.73868C-38.8762 1.92095 -38.8394 2.07204 -38.7658 2.23357C-38.6922 2.3951 -38.5818 2.56709 -38.4493 2.80159C-38.9358 2.97311 -39.5768 2.8476 -40.3502 2.48758C-41.1237 2.12756 -41.2267 1.78891 -40.7033 1.4872C-42.545 0.824234 -44.2542 0.255142 -45.7939 -0.209648C-47.3779 -0.658844 -49.345 -1.16042 -51.7542 -1.64672C-51.7762 -1.84989 -52.0119 -2.00113 -52.4171 -2.11604C-52.8223 -2.23095 -53.058 -2.38219 -53.08 -2.58535C-53.5073 -2.62215 -53.6548 -2.52329 -53.4854 -2.27834C-53.3161 -2.03339 -53.2941 -1.83022 -53.3311 -1.70003C-53.3606 -1.59588 -53.5595 -1.59603 -53.8468 -1.70564C-54.1784 -1.79966 -54.3699 -1.82585 -54.51 -1.75303C-54.8046 -1.97724 -54.7751 -2.08141 -54.5024 -2.06036C-54.193 -2.02886 -54.0898 -2.11212 -54.1118 -2.31529C-54.4064 -2.5395 -54.9514 -2.86288 -55.8206 -3.30631C-56.653 -3.7393 -57.3382 -3.84921 -57.8321 -3.65166C-58.156 -4.05299 -58.6422 -4.3034 -59.3274 -4.41331C-60.0126 -4.52323 -60.4325 -4.72671 -60.5944 -4.9977C-60.9481 -5.0136 -61.265 -5.01906 -61.5155 -4.97758C-61.8029 -4.94655 -62.1566 -4.96245 -62.5471 -4.98879C-62.8491 -5.18697 -62.9447 -5.41103 -62.8783 -5.64538C-63.5709 -5.72926 -64.1676 -5.87036 -64.7349 -6.11562C-65.3021 -6.36088 -65.7662 -6.54875 -66.1935 -6.72619C-66.6208 -6.90363 -67.0259 -7.01854 -67.4091 -7.07092C-67.7922 -7.12331 -68.168 -7.06109 -68.5808 -6.86868C-68.9195 -7.21794 -69.5088 -7.52573 -70.3487 -7.79203C-71.1959 -8.0323 -71.9179 -8.2933 -72.5736 -8.50738L-72.7065 -8.03868C-73.0304 -8.44002 -73.4724 -8.70601 -73.9955 -8.82622C-74.5112 -8.97247 -75.0858 -9.19169 -75.6972 -9.562C-76.1099 -9.36959 -76.4489 -9.29692 -76.6921 -9.28149C-77.0751 -9.47451 -77.1266 -9.57353 -76.8098 -9.56807C-76.493 -9.56262 -76.4192 -9.68236 -76.5149 -9.90642C-77.2075 -9.9903 -77.9884 -10.1836 -78.8651 -10.4604C-79.7418 -10.7371 -80.6922 -11.0348 -81.6425 -11.3324C-82.6003 -11.604 -83.558 -11.8756 -84.4421 -12.1264C-85.3262 -12.3771 -86.1293 -12.4923 -86.8292 -12.5501C-87.4332 -12.9465 -88.2067 -13.3065 -89.1497 -13.6302C-90.0926 -13.9539 -91.1535 -14.2828 -92.2144 -14.6118C-93.3195 -14.9252 -94.3803 -15.2542 -95.4412 -15.5832C-96.5095 -15.8861 -97.4377 -16.2619 -98.2848 -16.6428C-98.3365 -16.4605 -98.4839 -16.3617 -98.7713 -16.3306C-99.147 -16.5497 -99.5521 -16.8053 -99.9572 -17.0608C-100.362 -17.3164 -100.731 -17.2802 -101.092 -16.9888C-101.269 -17.067 -101.298 -17.2442 -101.232 -17.4785C-101.762 -17.432 -102.33 -17.5367 -102.948 -17.7403C-103.53 -17.9335 -104.171 -18.1996 -104.768 -18.4814C-105.365 -18.7631 -106.042 -19.0397 -106.772 -19.2747C-107.501 -19.5096 -108.216 -19.656 -108.894 -19.6514C-109.454 -19.782 -109.719 -19.9697 -109.638 -20.2562C-110.33 -20.34 -111.155 -20.5178 -112.187 -20.8103C-113.218 -21.1028 -113.822 -21.3585 -113.992 -21.6034C-114.868 -21.5989 -115.929 -21.7873 -117.138 -22.158C-118.346 -22.5288 -119.576 -22.9621 -120.88 -23.4163C-122.147 -23.86 -123.451 -24.3142 -124.733 -24.7059C-126.015 -25.0975 -127.223 -25.3277 -128.358 -25.3963C-128.704 -25.7195 -129.183 -25.9959 -129.838 -26.21C-130.494 -26.4241 -131.15 -26.6381 -131.864 -26.7845C-132.564 -26.983 -133.191 -27.1606 -133.817 -27.3382C-134.436 -27.5418 -134.878 -27.8078 -135.224 -28.1311C-135.577 -28.147 -135.776 -28.1471 -135.821 -28.1315C-135.865 -28.1159 -135.843 -28.0534 -135.747 -27.97C-135.651 -27.8866 -135.526 -27.7667 -135.438 -27.6572C-135.349 -27.5478 -135.342 -27.4332 -135.445 -27.3499C-136.653 -28.0019 -138.046 -28.5656 -139.607 -29.0929C-141.169 -29.6202 -142.746 -30.0954 -144.33 -30.5446L-148.971 -31.8609C-150.481 -32.2892 -151.83 -32.7278 -153.016 -33.1767C-153.524 -33.2083 -154.084 -33.339 -154.629 -33.5217C-155.174 -33.7044 -155.712 -33.9132 -156.25 -34.122C-156.751 -34.3203 -157.259 -34.4926 -157.745 -34.6024C-158.232 -34.7121 -158.63 -34.7124 -158.947 -34.5772C-159.33 -34.7703 -159.558 -34.9476 -159.668 -35.1195C-159.742 -35.2811 -160.088 -35.4636 -160.641 -35.6203C-161.392 -35.4959 -162.188 -35.6372 -163.065 -36.0546C-163.941 -36.472 -164.951 -36.8426 -166.092 -37.1664C-166.483 -37.0521 -166.653 -36.8751 -166.638 -36.6459C-167.036 -36.7869 -167.19 -36.9433 -167.146 -37.0995C-167.102 -37.2557 -167.131 -37.4329 -167.278 -37.6153C-167.721 -37.6 -168.111 -37.6264 -168.479 -37.7308C-168.848 -37.8353 -169.356 -38.0076 -169.96 -38.2633L-170.137 -37.6383C-170.543 -37.7533 -170.801 -37.8264 -170.859 -37.8994C-170.926 -37.9463 -170.94 -38.0349 -170.881 -38.1025C-170.822 -38.1702 -170.756 -38.2639 -170.697 -38.3316C-170.638 -38.3992 -170.653 -38.4878 -170.815 -38.6182C-171.647 -38.7699 -172.274 -38.9474 -172.693 -39.1509C-173.121 -39.3284 -173.578 -39.4016 -174.049 -39.2822C-174.182 -39.5167 -174.417 -39.6679 -174.815 -39.8089C-175.22 -39.9238 -175.611 -40.0908 -176.009 -40.2317C-176.296 -40.2007 -176.355 -40.133 -176.267 -40.0236C-176.178 -39.9141 -176.134 -39.7891 -176.186 -39.6068C-176.672 -39.7166 -176.952 -39.8522 -176.974 -40.0554C-176.996 -40.2585 -177.276 -40.3942 -177.762 -40.504L-177.88 -40.0873L-179.354 -40.5052C-179.346 -40.8125 -179.051 -40.8696 -178.388 -40.6815C-178.712 -41.0829 -179 -41.1925 -179.287 -41.0208C-179.538 -40.8387 -179.774 -40.7087 -180.01 -40.5786C-180.599 -40.7458 -180.864 -40.9335 -180.886 -41.1367C-180.908 -41.3398 -181.048 -41.5483 -181.239 -41.7151C-182.19 -42.0128 -183.103 -42.3 -183.965 -42.4881C-184.827 -42.6763 -185.468 -42.9425 -185.954 -43.1929C-186.367 -43.2818 -186.566 -43.1413 -186.581 -42.8079C-186.721 -42.8757 -186.92 -43.0165 -187.119 -43.1573C-187.317 -43.2981 -187.553 -43.4494 -187.804 -43.5485C-188.054 -43.6477 -188.238 -43.6999 -188.356 -43.7052C-188.474 -43.7105 -188.511 -43.5803 -188.386 -43.3198C-189.13 -43.5027 -189.38 -43.7425 -189.085 -44.0808L-190.559 -44.4987C-190.559 -44.4987 -190.743 -44.4103 -190.876 -44.3635C-190.972 -44.3063 -191.001 -44.2021 -190.964 -44.051C-191.782 -44.2548 -192.475 -44.4793 -192.998 -44.7402C-193.558 -45.0115 -194.066 -45.0431 -194.575 -44.7935C-194.67 -45.0176 -195.016 -45.2001 -195.532 -45.3464C-196.048 -45.4926 -196.269 -45.696 -196.202 -45.9303C-196.49 -45.8993 -196.762 -45.9203 -197.094 -46.0143C-197.425 -46.1084 -197.757 -46.2024 -198.103 -46.385C-198.457 -46.5415 -198.81 -46.698 -199.208 -46.839C-199.606 -46.9799 -200.055 -47.0793 -200.549 -47.163C-200.505 -47.0379 -200.527 -46.9598 -200.689 -46.9495C-200.814 -46.9288 -200.91 -46.8716 -200.94 -46.7674C-201.345 -46.8823 -201.632 -46.9919 -201.758 -47.1118C-201.883 -47.2317 -202.177 -47.3153 -202.605 -47.3521C-202.641 -47.5032 -202.612 -47.6073 -202.45 -47.6176C-202.325 -47.6384 -202.229 -47.6956 -202.199 -47.7998C-202.796 -47.9409 -203.26 -47.9881 -203.584 -47.9675C-203.945 -47.9574 -204.307 -47.9472 -204.631 -47.9267C-204.815 -47.9789 -204.889 -47.9998 -204.911 -48.0623C-204.903 -48.0883 -205.036 -48.1822 -205.176 -48.25C-205.124 -48.4323 -204.815 -48.4008 -204.27 -48.2181C-204.476 -48.4735 -204.94 -48.6614 -205.728 -48.8286C-206.516 -48.9959 -207.099 -49.0485 -207.467 -49.0123C-207.725 -49.0854 -207.798 -49.247 -207.732 -49.4813C-208.086 -49.4972 -208.498 -49.5861 -209.051 -49.7428C-209.603 -49.8995 -209.824 -49.8215 -209.817 -49.5663C-210.547 -49.8012 -211.401 -50.0155 -212.359 -50.2871C-213.331 -50.5066 -213.847 -50.7935 -213.832 -51.1269C-214.304 -51.2887 -214.569 -51.3358 -214.65 -51.19C-214.724 -51.0702 -215.033 -51.1017 -215.6 -51.347C-215.851 -51.4462 -215.91 -51.5191 -215.829 -51.5243C-215.748 -51.5294 -215.622 -51.5502 -215.505 -51.5449C-215.387 -51.5396 -215.224 -51.5499 -215.033 -51.5237C-214.878 -51.5079 -214.856 -51.586 -214.974 -51.732C-215.887 -51.8785 -216.801 -52.0251 -217.678 -52.1612C-218.555 -52.2973 -219.372 -52.3604 -220.058 -52.3297C-220.389 -52.4237 -220.566 -52.502 -220.581 -52.5906C-220.595 -52.6791 -220.581 -52.7312 -220.522 -52.7989C-220.463 -52.8666 -220.411 -52.9082 -220.36 -52.9498C-220.308 -52.9915 -220.33 -53.054 -220.507 -53.1323C-220.757 -53.2314 -220.912 -53.2472 -221.074 -53.2369C-221.207 -53.1901 -221.185 -53.1276 -220.949 -52.9763C-220.979 -52.8722 -221.141 -52.8619 -221.465 -52.9819C-221.796 -53.076 -221.981 -53.1282 -222.076 -53.071C-222.327 -52.8888 -222.342 -52.6961 -222.143 -52.5553C-221.981 -52.425 -222.01 -52.3208 -222.298 -52.2898L-222.578 -52.4254ZM-39.7748 1.44104C-40.3495 1.36246 -40.5706 1.44042 -40.4455 1.70097C-40.3204 1.9615 -40.1879 2.19601 -40.0555 2.43051C-39.3629 2.51439 -39.2154 2.41553 -39.5026 2.16528C-39.7899 1.91503 -39.915 1.6545 -39.7748 1.44104ZM-192.33 -39.7964C-192.33 -39.7964 -192.625 -39.7393 -192.684 -39.6717C-192.743 -39.604 -192.868 -39.5833 -193.023 -39.599C-193.421 -39.74 -193.465 -39.865 -193.17 -39.9221C-192.912 -39.9896 -192.603 -39.9581 -192.293 -39.786C-192.33 -39.9371 -192.566 -40.0883 -192.978 -40.1772C-193.391 -40.266 -193.84 -40.3654 -194.297 -40.4386C-194.754 -40.5119 -195.196 -40.6373 -195.586 -40.8043C-195.984 -40.9452 -196.124 -41.1537 -196.043 -41.4401C-196.441 -41.5811 -196.706 -41.6281 -196.824 -41.4928C-196.935 -41.3835 -197.016 -41.2377 -197.067 -41.0554C-197.73 -41.2435 -197.937 -41.3582 -197.76 -41.4206C-197.546 -41.4725 -197.465 -41.6183 -197.516 -41.858L-198.621 -42.1714C-198.747 -42.01 -198.894 -41.9111 -199.042 -41.8123C-199.189 -41.7134 -199.41 -41.6354 -199.72 -41.5263C-200.125 -41.6412 -200.287 -41.7716 -200.243 -41.9278L-200.102 -42.4225C-200.994 -42.6472 -201.62 -42.8248 -201.944 -42.9448C-202.268 -43.0649 -202.777 -43.0965 -203.521 -42.9982C-203.926 -43.1131 -204.162 -43.2643 -204.199 -43.4154C-204.235 -43.5665 -204.316 -43.702 -204.478 -43.8323C-204.655 -43.77 -205.009 -43.7859 -205.473 -43.8331C-205.937 -43.8803 -206.21 -44.042 -206.32 -44.3546C-206.659 -44.4226 -206.762 -44.3394 -206.704 -44.1258C-206.645 -43.9121 -206.711 -43.8184 -206.976 -43.8655C-207.315 -44.2148 -207.691 -44.4338 -208.103 -44.5227C-208.516 -44.6116 -208.774 -44.8254 -208.832 -45.1796C-208.73 -44.8409 -209.039 -44.7318 -209.732 -44.8157L-211.773 -45.0569C-211.89 -45.3434 -212.222 -45.5781 -212.819 -45.7192C-213.415 -45.8603 -213.887 -46.0222 -214.196 -46.1943C-214.174 -46.2724 -214.093 -46.2776 -213.982 -46.2462L-213.614 -46.1418C-213.614 -46.1418 -213.356 -46.0686 -213.231 -46.0894C-213.113 -46.0841 -213.091 -46.1622 -213.246 -46.3186C-213.813 -46.5638 -214.225 -46.6527 -214.535 -46.6842C-214.844 -46.7157 -215.198 -46.7316 -215.603 -46.8465C-215.375 -46.6692 -215.36 -46.5807 -215.493 -46.5339C-215.625 -46.4871 -215.729 -46.4038 -215.78 -46.2216C-216.001 -46.4249 -216.34 -46.6335 -216.848 -46.8058C-217.357 -46.9781 -217.902 -47.1608 -218.41 -47.3331C-218.919 -47.5054 -219.353 -47.6568 -219.707 -47.8133C-220.06 -47.9699 -220.141 -48.1054 -219.906 -48.2354C-220.392 -48.3452 -221.003 -48.4342 -221.659 -48.5076C-222.315 -48.5811 -223 -48.691 -223.685 -48.8009C-224.37 -48.9108 -224.997 -49.0884 -225.579 -49.2816C-226.198 -49.4852 -226.639 -49.7512 -226.986 -50.0744C-227.398 -50.1633 -227.686 -50.1323 -227.877 -50.0178C-228.032 -49.8929 -228.224 -49.7785 -228.408 -49.6901C-228.946 -50.0395 -229.505 -50.3108 -230.154 -50.5509C-230.802 -50.791 -231.399 -51.0728 -232.025 -51.391C-232.312 -51.36 -232.533 -51.282 -232.696 -51.1311C-232.858 -50.9801 -233.086 -50.8761 -233.381 -50.8191C-233.337 -50.694 -233.138 -50.5532 -232.858 -50.4176C-232.541 -50.2715 -232.21 -50.1775 -231.827 -50.1251C-231.451 -50.0466 -231.105 -50.0047 -230.751 -49.9888C-230.397 -49.9729 -230.228 -50.0092 -230.198 -50.1134C-230.036 -49.983 -229.948 -49.8736 -229.83 -49.7276C-229.749 -49.5921 -229.624 -49.4722 -229.499 -49.3523C-228.983 -49.3467 -228.474 -49.3151 -228.099 -49.2367C-227.686 -49.1478 -227.502 -49.2362 -227.517 -49.4654C-227.133 -49.2724 -226.795 -49.0638 -226.515 -48.7875C-226.235 -48.5112 -225.845 -48.3442 -225.343 -48.2865C-225.012 -48.1925 -224.865 -48.1507 -224.85 -48.2028C-224.842 -48.2288 -224.828 -48.2809 -224.887 -48.3539C-224.872 -48.4059 -224.931 -48.4789 -224.953 -48.5414C-224.975 -48.604 -224.85 -48.6247 -224.606 -48.6401C-224.223 -48.4471 -223.98 -48.3219 -223.892 -48.2125C-223.804 -48.103 -223.524 -48.108 -223.17 -48.2327C-222.772 -48.0918 -222.61 -47.9614 -222.757 -47.8626C-222.905 -47.7637 -223.17 -47.8108 -223.642 -47.9726C-222.757 -47.7219 -221.822 -47.5129 -220.871 -47.3558C-219.921 -47.1988 -219.111 -46.8284 -218.485 -46.2289C-218.079 -46.114 -217.77 -46.0825 -217.512 -46.15C-217.254 -46.2175 -217.077 -46.2799 -216.863 -46.3318C-216.48 -46.1388 -216.429 -46.0398 -216.679 -45.9983C-216.93 -45.9568 -216.915 -45.8682 -216.643 -45.7066C-216.031 -45.6175 -215.464 -45.5129 -214.83 -45.3614C-214.197 -45.2098 -213.784 -45.2616 -213.556 -45.5062C-213.172 -45.3132 -212.937 -45.0213 -212.885 -44.641C-210.881 -44.2696 -208.959 -43.7525 -207.139 -43.152C-205.319 -42.5516 -203.507 -42.0658 -201.761 -41.7675C-200.759 -41.2302 -199.61 -40.7918 -198.239 -40.4313C-196.906 -40.0812 -195.536 -39.7208 -194.136 -39.3238C-192.043 -38.7023 -189.922 -38.0444 -187.763 -37.3759C-185.641 -36.718 -183.505 -36.1121 -181.354 -35.5583C-181.155 -35.4175 -181.03 -35.2976 -181.059 -35.1934C-177.656 -34.1438 -174.163 -33.1253 -170.553 -32.1016C-166.943 -31.0778 -163.776 -30.0388 -161.094 -28.9689C-160.298 -28.9683 -159.178 -28.707 -157.69 -28.2006C-156.202 -27.6941 -155.031 -27.1932 -154.095 -26.7028C-151.229 -26.0026 -148.297 -25.1148 -145.373 -24.0603C-142.448 -23.0059 -139.177 -21.9095 -135.633 -20.792C-135.42 -20.8439 -135.213 -20.8698 -135.014 -20.8697C-134.815 -20.8695 -134.639 -20.9319 -134.528 -21.0412C-134.322 -20.7858 -134.101 -20.5825 -133.799 -20.3843C-133.497 -20.1861 -133.04 -19.9722 -132.385 -19.7581C-132.348 -19.8883 -132.421 -20.0499 -132.65 -20.2271C-132.068 -19.7527 -131.265 -19.3562 -130.174 -18.9907C-129.084 -18.6252 -128.104 -18.2911 -127.228 -18.0143C-127.021 -18.0402 -126.911 -18.1495 -126.859 -18.3318C-126.807 -18.5141 -126.66 -18.6129 -126.38 -18.6179C-126.152 -18.4406 -126.078 -18.2791 -126.13 -18.0968C-126.181 -17.9146 -126.064 -17.7686 -125.754 -17.5965C-125.415 -17.5285 -125.047 -17.424 -124.612 -17.2727C-124.178 -17.1213 -123.787 -16.9543 -123.426 -16.8238C-123.065 -16.6933 -122.741 -16.5732 -122.483 -16.5001C-122.225 -16.427 -122.026 -16.4268 -121.997 -16.531C-121.57 -16.4942 -121.393 -16.4159 -121.43 -16.2857C-121.467 -16.1555 -121.415 -16.0565 -121.253 -15.9261C-120.082 -15.7065 -118.976 -15.3931 -117.901 -14.9755C-116.818 -14.584 -115.779 -14.1769 -114.741 -13.7698C-113.702 -13.3627 -112.693 -12.9921 -111.713 -12.658C-110.696 -12.3134 -109.687 -12.0834 -108.692 -11.942C-108.427 -11.6136 -108.088 -11.405 -107.668 -11.3422C-107.248 -11.2794 -106.858 -11.1124 -106.519 -10.7631C-105.326 -10.3403 -104.191 -9.99038 -103.086 -9.67699C-101.981 -9.3636 -101.023 -8.95135 -100.206 -8.46629C-98.8648 -8.00166 -97.5461 -7.59955 -96.3231 -7.28085C-95.1001 -6.96217 -94.2235 -6.54477 -93.6491 -6.04427C-92.0209 -5.61066 -90.4812 -5.14588 -89.052 -4.57179C-87.6155 -4.02374 -86.2232 -3.4601 -84.8677 -2.90691C-83.4754 -2.34326 -82.1494 -1.82655 -80.8159 -1.33588C-79.5194 -0.855652 -78.2227 -0.516068 -76.9554 -0.353607C-76.5724 -0.160583 -76.5208 -0.0615768 -76.8524 -0.0149536C-77.1841 0.0316696 -77.1768 0.146278 -76.8748 0.344452C-74.2668 1.11218 -71.762 1.96317 -69.2425 2.90273C-66.7231 3.84229 -64.3141 4.75051 -61.942 5.64828C-61.5589 5.84131 -61.3674 5.86751 -61.3304 5.73731C-61.2935 5.60712 -61.1977 5.54989 -60.9914 5.524C-60.6967 5.74821 -60.3874 5.92035 -60.0853 5.97788C-59.7538 6.0719 -59.4075 6.11385 -59.0244 6.16623C-58.6412 6.21861 -58.2581 6.271 -57.8749 6.32339C-57.4918 6.37577 -57.1529 6.44376 -56.8214 6.53777C-56.5781 6.38169 -56.6075 6.20457 -56.8064 6.06377C-57.0052 5.92297 -57.042 5.77189 -56.8061 5.64185C-57.7565 5.34421 -58.4417 5.37492 -58.8251 5.74446C-59.1493 5.6244 -59.2819 5.53054 -59.2671 5.47846C-59.2523 5.42638 -59.1639 5.3952 -59.0312 5.34843C-58.8985 5.30165 -58.7364 5.29136 -58.5301 5.26547C-58.3606 5.22914 -58.2279 5.18236 -58.1984 5.0782C-58.4563 5.00508 -58.5962 4.93726 -58.6477 4.83824C-58.6992 4.73923 -58.8687 4.63493 -59.0823 4.54621C-59.6717 4.37907 -59.9812 4.48821 -60.0772 4.82672C-60.4529 4.60765 -60.9685 4.32076 -61.6315 3.99209C-62.2944 3.66341 -62.9943 3.3243 -63.7751 2.99032C-64.556 2.65634 -65.3074 2.35884 -66.0662 2.08739C-66.825 1.81594 -67.5323 1.6435 -68.2249 1.55962C-68.4827 1.4865 -68.5563 1.32497 -68.4898 1.09061C-71.3704 0.161194 -74.0814 -0.804558 -76.5567 -1.75971C-79.0319 -2.71486 -81.6766 -3.77431 -84.4243 -4.89116C-84.5202 -4.83393 -84.7118 -4.86013 -85.0065 -4.9437L-85.8537 -5.18397C-86.1484 -5.26753 -86.3694 -5.33022 -86.5315 -5.31992C-86.6862 -5.33567 -86.8189 -5.28889 -86.8484 -5.18473C-87.1209 -5.48706 -87.4155 -5.71128 -87.7691 -5.86782C-88.1227 -6.02436 -88.4837 -6.15486 -88.852 -6.25932C-89.2204 -6.36379 -89.5519 -6.45781 -89.8687 -6.6039C-90.1928 -6.72396 -90.3769 -6.91683 -90.502 -7.17738C-91.003 -7.23506 -91.6072 -7.35013 -92.3292 -7.47049C-93.0513 -7.59086 -93.5595 -7.90379 -93.854 -8.40928C-94.1635 -8.30013 -94.4361 -8.32118 -94.7234 -8.43079C-95.0107 -8.5404 -95.217 -8.65515 -95.4232 -8.76991C-95.5926 -8.87421 -95.7695 -8.95249 -95.9462 -9.03076C-96.0936 -9.07254 -96.2631 -9.03621 -96.3958 -8.84879C-97.0072 -9.2191 -97.7439 -9.56868 -98.6352 -9.93399C-99.5266 -10.2993 -100.337 -10.3885 -101 -10.1546C-101.339 -10.7851 -102.267 -11.3015 -103.704 -11.7089L-103.807 -11.3444C-105.59 -12.2157 -107.431 -13.0193 -109.384 -13.7136C-111.336 -14.4079 -113.325 -15.1126 -115.329 -15.7653C-117.333 -16.418 -119.329 -17.0967 -121.296 -17.7389C-123.263 -18.3811 -125.127 -19.1066 -126.924 -19.9258C-127.079 -19.9415 -127.352 -19.9626 -127.698 -20.0045C-128.044 -20.0465 -128.346 -20.104 -128.648 -20.1615C-128.943 -20.2451 -129.164 -20.3078 -129.37 -20.4225C-129.54 -20.5268 -129.621 -20.6623 -129.569 -20.8446C-130.358 -20.8713 -131.146 -21.0386 -132.008 -21.3674C-132.833 -21.6858 -133.695 -22.0146 -134.557 -22.3434C-135.419 -22.6723 -136.281 -23.0011 -137.12 -23.2674C-137.96 -23.5337 -138.793 -23.6854 -139.589 -23.686C-139.81 -23.8893 -140.082 -24.051 -140.487 -24.1659C-140.892 -24.2808 -141.298 -24.3958 -141.703 -24.5107C-142.108 -24.6256 -142.476 -24.73 -142.808 -24.8241C-143.139 -24.9181 -143.331 -25.0849 -143.463 -25.3194C-143.817 -25.3353 -144.134 -25.3408 -144.451 -25.3462C-144.768 -25.3517 -144.893 -25.1903 -144.886 -24.9351C-145.07 -24.9873 -145.129 -25.0603 -145.092 -25.1905L-145.011 -25.4769C-145.961 -25.7745 -146.897 -26.1243 -147.759 -26.4531C-148.621 -26.7819 -149.482 -27.1107 -150.315 -27.4031C-151.147 -27.6954 -151.987 -27.9617 -152.805 -28.1655C-153.615 -28.3953 -154.419 -28.5106 -155.207 -28.5372C-155.465 -28.6103 -155.524 -28.6833 -155.45 -28.8031C-155.376 -28.9228 -155.391 -29.0114 -155.442 -29.1104C-156.562 -29.5123 -157.741 -29.8466 -158.964 -30.1653C-160.187 -30.484 -161.373 -30.7922 -162.515 -31.1161C-163.657 -31.4399 -164.688 -31.7324 -165.587 -32.0717C-166.493 -32.3849 -167.259 -32.771 -167.856 -33.1934C-169.528 -33.4707 -171.606 -34.0037 -174.059 -34.7556C-176.513 -35.5076 -178.634 -36.1656 -180.417 -36.7556C-180.572 -36.7713 -180.675 -36.6881 -180.675 -36.5474C-180.675 -36.4068 -180.852 -36.3444 -181.154 -36.402C-181.331 -36.4802 -181.383 -36.5792 -181.353 -36.6834L-181.264 -36.9959C-182.229 -37.2414 -183.143 -37.5286 -183.924 -37.8626C-183.836 -37.4719 -184.02 -37.2428 -184.388 -37.2066C-184.816 -37.2434 -185.088 -37.4051 -185.177 -37.6552C-185.302 -37.9158 -185.154 -38.0146 -184.801 -37.9987C-185.442 -38.2649 -186.075 -38.4164 -186.753 -38.5524C-187.438 -38.6623 -188.16 -38.7827 -189.03 -38.9448C-189.17 -39.0126 -189.243 -39.1742 -189.184 -39.3825C-189.744 -39.5131 -190.216 -39.675 -190.554 -39.8836C-190.893 -40.0922 -191.21 -40.0977 -191.534 -39.9364C-191.571 -39.8062 -191.291 -39.6706 -190.717 -39.592C-191.041 -39.4308 -191.608 -39.5354 -192.455 -39.9163L-192.33 -39.7964ZM-85.1681 -5.63661C-85.2049 -5.7877 -85.2638 -5.86066 -85.308 -5.84507C-85.3154 -5.81903 -85.4038 -5.78786 -85.4186 -5.73578C-85.4334 -5.6837 -85.4481 -5.63161 -85.3819 -5.58469C-85.3524 -5.5482 -85.2713 -5.55335 -85.1681 -5.63661ZM-107.951 -18.0619C-108.29 -18.1299 -108.489 -18.13 -108.541 -18.0884C-108.593 -18.0468 -108.57 -17.9843 -108.504 -17.9373C-108.438 -17.8904 -108.335 -17.833 -108.217 -17.8277C-108.106 -17.7964 -108.003 -17.8796 -107.951 -18.0619ZM-114.007 -20.8482C-114.007 -20.8482 -113.867 -20.6397 -113.933 -20.6866C-114.007 -20.7075 -114.103 -20.7909 -114.161 -20.8639C-114.22 -20.9369 -114.287 -20.9838 -114.316 -21.0203C-114.346 -21.0568 -114.242 -20.9994 -114.044 -20.8586L-114.007 -20.8482ZM-172.524 -38.6247L-173.114 -38.7918L-173.04 -39.0522L-172.45 -38.8851L-172.524 -38.6247ZM-191.355 -44.64C-191.465 -44.8119 -191.598 -44.9058 -191.679 -44.9007C-191.76 -44.8955 -191.811 -44.8539 -191.789 -44.7913C-191.767 -44.7288 -191.708 -44.6559 -191.642 -44.6089C-191.576 -44.562 -191.458 -44.5567 -191.355 -44.64ZM-201.595 -47.5441C-201.632 -47.6951 -201.691 -47.7681 -201.735 -47.7525C-201.742 -47.7265 -201.831 -47.6953 -201.846 -47.6432C-201.86 -47.5911 -201.875 -47.5391 -201.809 -47.4921C-201.779 -47.4556 -201.698 -47.4608 -201.595 -47.5441ZM-202.753 -46.6907C-202.753 -46.6907 -202.981 -46.868 -203.202 -46.9306L-203.939 -47.1396C-203.939 -47.1396 -203.71 -46.9623 -203.489 -46.8996L-202.753 -46.6907ZM-209.518 -44.1644C-209.518 -44.1644 -209.342 -43.9455 -209.371 -43.982C-209.371 -43.982 -209.467 -44.0654 -209.607 -44.1332C-209.71 -44.1906 -209.769 -44.2636 -209.835 -44.3105C-209.828 -44.3365 -209.761 -44.2896 -209.555 -44.1748L-209.518 -44.1644ZM-211.769 -50.6825L-212.395 -50.8601L-212.469 -50.5997L-211.843 -50.4221L-211.769 -50.6825ZM-214.083 -51.226C-214.083 -51.226 -213.803 -51.0904 -213.692 -51.059C-213.582 -51.0277 -213.515 -50.9808 -213.538 -50.9026C-212.926 -50.8136 -212.904 -50.8917 -213.353 -51.1317C-213.802 -51.3716 -214.068 -51.4187 -214.119 -51.2365L-214.083 -51.226ZM-218.94 -47.8492C-219.125 -47.9014 -219.309 -47.9537 -219.478 -48.058C-219.427 -47.959 -219.287 -47.8911 -219.066 -47.8285C-218.845 -47.7658 -218.697 -47.724 -218.528 -47.6197C-218.58 -47.7187 -218.719 -47.7865 -218.904 -47.8388L-218.94 -47.8492ZM-222.578 -52.4254C-222.578 -52.4254 -222.836 -52.4986 -222.85 -52.4465C-222.858 -52.4205 -222.777 -52.4256 -222.578 -52.4254ZM-223.026 -54.0718C-223.454 -54.1086 -223.8 -54.1505 -224.109 -54.182C-224.419 -54.2135 -224.758 -54.2815 -225.163 -54.3964C-225.252 -54.084 -225.487 -53.9539 -225.9 -54.0428C-226.644 -54.507 -227.484 -54.9139 -228.39 -55.2271C-229.296 -55.5404 -230.151 -55.614 -230.873 -55.453C-231.05 -55.8126 -231.344 -56.0368 -231.867 -56.157C-232.39 -56.2772 -232.538 -56.4597 -232.383 -56.7252C-232.928 -56.9079 -233.318 -56.9343 -233.488 -56.7573C-233.658 -56.5803 -233.952 -56.5233 -234.365 -56.6121C-234.689 -56.7322 -234.66 -56.8363 -234.365 -56.8934C-234.033 -56.94 -234.07 -57.0911 -234.446 -57.3102C-234.814 -57.274 -234.998 -57.3262 -235.035 -57.4773C-235.47 -57.4881 -235.779 -57.3789 -235.927 -57.1394C-236.074 -56.8999 -236.192 -56.624 -236.281 -56.3115C-235.809 -56.4309 -235.286 -56.4514 -234.763 -56.3312C-234.24 -56.211 -233.687 -56.0543 -233.179 -55.882C-232.671 -55.7097 -232.126 -55.5269 -231.544 -55.3338C-230.991 -55.1771 -230.461 -55.0829 -230.018 -55.0982C-229.635 -54.9052 -229.466 -54.8008 -229.591 -54.7801C-229.68 -54.7489 -229.746 -54.6552 -229.798 -54.4729C-228.906 -54.2483 -228.398 -54.2166 -228.25 -54.3155C-228.14 -54.4248 -227.609 -54.3306 -226.747 -54.0018C-226.571 -53.9235 -226.585 -53.8714 -226.711 -53.8507C-226.836 -53.8299 -226.895 -53.7623 -226.851 -53.6372C-226.188 -53.4492 -225.525 -53.2612 -224.803 -53.1408C-224.088 -52.9944 -223.454 -52.9835 -222.909 -53.082C-222.99 -53.3582 -222.975 -53.5509 -222.879 -53.6081C-222.783 -53.6653 -222.783 -53.806 -222.879 -54.03L-223.026 -54.0718ZM-224.385 -49.2807C-224.385 -49.2807 -224.304 -49.2858 -224.459 -49.3016C-224.577 -49.3069 -224.577 -49.3069 -224.385 -49.2807ZM-230.571 -54.6923C-230.571 -54.6923 -230.689 -54.6976 -230.498 -54.6714C-230.417 -54.6766 -230.417 -54.6766 -230.571 -54.6923ZM-236.718 -52.6656C-236.77 -52.4833 -236.851 -52.3375 -236.961 -52.2282C-237.072 -52.1189 -237.345 -52.14 -237.742 -52.2809C-237.963 -52.4843 -238.228 -52.672 -238.626 -52.8129C-239.024 -52.9539 -239.422 -53.0948 -239.834 -53.1837C-240.24 -53.2986 -240.608 -53.4031 -240.94 -53.4971C-241.271 -53.5911 -241.499 -53.7684 -241.72 -53.9717C-242.148 -54.0085 -242.494 -54.0504 -242.811 -54.0559C-243.128 -54.0613 -243.474 -54.1033 -243.901 -54.1401C-243.879 -53.9369 -243.894 -53.7442 -243.997 -53.5203C-244.101 -53.2964 -243.865 -53.1452 -243.29 -53.0666C-242.848 -53.0819 -242.708 -53.1547 -242.907 -53.2955C-243.069 -53.4258 -243.224 -53.5822 -243.371 -53.7646C-242.73 -53.4985 -242.251 -53.3627 -241.861 -53.3363C-241.47 -53.31 -241.05 -53.2471 -240.66 -53.2208C-239.813 -52.8399 -239.054 -52.4278 -238.369 -52.0366C-237.684 -51.6454 -236.896 -51.3375 -236.004 -51.1128C-235.908 -51.17 -235.783 -51.1908 -235.65 -51.2375C-235.518 -51.2843 -235.451 -51.378 -235.488 -51.5291C-235.083 -51.4142 -234.862 -51.3515 -234.84 -51.289C-234.81 -51.2525 -234.825 -51.2004 -234.884 -51.1328C-234.943 -51.0651 -234.958 -51.013 -234.928 -50.9765C-234.899 -50.94 -234.759 -50.8722 -234.501 -50.7991C-234.368 -50.9865 -234.14 -51.0905 -233.889 -51.132C-233.602 -51.163 -233.513 -51.3348 -233.616 -51.6735C-234.073 -51.8874 -234.338 -52.0751 -234.36 -52.2783C-234.788 -52.3151 -234.986 -52.3153 -234.891 -52.2318C-234.832 -52.1589 -234.788 -52.0338 -234.729 -51.8202C-235.326 -51.9613 -235.723 -52.1023 -236.003 -52.2379C-236.276 -52.3996 -236.519 -52.5248 -236.718 -52.6656ZM-236.718 -52.6656C-236.718 -52.6656 -236.762 -52.7906 -236.88 -52.7959C-236.99 -52.8273 -236.968 -52.7648 -236.718 -52.6656ZM-236.663 -57.489C-237.452 -57.7969 -238.071 -57.8599 -238.52 -57.678C-238.97 -57.496 -239.139 -57.319 -239.007 -57.0845C-238.204 -56.8287 -237.666 -56.7605 -237.415 -56.9427C-237.165 -57.1248 -236.914 -57.3069 -236.663 -57.489ZM-240.793 -52.7521C-240.918 -52.5907 -240.83 -52.4813 -240.491 -52.4133C-240.159 -52.3193 -240.012 -52.2775 -240.049 -52.1473C-239.621 -52.1105 -239.526 -52.1677 -239.783 -52.3815C-240.041 -52.5953 -240.365 -52.7153 -240.793 -52.7521ZM-243.147 -59.3276C-243.051 -58.9629 -243.279 -58.8589 -243.758 -58.9947C-243.361 -58.8537 -242.933 -58.6763 -242.506 -58.4989C-242.079 -58.3214 -241.968 -58.1494 -242.212 -57.9934C-241.946 -57.9463 -241.784 -57.9566 -241.696 -57.9878C-241.607 -58.0189 -241.556 -58.0606 -241.534 -58.1387C-241.511 -58.2168 -241.423 -58.248 -241.29 -58.2948C-241.158 -58.3415 -240.892 -58.2945 -240.598 -58.2109C-240.303 -57.9867 -240.156 -57.8043 -240.112 -57.6792C-239.898 -57.7311 -239.692 -57.757 -239.485 -57.7829C-239.279 -57.8088 -239.139 -57.8816 -239.087 -58.0639C-239.772 -58.4551 -240.384 -58.6847 -240.907 -58.805C-241.43 -58.9252 -242.218 -59.0925 -243.183 -59.338L-243.147 -59.3276ZM-244.196 -54.2237C-244.55 -54.5208 -244.992 -54.6462 -245.507 -54.6518C-246.023 -54.6574 -246.495 -54.6786 -246.907 -54.7675C-246.664 -54.361 -246.127 -54.0116 -245.213 -53.7244C-245.036 -53.7868 -244.852 -53.8752 -244.734 -54.0105C-244.616 -54.1459 -244.402 -54.1978 -244.159 -54.2132L-244.196 -54.2237ZM-245.018 -59.1832C-244.2 -58.9794 -243.736 -59.0728 -243.625 -59.4634C-244.207 -59.6566 -244.583 -59.735 -244.871 -59.704C-244.922 -59.5217 -244.871 -59.4227 -244.768 -59.3653C-244.657 -59.334 -244.723 -59.2402 -245.018 -59.1832ZM-245.018 -59.1832C-245.35 -59.2772 -245.46 -59.1679 -245.379 -58.8918L-244.901 -58.756C-244.901 -58.756 -244.562 -58.8286 -244.488 -58.8077C-244.466 -58.8858 -244.532 -58.9328 -244.716 -58.985C-244.9 -59.0372 -245.004 -59.0946 -245.055 -59.1936L-245.018 -59.1832ZM-246.116 -59.9445C-246.02 -59.7205 -245.711 -59.5483 -245.232 -59.4125C-245.121 -59.5218 -245.173 -59.6208 -245.431 -59.694C-245.688 -59.7671 -245.909 -59.8298 -246.153 -59.955L-246.116 -59.9445ZM-247.313 -54.3198C-247.35 -54.4709 -247.408 -54.5439 -247.453 -54.5283C-247.497 -54.5127 -247.549 -54.4711 -247.563 -54.419C-247.578 -54.3669 -247.593 -54.3148 -247.527 -54.2679C-247.497 -54.2314 -247.416 -54.2366 -247.313 -54.3198ZM-253.815 -61.5653C-253.815 -61.5653 -253.962 -61.7477 -254.058 -61.8311C-254.154 -61.9145 -254.249 -61.9979 -254.301 -62.097C-253.594 -61.7839 -252.938 -61.5698 -252.297 -61.4443C-251.693 -61.3292 -250.949 -61.1463 -250.138 -60.9165C-249.8 -60.5673 -249.549 -60.3274 -249.409 -60.2596C-249.232 -60.1813 -248.849 -59.9883 -248.253 -59.7066C-248.311 -60.0608 -248.12 -60.1753 -247.634 -60.0655C-247.147 -59.9557 -246.794 -59.9398 -246.595 -60.0803C-246.683 -60.3304 -247.081 -60.4714 -247.707 -60.5083C-248.333 -60.5453 -248.812 -60.5404 -249.1 -60.5094C-249.483 -60.7024 -249.608 -60.8223 -249.424 -60.9107C-249.276 -61.0096 -249.468 -61.1764 -249.991 -61.4373C-250.794 -61.4119 -251.45 -61.4853 -252.024 -61.7045C-252.562 -61.9133 -253.358 -62.1952 -254.418 -62.5242C-254.625 -62.3576 -254.809 -62.2692 -254.964 -62.285C-255.082 -62.2903 -255.126 -62.1341 -255.023 -61.7954C-254.699 -61.6753 -254.471 -61.6387 -254.353 -61.6334C-254.227 -61.6541 -254.036 -61.6279 -253.778 -61.5548L-253.815 -61.5653ZM-248.248 -55.654C-248.646 -55.795 -248.911 -55.8421 -249.08 -55.8057C-249.213 -55.759 -249.456 -55.7435 -249.795 -55.8115C-249.493 -55.6133 -249.272 -55.41 -249.051 -55.2067C-248.469 -55.0135 -248.152 -55.0081 -248.064 -55.1799C-247.975 -55.3517 -248.049 -55.5132 -248.248 -55.654ZM-247.14 -59.5599C-247.229 -59.5287 -247.229 -59.5287 -247.14 -59.5599V-59.5599ZM-254.724 -57.378C-254.775 -57.1957 -254.923 -57.0969 -255.203 -57.0919C-255.483 -57.0869 -255.667 -56.9985 -255.792 -56.8371C-254.997 -56.8365 -254.275 -56.7161 -253.582 -56.4916C-252.89 -56.2671 -252.308 -56.2145 -251.821 -56.3861C-252.492 -56.5481 -252.963 -56.7099 -253.331 -56.8144C-253.685 -56.9709 -254.149 -57.1588 -254.694 -57.3415L-254.724 -57.378ZM-253.815 -61.5653C-253.609 -61.3099 -253.152 -61.096 -252.415 -60.887C-252.209 -61.0535 -252.297 -61.163 -252.71 -61.2519C-253.122 -61.3407 -253.491 -61.4452 -253.815 -61.5653ZM-256.271 -57.5355C-256.927 -57.7495 -257.413 -57.8593 -257.781 -57.9638C-258.164 -58.0162 -258.614 -58.1155 -259.203 -58.2826C-258.931 -57.9803 -258.408 -57.7194 -257.642 -57.474C-256.868 -57.2547 -256.389 -57.2595 -256.227 -57.5511L-256.271 -57.5355ZM-255.73 -62.671C-256.467 -62.88 -256.813 -62.7813 -256.725 -62.3905C-255.996 -62.1556 -255.657 -62.2282 -255.73 -62.671ZM-258.99 -57.6313C-259.226 -57.7826 -259.292 -57.8295 -259.263 -57.793L-259.034 -57.6157C-259.034 -57.6157 -258.872 -57.4854 -258.806 -57.4385C-258.74 -57.3915 -258.806 -57.4385 -258.953 -57.6209L-258.99 -57.6313ZM-257.469 -62.9953C-257.469 -62.9953 -257.388 -63.0005 -257.542 -63.0162C-257.66 -63.0215 -257.66 -63.0215 -257.469 -62.9953ZM-258.228 -62.7042C-258.228 -62.7042 -258.272 -62.8293 -258.39 -62.8346C-258.5 -62.8659 -258.648 -62.9077 -258.832 -62.9599C-258.854 -62.8818 -258.64 -62.7931 -258.235 -62.6782L-258.228 -62.7042ZM-259.046 -63.0487L-259.672 -63.2262L-259.746 -62.9659L-259.119 -62.7883L-259.046 -63.0487ZM-260.625 -58.8827C-261.023 -59.0237 -261.391 -59.1282 -261.73 -59.1961C-262.069 -59.2641 -262.216 -59.1653 -262.202 -58.9361C-261.863 -58.8681 -261.686 -58.7898 -261.59 -58.7064C-261.539 -58.6074 -261.318 -58.5447 -261.016 -58.4872C-260.728 -58.5182 -260.61 -58.6535 -260.625 -58.8827ZM-263.908 -64.9901C-263.554 -64.693 -263.562 -64.5263 -263.93 -64.4901C-264.299 -64.4539 -264.365 -64.3602 -264.129 -64.209C-263.643 -64.3805 -263.164 -64.3853 -262.722 -64.26C-262.28 -64.1346 -261.72 -64.004 -261.035 -63.894C-261.071 -64.3264 -261.432 -64.5975 -262.044 -64.6866C-262.692 -64.786 -263.259 -64.8907 -263.871 -64.9797L-263.908 -64.9901ZM-262.681 -59.0719C-262.717 -59.2229 -262.776 -59.2959 -262.821 -59.2803C-262.865 -59.2647 -262.916 -59.2231 -262.931 -59.171C-262.946 -59.1189 -262.961 -59.0669 -262.894 -59.0199C-262.865 -58.9835 -262.784 -58.9886 -262.681 -59.0719ZM-265.587 -65.5227C-265.948 -65.5126 -266.435 -65.6224 -267.076 -65.8885C-267.429 -65.9044 -267.459 -65.8003 -267.238 -65.597C-266.98 -65.3832 -267.12 -65.3104 -267.621 -65.3681C-267.452 -65.4044 -266.884 -65.2998 -265.904 -65.1063C-264.925 -64.9128 -264.365 -64.9228 -264.099 -65.157C-264.74 -65.4231 -265.226 -65.5329 -265.587 -65.5227ZM-268.033 -66.1601L-268.512 -66.2959L-268.586 -66.0356L-268.107 -65.8997L-268.033 -66.1601ZM-269.802 -66.3803C-269.802 -66.3803 -270.052 -66.6201 -270.133 -66.6149C-270.207 -66.6358 -270.258 -66.5942 -270.236 -66.5317C-270.214 -66.4692 -270.155 -66.3962 -270.089 -66.3493C-270.023 -66.3023 -269.942 -66.3075 -269.802 -66.3803ZM-270.207 -65.9326C-270.207 -65.9326 -270.251 -66.0577 -270.362 -66.089C-270.472 -66.1204 -270.62 -66.1621 -270.789 -66.2665C-270.811 -66.1883 -270.745 -66.1414 -270.634 -66.1101C-270.524 -66.0787 -270.377 -66.0369 -270.207 -65.9326ZM-271.872 -67.0799C-271.872 -67.0799 -271.916 -67.2049 -272.026 -67.2363C-272.137 -67.2676 -272.284 -67.3094 -272.454 -67.4137C-272.476 -67.3356 -272.41 -67.2887 -272.299 -67.2573C-272.189 -67.226 -272.041 -67.1842 -271.872 -67.0799ZM-272.896 -67.5391L-273.854 -67.8107C-273.979 -67.6493 -273.935 -67.5242 -273.684 -67.4251C-273.434 -67.3259 -273.426 -67.2113 -273.662 -67.0813C-273.493 -67.1176 -273.36 -67.1644 -273.294 -67.2581C-273.227 -67.3518 -273.08 -67.4506 -272.896 -67.5391ZM-274.259 -67.363C-274.296 -67.5141 -274.355 -67.5871 -274.399 -67.5715C-274.443 -67.5559 -274.495 -67.5143 -274.51 -67.4622C-274.524 -67.4101 -274.539 -67.358 -274.473 -67.3111C-274.443 -67.2746 -274.362 -67.2797 -274.259 -67.363ZM-276.432 -68.5419C-276.432 -68.5419 -276.108 -68.2812 -275.821 -68.1716C-275.533 -68.062 -275.283 -67.9628 -275.069 -67.8741C-274.826 -68.0302 -274.988 -68.1605 -275.437 -68.2599C-275.887 -68.3592 -276.218 -68.4532 -276.469 -68.5524L-276.432 -68.5419ZM-276.8 -68.6464C-277.353 -68.8031 -277.685 -68.7564 -277.766 -68.47L-276.919 -68.2298L-276.8 -68.6464ZM-279.527 -68.8568C-279.232 -68.9139 -279.166 -69.0076 -279.254 -69.1171C-279.342 -69.2265 -279.482 -69.2944 -279.593 -69.3257C-279.703 -69.357 -279.784 -69.3519 -279.88 -69.2947C-279.976 -69.2374 -279.821 -69.0811 -279.527 -68.8568ZM-280.595 -69.7224C-280.595 -69.7224 -280.705 -69.8943 -280.749 -69.8787C-280.757 -69.8527 -280.845 -69.8215 -280.86 -69.7694C-280.875 -69.7174 -280.889 -69.6653 -280.823 -69.6183C-280.794 -69.5819 -280.713 -69.587 -280.595 -69.7224ZM-284.396 -70.6316C-284.632 -70.7829 -284.698 -70.8298 -284.669 -70.7933L-284.44 -70.6161L-284.212 -70.4388C-284.212 -70.4388 -284.205 -70.4648 -284.359 -70.6212L-284.396 -70.6316ZM-286.673 -71.446C-286.798 -71.2846 -286.717 -71.1491 -286.393 -71.0291C-286.069 -70.909 -285.715 -70.7525 -285.317 -70.6115C-285.56 -71.018 -286.002 -71.284 -286.673 -71.446ZM-289.48 -71.792C-289.48 -71.792 -289.524 -71.917 -289.634 -71.9484C-289.745 -71.9797 -289.892 -72.0215 -290.062 -72.1258C-290.084 -72.0477 -290.018 -72.0007 -289.907 -71.9694C-289.797 -71.9381 -289.649 -71.8963 -289.48 -71.792Z" fill="#FFF5EE"/>
<path d="M16.8748 13.3144C16.9851 13.627 17.0881 13.9657 17.191 14.3044C17.294 14.643 17.4411 14.9661 17.6105 15.211C18.4797 15.6545 19.3636 16.1865 20.2327 16.7705C21.1019 17.3546 21.9858 17.746 22.9363 17.903C22.9731 18.0541 23.0688 18.1375 23.253 18.1897C23.4371 18.2419 23.4887 18.341 23.4664 18.5597C23.8643 18.56 24.2401 18.6384 24.6305 18.8054C25.0209 18.9724 25.4482 19.1498 25.8313 19.3429C26.2512 19.5463 26.6416 19.7133 27.0246 19.9064C27.4077 20.0994 27.7834 20.1778 28.1445 20.1677C28.579 20.4597 28.9547 20.6788 29.3967 20.8041C29.8019 20.9191 30.2366 21.0704 30.627 21.2374C31.0248 21.3784 31.4079 21.5714 31.7393 21.8061C32.0708 22.0407 32.3727 22.3795 32.6008 22.8381C32.5196 23.1245 32.4605 23.3328 32.3794 23.4786C32.2614 23.614 32.1802 23.7598 32.0254 23.8846C30.7874 24.1806 29.4977 24.3775 28.1492 24.5015C26.8007 24.6255 25.4522 24.7494 24.111 24.8474C22.7625 24.9713 21.4508 25.1058 20.1686 25.2766C18.8864 25.4475 17.6999 25.7019 16.5649 26.0552C16.5132 26.2375 16.5058 26.4042 16.6898 26.597C16.8371 26.7794 16.8591 26.9826 16.8 27.1909C16.5567 27.4876 16.2914 27.5812 15.9451 27.5393C15.5988 27.4973 15.2894 27.3252 15.0464 27.0593C14.7592 26.8091 14.5678 26.5016 14.4354 26.1265C14.3029 25.7513 14.3253 25.3919 14.5023 25.0483C15.0552 24.6424 15.608 24.3772 16.2344 24.2735C16.8608 24.1698 17.4872 24.0661 18.1504 23.9729C18.6515 23.8899 19.1674 23.7549 19.6612 23.5573C20.155 23.3598 20.6488 23.3028 21.1646 23.3085C21.2383 23.3293 21.3488 23.3607 21.4445 23.4441C21.5402 23.5275 21.6507 23.5589 21.6876 23.5693C21.9749 23.5383 22.3065 23.4917 22.6235 23.3565C22.9773 23.2317 23.2868 23.1226 23.6258 23.0499C23.9943 23.0137 24.3553 23.0036 24.7458 23.03C25.1364 23.0563 25.4532 23.0618 25.748 23.0047C26.1754 22.9008 26.6765 22.8179 27.2955 22.7402C27.8777 22.6521 28.4599 22.564 28.9463 22.3925C28.7327 22.1632 28.497 22.0119 28.2097 21.9023C27.915 21.8187 27.6204 21.7352 27.2961 21.7557C27.1635 21.6619 27.031 21.568 26.8984 21.4742C26.7585 21.4063 26.6259 21.3125 26.5007 21.1926L25.4397 21.0042C24.9683 20.7017 24.4748 20.4774 23.9885 20.3676C23.5022 20.2578 23.0529 20.0179 22.6036 19.6373C21.8743 19.4023 21.1597 19.1153 20.3715 18.8073C19.6201 18.5098 18.854 18.1238 18.1837 17.6805C17.5135 17.2372 16.8727 16.6898 16.3352 16.0591C15.7977 15.4284 15.4518 14.6833 15.2165 13.8288C15.4454 13.0216 16.0129 12.845 16.9116 13.3249L16.8748 13.3144Z" fill="#FFF5EE"/>
</g>
</svg>
