<svg xmlns="http://www.w3.org/2000/svg" width="532" height="168" viewBox="0 0 532 168" fill="none">
<path d="M30.90332805480957,116.91849018096924 C25.996328054809574,116.23249018096924 29.26312805480957,119.30649018096923 32.93302805480957,122.30249018096924 C40.071028054809574,128.29549018096924 47.25702805480957,134.06749018096923 55.17662805480957,137.68249018096924 C63.756028054809576,141.58649018096924 72.53342805480958,145.11749018096924 81.39612805480957,147.24149018096924 C87.77742805480958,148.79949018096923 93.51842805480958,151.77249018096924 99.83442805480956,151.99849018096924 C111.35442805480957,152.38849018096923 122.71042805480957,156.11349018096925 134.23142805480958,156.57849018096923 C137.21242805480958,156.69349018096923 140.24642805480957,156.95549018096924 143.23142805480958,157.44049018096925 C144.75042805480956,157.72049018096925 146.57142805480956,157.99649018096923 147.93242805480958,157.75849018096923 C157.61542805480957,156.39249018096925 167.42842805480956,157.69049018096925 177.12842805480958,157.87849018096924 C183.79642805480958,157.95249018096925 187.15642805480957,155.76749018096925 190.51442805480957,153.43449018096925 C191.86842805480958,152.53049018096925 191.35642805480958,151.94349018096923 188.87942805480958,151.74849018096924 C183.47242805480957,151.51249018096925 177.92942805480956,152.68549018096923 172.51842805480956,152.15349018096924 C164.17542805480957,151.28249018096923 155.70142805480958,152.34049018096923 147.35642805480958,151.39549018096923 C136.12842805480958,150.03949018096924 124.91042805480956,149.57149018096925 113.62242805480957,147.32749018096925 C107.49742805480957,146.13649018096925 100.30142805480958,144.06849018096923 93.68942805480957,144.43849018096924 C93.03242805480957,144.44549018096924 92.12242805480957,144.38149018096925 91.41342805480957,144.16749018096922 C81.63662805480958,141.60949018096923 71.71002805480957,139.20149018096924 62.31512805480958,134.64049018096924 C55.103328054809566,131.09149018096923 47.74002805480957,127.54449018096923 41.25952805480957,121.61749018096924 C37.73772805480957,118.32349018096924 33.36322805480957,115.55749018096924 29.684228054809573,111.74749018096924 C23.81042805480957,105.88749018096924 18.37482805480957,98.54149018096923 14.545328054809573,90.28909018096924 C12.730828054809571,86.08759018096924 11.668028054809572,81.35939018096924 12.225528054809569,76.98349018096924 C12.73252805480957,72.60809018096924 14.862128054809567,68.80719018096924 17.50582805480957,65.81529018096924 C21.645728054809574,61.103190180969236 26.81622805480957,58.23139018096924 31.940428054809573,55.73029018096924 C37.11582805480957,53.302690180969236 42.39642805480957,51.24429018096924 47.67372805480957,48.88969018096924 C48.52812805480957,48.50979018096924 49.48522805480957,48.276990180969236 50.391828054809565,48.04479018096924 C55.127528054809574,46.95519018096924 59.41212805480957,46.16689018096924 64.48492805480957,43.59239018096924 C70.00972805480957,40.79059018096924 76.62812805480957,40.93919018096924 82.92142805480957,39.09169018096924 C88.71042805480957,37.32389018096924 95.17142805480957,36.95579018096924 100.40242805480958,34.971990180969236 C106.33742805480956,32.75819018096924 112.24842805480958,32.91469018096924 118.18442805480956,30.700790180969236 C120.64842805480956,29.71059018096924 126.08142805480958,27.724590180969237 129.58342805480956,29.24099018096924 C129.88742805480956,29.38569018096924 130.84642805480956,29.300990180969237 131.35042805480958,29.22129018096924 C140.50842805480957,26.082890180969237 149.76342805480957,27.16499018096924 158.98742805480958,25.433090180969238 C159.29042805480958,25.42969018096924 159.79642805480958,25.49809018096924 159.84642805480956,25.42349018096924 C164.55942805480956,22.26049018096924 170.89942805480956,24.63409018096924 176.12842805480958,22.502190180969237 C177.88842805480957,21.815990180969237 180.81442805480958,21.48719018096924 183.03742805480957,21.536590180969238 C186.11842805480958,21.50229018096924 188.49142805480957,21.475890180969238 190.89742805480958,19.81979018096924 C191.44942805480957,19.44329018096924 195.24242805480958,19.919590180969237 197.41742805480956,20.19169018096924 C203.28442805480958,20.941090180969237 209.28442805480958,19.911590180969238 215.02742805480958,18.588690180969238 C219.61242805480958,17.574890180969238 223.25942805480958,18.497190180969238 227.24942805480958,18.452790180969238 C231.99642805480957,18.399990180969237 235.12142805480957,17.84679018096924 237.11942805480956,15.824890180969238 C241.5854280548096,17.70089018096924 247.32942805480957,16.45199018096924 252.52742805480955,16.02389018096924 C259.33942805480956,15.429790180969238 266.2354280548096,13.279290180969237 272.97142805480956,14.981890180969238 C278.39942805480956,12.551490180969239 284.89042805480955,14.849390180969237 290.43042805480957,13.38059018096924 C292.39442805480957,12.840290180969237 293.5064280548096,12.976090180969237 295.4804280548096,13.324490180969239 C299.3284280548096,14.170390180969239 303.52442805480956,14.494090180969238 307.4964280548096,12.894590180969239 C310.2114280548096,11.753490180969237 313.55642805480954,12.753190180969238 316.63342805480954,12.348690180969239 C319.00342805480955,12.026090180969238 320.96642805480957,11.411690180969238 324.56742805480957,12.778890180969238 C328.3214280548096,14.218390180969237 335.2374280548096,13.84529018096924 340.6434280548096,14.007390180969239 C344.9364280548096,14.033690180969238 349.3844280548096,14.280490180969238 353.5644280548096,13.197090180969237 C355.5284280548096,12.656790180969239 361.0984280548096,13.928090180969239 363.99042805480957,15.080890180969238 C370.4374280548096,17.97179018096924 377.2974280548096,17.15489018096924 383.8814280548096,18.785090180969238 C385.2494280548096,19.14019018096924 386.40942805480955,18.979190180969237 385.44042805480956,18.175290180969238 C382.63542805480955,15.68829018096924 386.98642805480955,16.38059018096924 388.64942805480956,15.99179018096924 C389.65642805480957,15.75839018096924 391.63242805480957,16.32889018096924 392.3484280548096,17.061590180969237 C393.0134280548096,17.794790180969237 391.70042805480955,17.88349018096924 390.79342805480957,18.041690180969237 C389.9364280548096,18.19939018096924 389.18042805480957,18.35589018096924 389.59142805480957,18.943790180969238 C390.10442805480955,19.678790180969237 391.3674280548096,19.664690180969238 392.38042805480956,19.949690180969238 C402.46442805480956,22.87419018096924 413.0784280548096,23.49679018096924 422.9254280548096,27.905190180969235 C425.15942805480955,28.917190180969236 427.4854280548096,29.187590180969238 429.6584280548096,29.23749018096924 C430.7184280548096,29.225690180969238 431.47642805480956,29.217290180969236 431.16442805480955,28.406090180969237 C430.90442805480956,27.742390180969238 428.36542805480957,26.511590180969236 430.1314280548096,26.343790180969236 C431.74542805480957,26.177690180969236 432.67142805480955,27.64869018096924 433.94242805480957,28.37519018096924 C443.4464280548096,33.676190180969236 453.1314280548096,37.04939018096924 463.15642805480957,39.30799018096924 C464.2714280548096,39.59189018096924 465.2354280548096,40.025490180969236 466.2514280548096,40.53269018096924 C473.4124280548096,44.00809018096924 480.37742805480957,48.15229018096924 487.63942805480957,51.62659018096924 C488.3504280548096,51.98899018096924 489.2184280548096,52.79399018096924 489.7304280548096,53.45489018096924 C493.67142805480955,58.077090180969236 498.10842805480956,61.95309018096924 503.05642805480954,66.34189018096924 C504.53642805480956,67.65859018096924 505.9624280548096,68.75369018096924 507.3504280548095,70.96009018096923 C508.1214280548096,72.13659018096924 508.8414280548096,73.31359018096924 509.56142805480954,74.41649018096923 C510.02742805480955,75.44819018096923 510.64242805480956,76.25609018096924 510.9574280548096,77.36349018096924 C511.78742805480954,79.35399018096923 512.3194280548096,81.71809018096924 512.7044280548096,84.52819018096923 C513.1924280548096,87.55939018096925 511.7064280548095,90.16809018096924 510.8804280548096,93.13989018096923 C508.0114280548096,103.09649018096924 502.44642805480953,111.37949018096924 495.9904280548096,116.78349018096924 C492.5354280548096,119.48849018096924 487.65442805480956,121.09749018096923 483.4844280548096,123.14349018096925 C481.22442805480955,124.27949018096925 477.7474280548096,124.98549018096924 477.21942805480955,127.50949018096924 C476.97942805480955,128.62249018096924 476.31542805480956,127.96349018096925 476.01242805480956,127.96649018096923 C468.88542805480955,127.52749018096924 462.00042805480956,130.64049018096924 453.7514280548096,133.76949018096923 C449.3764280548096,135.44749018096923 443.73342805480956,136.76949018096923 438.48342805480956,137.04949018096923 C433.18342805480955,137.33049018096924 428.15942805480955,139.75649018096925 422.96942805480955,140.85149018096925 C417.62742805480957,141.94749018096923 412.2734280548096,141.93249018096924 406.7884280548096,143.77149018096924 C401.8574280548096,145.45549018096924 396.3454280548096,144.85049018096925 391.61642805480955,146.60649018096925 C383.0644280548096,149.73849018096925 374.5664280548096,148.57349018096923 366.45442805480957,150.36749018096924 C358.39042805480955,151.93849018096924 349.9634280548096,152.69849018096923 342.1094280548096,154.93349018096924 C338.0814280548096,156.08949018096925 333.33742805480955,156.43849018096924 329.79842805480956,156.10749018096925 C323.1754280548096,155.58849018096925 316.93042805480957,157.21349018096925 310.51742805480956,157.35849018096923 C306.9824280548096,157.39749018096924 303.3524280548096,158.03049018096925 299.76942805480957,158.29249018096922 C298.6584280548096,158.30549018096923 297.19342805480954,158.32149018096925 296.5904280548096,158.62449018096925 C290.4134280548096,161.80349018096925 284.2304280548096,159.94649018096925 278.4614280548096,158.89949018096925 C275.5764280548096,158.41349018096923 273.9154280548096,158.95049018096924 271.9514280548096,159.41649018096925 C269.9364280548096,159.88349018096923 270.90442805480956,160.68749018096923 271.5184280548096,161.42149018096924 C272.28642805480956,162.30149018096924 271.07542805480955,162.46349018096925 269.71442805480956,162.62649018096923 C268.0494280548096,162.79249018096922 267.4394280548096,162.50349018096924 267.38042805480956,161.68949018096924 C267.20542805480954,159.61749018096924 264.72142805480956,158.75649018096925 260.6294280548096,158.72749018096923 C255.02142805480958,158.56849018096923 249.41342805480957,158.48249018096925 243.75442805480958,158.32249018096923 C236.53342805480958,158.40349018096924 229.24842805480958,157.37349018096924 222.02342805480956,157.23149018096925 C215.20142805480958,156.93649018096923 207.71342805480958,155.76149018096925 202.03542805480956,158.41649018096925 C200.82942805480957,159.02249018096924 200.01042805480958,157.99449018096925 199.80442805480956,157.62649018096923 C198.82442805480957,155.85949018096923 196.14442805480957,155.51949018096923 193.46942805480958,155.69749018096923 C188.77542805480957,156.04549018096924 184.01942805480957,155.28349018096924 179.17342805480956,155.56049018096923 C173.57042805480958,155.91849018096923 167.19242805480957,154.65649018096923 161.17542805480957,154.05649018096923 C157.63642805480956,153.72549018096925 154.56142805480957,154.27849018096924 151.79142805480956,154.97549018096925 C149.82642805480958,155.44149018096923 151.25642805480956,156.83349018096925 151.92342805480956,157.78849018096923 C153.10242805480956,159.33049018096924 155.48542805480957,160.19349018096923 158.97242805480957,160.37649018096923 C163.62242805480957,160.62149018096923 168.32142805480956,160.79149018096925 172.76942805480957,161.03749018096923 C177.36842805480958,161.28249018096923 181.75042805480956,160.19749018096923 186.40942805480958,161.33049018096924 C187.92942805480956,161.68349018096924 189.55342805480956,162.40649018096923 190.44742805480956,161.06349018096924 C190.79542805480958,160.54149018096925 192.01042805480958,160.82349018096923 192.77342805480956,161.25949018096924 C193.07842805480956,161.47849018096923 193.33342805480956,161.69749018096923 193.58742805480958,161.84349018096924 C198.92242805480956,160.08049018096924 201.79042805480958,163.67749018096924 206.34042805480956,163.99749018096924 C211.44542805480958,164.31149018096923 216.04042805480958,164.18549018096923 220.52542805480957,163.32149018096925 C222.34042805480956,163.00449018096924 224.50942805480958,162.75849018096923 225.93142805480957,163.40949018096924 C231.76942805480957,166.08449018096923 238.52942805480956,165.34349018096924 244.89242805480956,165.27249018096924 C249.74142805480955,165.21849018096924 254.2394280548096,165.46449018096925 259.04442805480954,166.07749018096925 C263.29342805480957,166.62349018096924 268.24342805480956,166.64249018096925 272.63242805480957,166.14849018096925 C283.22642805480956,164.99449018096925 293.59142805480957,165.98949018096923 304.04142805480956,165.50349018096924 C309.44242805480957,165.14749018096924 314.4254280548096,163.61049018096924 319.92842805480956,163.40149018096923 L329.7754280548096,163.14349018096925 C330.3814280548096,163.13649018096925 331.2924280548096,163.34849018096924 331.5424280548096,163.12349018096924 C336.71442805480956,160.32649018096924 342.7344280548096,161.22149018096923 348.2834280548096,160.56749018096923 C351.6624280548096,160.08549018096923 353.81042805480956,157.98849018096925 356.2354280548096,158.03549018096925 C364.21742805480955,158.16849018096923 371.9174280548096,155.63849018096923 379.73642805480955,154.73749018096925 C382.20742805480955,154.41349018096923 383.53442805480955,155.65749018096923 386.60642805480956,154.80949018096925 C389.47642805480956,153.96249018096924 392.1074280548096,154.37749018096923 395.0624280548096,152.12249018096924 C397.26542805480955,150.39449018096923 403.43142805480954,150.77049018096923 407.51942805480957,150.50349018096924 C415.09242805480955,150.12249018096924 421.8914280548096,148.41749018096922 428.7304280548096,145.67549018096923 C429.08242805480955,145.52349018096925 429.68542805480956,145.22049018096925 429.83742805480955,145.29249018096922 C437.7394280548096,147.27849018096924 444.89742805480955,141.49649018096923 452.5134280548096,140.52249018096924 C453.57242805480956,140.36249018096925 454.72942805480955,139.90549018096925 455.73842805480956,139.82049018096924 C465.97942805480955,138.66949018096923 476.1344280548096,134.40949018096924 485.8764280548096,129.26449018096923 C488.4374280548096,127.97649018096925 490.59242805480955,126.47149018096923 492.9444280548096,124.44549018096924 C495.5964280548096,122.19449018096924 500.5244280548096,120.28849018096923 503.97042805480953,116.76849018096924 C508.86842805480956,112.04849018096924 512.9834280548096,105.11449018096924 514.8114280548095,96.87349018096924 C515.4394280548096,94.27449018096924 515.5674280548096,92.19899018096923 516.3994280548096,89.81969018096923 C517.7704280548096,85.87909018096924 517.9254280548096,81.65579018096923 517.2254280548095,77.81229018096924 C516.6264280548096,73.89359018096924 514.2644280548095,70.36479018096924 511.76742805480956,68.39289018096923 C510.13742805480956,67.15189018096923 508.29742805480953,65.24669018096924 506.70442805480957,62.82029018096924 C502.2364280548096,56.13029018096924 496.66642805480956,50.341190180969235 490.3314280548096,48.41189018096924 C488.7084280548096,47.83749018096924 488.03942805480955,46.73389018096924 486.86842805480956,45.85819018096924 C481.77442805480956,41.98949018096924 476.7874280548096,38.71209018096924 470.25242805480957,36.93319018096924 C462.55142805480955,34.796890180969235 454.3864280548096,31.851090180969237 446.41842805480957,28.458690180969235 C445.8094280548096,28.169190180969238 445.1464280548096,27.58409018096924 444.7884280548096,27.217690180969235 C443.55842805480955,25.60199018096924 441.47642805480956,24.58829018096924 439.35442805480955,24.53779018096924 C436.4244280548096,24.49629018096924 439.82942805480957,26.38409018096924 439.8434280548096,27.642990180969235 C436.0694280548096,24.35209018096924 430.6094280548096,23.89439018096924 426.79842805480956,21.862990180969238 C419.9924280548096,18.457690180969237 413.06742805480957,18.01619018096924 406.2784280548096,16.091990180969237 C400.9084280548096,14.670490180969239 395.0934280548096,14.14259018096924 389.8264280548096,12.867990180969237 C381.8214280548096,10.66109018096924 373.6964280548096,11.269790180969238 365.5884280548096,8.841790180969237 C359.96442805480956,7.348990180969238 354.5714280548096,8.371790180969239 350.9584280548096,10.48579018096924 C350.39942805480956,10.195690180969237 349.99342805480956,9.97799018096924 350.0424280548096,9.90339018096924 C350.66642805480956,6.9339901809692375 349.2954280548096,6.282590180969239 342.67842805480956,6.282090180969238 C334.09142805480957,6.229490180969238 325.5644280548096,6.990890180969238 316.8234280548096,6.717690180969239 C314.2474280548096,6.746390180969238 314.25842805480954,7.783090180969239 313.15642805480957,8.535990180969238 C312.32242805480956,6.249290180969238 308.0374280548096,6.963490180969238 305.86342805480956,6.839590180969239 C302.6294280548096,6.653390180969238 299.6964280548096,6.389690180969238 296.5614280548096,6.054290180969238 C293.22442805480955,5.720990180969238 289.6384280548096,5.760890180969238 286.3144280548096,6.612490180969239 C280.42142805480955,8.159290180969238 273.95742805480955,8.231190180969238 267.90942805480955,9.409390180969238 C265.2374280548096,9.88349018096924 264.2594280548096,8.19089018096924 262.5474280548096,8.728390180969239 C256.2544280548096,10.575890180969239 250.18842805480955,10.124890180969238 244.02442805480956,9.971190180969238 C242.56042805480956,9.987490180969239 241.45642805480958,10.666290180969238 240.4534280548096,11.269990180969238 C235.48642805480958,14.287790180969239 232.50942805480958,14.617090180969239 227.28342805480958,12.453290180969237 C225.86242805480958,11.876590180969238 224.93442805480956,10.183490180969237 222.18142805480957,12.435990180969238 C221.48042805480958,12.962190180969237 220.71542805480956,12.30409018096924 220.05642805480957,12.08929018096924 C218.68842805480958,11.660090180969238 217.47542805480958,11.599490180969237 215.97042805480956,12.504990180969237 C212.65842805480958,14.46749018096924 209.37342805480958,14.281790180969239 204.87842805480958,14.33179018096924 C198.36342805480956,14.404190180969238 191.52442805480956,12.554590180969239 184.53742805480957,15.594790180969238 C183.23042805480958,16.201890180969237 182.71742805480957,15.466990180969237 181.75642805480956,15.403590180969239 C177.96442805480956,15.001290180969239 173.97242805480957,14.897590180969239 170.50842805480957,16.78769018096924 C168.85242805480956,17.69489018096924 167.27942805480956,17.045790180969238 165.66842805480957,17.58209018096924 C158.77442805480956,19.88069018096924 151.84042805480956,18.62459018096924 144.83442805480956,19.96159018096924 C141.00442805480958,20.74479018096924 137.48242805480956,21.96899018096924 133.49842805480958,22.53169018096924 C129.61542805480957,23.093290180969237 126.09042805480956,24.02129018096924 121.99842805480958,23.91869018096924 C118.46242805480958,23.88389018096924 113.47242805480957,24.828190180969237 109.91242805480957,27.16369018096924 C108.65842805480958,27.992390180969238 107.24642805480957,28.230190180969238 105.72742805480956,27.876790180969238 C101.12042805480957,26.891090180969236 91.49842805480957,29.145990180969235 87.79242805480958,32.00159018096924 C86.59042805480956,32.903690180969235 85.72942805480957,32.76509018096924 85.17042805480958,32.40099018096924 C83.18942805480957,31.386190180969237 80.41802805480957,32.00949018096924 77.70402805480957,33.22469018096924 C74.03542805480957,34.89489018096924 70.74122805480957,33.89459018096924 66.87392805480957,35.86319018096924 C61.248028054809566,38.66609018096924 55.20252805480958,40.06649018096924 48.96152805480958,42.06149018096924 C38.44352805480957,45.51129018096924 27.26552805480957,48.67219018096924 17.519628054809573,57.96439018096923 C15.422328054809569,60.13559018096923 13.22492805480957,62.381890180969236 11.442228054809572,65.58639018096923 C9.607328054809571,68.64339018096923 8.393428054809569,73.02659018096924 8.691128054809571,77.09679018096924 C8.721628054809571,79.83679018096923 9.497028054809569,85.97549018096923 10.253428054809572,90.41079018096924 C10.48262805480957,92.85239018096924 12.566128054809571,98.53249018096923 14.894228054809574,98.95049018096924 C15.299028054809568,99.02049018096923 15.607828054809573,99.53549018096923 16.073128054809573,100.49249018096924 C19.320628054809568,106.38149018096924 21.318228054809573,108.87749018096923 23.160228054809572,111.00549018096923 C25.100728054809572,112.90949018096924 27.035528054809568,114.29449018096923 30.94892805480957,116.47349018096924 L30.90332805480957,116.91849018096924 z" fill="#391D0D"/>

</svg>