<svg xmlns="http://www.w3.org/2000/svg" width="532" height="168" viewBox="0 0 532 168" fill="none">
<path d="M510.8094280548096,68.01949018096924 C515.8924280548096,69.04799018096924 512.6774280548095,65.65109018096923 509.0354280548096,62.30959018096924 C501.96442805480956,55.63729018096924 494.8274280548096,49.19259018096924 486.78642805480956,44.934290180969235 C478.0734280548096,40.33399018096924 469.13042805480956,36.10679018096924 460.00742805480957,33.333090180969236 C453.44042805480956,31.305290180969237 447.6344280548096,27.853590180969235 441.0494280548096,27.21059018096924 C429.0384280548096,26.060390180969236 417.41442805480955,21.46589018096924 405.40642805480957,20.23889018096924 C402.2994280548096,19.92679018096924 399.1464280548096,19.45849018096924 396.05842805480955,18.762490180969237 C394.49042805480957,18.37469018096924 392.6054280548096,17.97089018096924 391.1674280548096,18.128590180969237 C380.9634280548096,18.917990180969237 370.79442805480954,16.937890180969237 360.6724280548096,16.114790180969237 C353.7104280548096,15.606490180969239 350.0594280548096,17.65319018096924 346.4004280548096,19.85339018096924 C344.9274280548096,20.70219018096924 345.4244280548096,21.343290180969237 347.9994280548096,21.70529018096924 C353.6344280548096,22.29999018096924 359.50042805480956,21.443890180969237 365.1194280548096,22.34559018096924 C373.7804280548096,23.787190180969237 382.70242805480956,23.24039018096924 391.3594280548096,24.75879018096924 C403.00342805480955,26.890890180969237 414.6944280548096,28.101690180969236 426.3434280548096,31.157990180969236 C432.66642805480956,32.78839018096924 440.0504280548096,35.39669018096924 446.98342805480956,35.441590180969236 C447.66942805480954,35.476490180969236 448.61642805480955,35.601690180969236 449.3434280548096,35.86959018096924 C459.3934280548096,39.15239018096924 469.6104280548096,42.28969018096924 479.13242805480957,47.62399018096924 C486.43842805480955,51.76789018096924 493.9034280548096,55.91989018096924 500.29242805480953,62.48049018096924 C503.7594280548095,66.12109018096923 508.15242805480955,69.26989018096924 511.7504280548096,73.45599018096924 C517.5104280548096,79.90759018096924 522.7164280548096,87.87059018096924 526.1864280548095,96.66949018096923 C527.8114280548095,101.13949018096923 528.6174280548096,106.10749018096924 527.7534280548095,110.60549018096924 C526.9414280548095,115.10549018096924 524.4724280548096,118.90649018096924 521.5174280548096,121.83549018096923 C516.8884280548095,126.44949018096924 511.30142805480955,129.09049018096923 505.78742805480954,131.34949018096924 C500.2234280548096,133.53049018096925 494.5734280548096,135.32149018096925 488.9084280548096,137.41949018096923 C487.99142805480955,137.75749018096923 486.97642805480956,137.93649018096923 486.01442805480957,138.11849018096925 C480.9964280548096,138.94149018096923 476.46942805480955,139.48049018096924 471.00342805480955,141.81949018096924 C465.0504280548096,144.36549018096923 458.14542805480954,143.78249018096923 451.4514280548096,145.28949018096924 C445.28942805480955,146.74649018096923 438.51542805480955,146.70949018096923 432.9224280548096,148.42649018096924 C426.5784280548096,150.33649018096924 420.4124280548096,149.79149018096925 414.06842805480954,151.70149018096924 C411.43042805480957,152.56749018096923 405.6264280548096,154.27349018096925 402.0644280548096,152.47549018096925 C401.75542805480956,152.30649018096923 400.74842805480955,152.33149018096924 400.21642805480957,152.38149018096925 C390.4464280548096,155.04049018096924 380.84642805480956,153.32049018096924 371.0984280548096,154.51849018096925 C370.78142805480957,154.50149018096923 370.25742805480957,154.39849018096925 370.20042805480955,154.47249018096923 C365.07242805480956,157.44449018096924 358.60142805480956,154.57449018096924 353.0014280548096,156.44549018096924 C351.1174280548096,157.04249018096922 348.03942805480955,157.19349018096923 345.7204280548096,156.99849018096924 C342.4994280548096,156.83449018096923 340.01742805480956,156.70849018096925 337.39742805480955,158.26849018096925 C336.7974280548096,158.62249018096924 332.8644280548096,157.88349018096923 330.6094280548096,157.46149018096924 C324.52742805480955,156.30449018096922 318.19342805480954,156.98349018096923 312.1074280548096,157.98249018096925 C307.2514280548096,158.73549018096924 303.50042805480956,157.54449018096923 299.32942805480957,157.33249018096924 C294.36642805480955,157.07949018096923 291.06542805480956,157.45049018096924 288.8474280548096,159.41549018096924 C284.3024280548096,157.18349018096924 278.2204280548096,158.10549018096924 272.76242805480956,158.21249018096924 C265.6074280548096,158.38749018096925 258.26442805480957,160.16849018096923 251.3354280548096,157.96849018096924 C245.50742805480957,160.13549018096924 238.87442805480958,157.33449018096923 232.99142805480957,158.49749018096924 C230.90542805480956,158.93049018096923 229.75142805480957,158.71749018096924 227.71142805480957,158.22949018096924 C223.74542805480957,157.10349018096923 219.38242805480957,156.49649018096923 215.12942805480958,157.89649018096924 C212.21942805480958,158.90349018096924 208.78942805480958,157.65149018096923 205.54842805480956,157.87149018096923 C203.05142805480958,158.05149018096924 200.96042805480957,158.56149018096923 197.28642805480956,156.91149018096922 C193.45742805480958,155.17749018096924 186.20742805480958,155.11649018096924 180.56942805480958,154.59849018096924 C176.08542805480957,154.29349018096923 171.45442805480957,153.74949018096925 167.01742805480956,154.60149018096925 C164.93042805480957,155.03449018096924 159.19242805480957,153.35649018096925 156.24542805480957,151.97449018096924 C149.69642805480956,148.56249018096923 142.47642805480956,148.96449018096925 135.70242805480956,146.84949018096924 C134.29542805480958,146.39249018096925 133.07342805480957,146.48449018096923 134.03342805480958,147.38049018096925 C136.80542805480957,150.13849018096923 132.30342805480956,149.13949018096923 130.54142805480956,149.43449018096925 C129.47342805480957,149.61149018096924 127.44542805480958,148.89249018096925 126.74542805480957,148.08749018096924 C126.09842805480957,147.28449018096924 127.47442805480958,147.27749018096924 128.43342805480958,147.17249018096925 C129.33842805480958,147.06449018096924 130.13842805480957,146.95149018096924 129.74742805480957,146.31549018096925 C129.25842805480957,145.52049018096923 127.93842805480958,145.45349018096923 126.89742805480958,145.09249018096924 C116.55042805480957,141.40949018096924 105.50142805480957,140.07749018096925 95.49642805480957,134.87249018096924 C93.22742805480956,133.67949018096922 90.81442805480957,133.24849018096924 88.54742805480957,133.05649018096923 C87.43942805480957,132.99949018096925 86.64742805480957,132.95949018096923 86.92042805480958,133.82049018096924 C87.14942805480958,134.52449018096925 89.72342805480957,135.96449018096925 87.86742805480957,136.02449018096925 C86.17042805480958,136.09149018096923 85.29742805480957,134.50749018096923 84.01642805480957,133.67249018096925 C74.42812805480958,127.56549018096925 64.52672805480957,123.44349018096923 54.19712805480957,120.45349018096924 C53.051028054809564,120.08749018096924 52.07132805480957,119.57549018096924 51.04262805480957,118.98449018096923 C43.78522805480957,114.92049018096924 36.77412805480957,110.17549018096923 29.411128054809573,106.10549018096924 C28.69142805480957,105.68449018096923 27.836828054809573,104.79449018096923 27.343928054809574,104.07649018096924 C23.52442805480957,99.03149018096924 19.137828054809567,94.72849018096923 14.250528054809571,89.86109018096924 C12.789628054809569,88.40109018096923 11.36982805480957,87.17419018096923 10.061328054809572,84.79819018096924 C9.33182805480957,83.52929018096924 8.65512805480957,82.26319018096923 7.974528054809571,81.07389018096924 C7.554028054809571,79.97469018096923 6.963428054809569,79.09789018096924 6.70522805480957,77.92999018096924 C5.96592805480957,75.81389018096924 5.562928054809571,73.32999018096923 5.341828054809572,70.39349018096924 C5.02682805480957,67.22129018096923 6.747628054809571,64.61449018096924 7.80152805480957,61.588890180969244 C11.44042805480957,51.458690180969235 17.78792805480957,43.23679018096924 24.88062805480957,38.05519018096924 C28.66462805480957,35.47639018096924 33.86842805480957,34.12469018096924 38.35642805480957,32.27459018096924 C40.79112805480957,31.243790180969235 44.46952805480957,30.73819018096924 45.18322805480957,28.15709018096924 C45.50582805480957,27.01879018096924 46.15712805480957,27.74479018096924 46.473928054809576,27.76089018096924 C53.89152805480957,28.677290180969237 61.285528054809575,25.89739018096924 70.10512805480957,23.18999018096924 C74.78482805480957,21.73459018096924 80.76502805480958,20.730190180969238 86.26842805480958,20.779390180969237 C91.82442805480957,20.831190180969237 97.22942805480957,18.64289018096924 102.72242805480957,17.844690180969238 C108.37442805480957,17.05459018096924 113.96742805480957,17.416190180969238 119.81642805480956,15.866290180969237 C125.07642805480958,14.440490180969238 130.79642805480958,15.424390180969237 135.85042805480958,13.91099018096924 C144.98642805480958,11.219790180969238 153.79042805480958,12.97649018096924 162.38142805480956,11.643090180969239 C170.90842805480958,10.53739018096924 179.76142805480956,10.29509018096924 188.11142805480958,8.487690180969238 C192.39442805480957,7.550890180969239 197.37342805480958,7.496390180969238 201.04942805480957,8.068390180969239 C207.93542805480956,9.034590180969237 214.56442805480958,7.755390180969238 221.27442805480956,8.019890180969238 C224.97042805480956,8.207990180969238 228.80342805480956,7.7871901809692385 232.56442805480958,7.747690180969238 C233.72542805480958,7.806790180969239 235.25642805480956,7.884690180969239 235.90642805480957,7.609790180969238 C242.56442805480958,4.715490180969239 248.9054280548096,7.039690180969238 254.86542805480957,8.497690180969238 C257.8484280548096,9.188390180969238 259.6174280548096,8.739590180969238 261.70042805480955,8.38369018096924 C263.8364280548096,8.030490180969238 262.87542805480956,7.1347901809692384 262.28142805480957,6.334690180969238 C261.53642805480956,5.373090180969239 262.8114280548096,5.283990180969239 264.2444280548096,5.202990180969238 C265.9944280548096,5.138090180969238 266.6124280548096,5.477490180969239 266.6224280548096,6.324690180969238 C266.67142805480955,8.482690180969238 269.21242805480955,9.535790180969238 273.4854280548096,9.83019018096924 C279.33442805480956,10.358790180969237 285.1874280548096,10.810690180969239 291.08942805480956,11.341990180969237 C298.64042805480955,11.726190180969237 306.1844280548096,13.264890180969239 313.7234280548096,13.879490180969238 C320.83242805480955,14.626190180969239 328.58042805480954,16.32919018096924 334.68342805480955,13.945390180969238 C335.9824280548096,13.39569018096924 336.77242805480955,14.513590180969238 336.96442805480956,14.908290180969239 C337.87342805480955,16.802090180969238 340.65242805480955,17.328390180969237 343.4584280548096,17.317290180969238 C348.38542805480955,17.26009018096924 353.30542805480957,18.357190180969237 358.38542805480955,18.38489018096924 C364.26242805480956,18.37599018096924 370.8454280548096,20.096690180969237 377.0934280548096,21.10749018096924 C380.77042805480954,21.67949018096924 384.0184280548096,21.30589018096924 386.95742805480955,20.762690180969237 C389.0404280548096,20.40679018096924 387.63542805480955,18.87269018096924 387.00042805480956,17.83959018096924 C385.8674280548096,16.16539018096924 383.43342805480955,15.117690180969237 379.80142805480955,14.701890180969237 C374.95942805480956,14.147590180969239 370.06042805480956,13.667290180969239 365.4294280548096,13.123690180969238 C360.64042805480955,12.572090180969237 355.9924280548096,13.413190180969238 351.1964280548096,11.937490180969238 C349.63242805480957,11.472990180969237 347.98142805480956,10.619190180969238 346.9614280548096,11.952890180969238 C346.5644280548096,12.471590180969237 345.3124280548096,12.09989018096924 344.54342805480957,11.598890180969239 C344.23842805480956,11.352490180969237 343.98642805480955,11.108690180969237 343.7304280548096,10.941690180969239 C338.04342805480957,12.422790180969237 335.2784280548096,8.509990180969238 330.5454280548096,7.884290180969238 C325.2324280548096,7.228990180969239 320.42342805480956,7.061190180969238 315.68142805480954,7.666690180969239 C313.76442805480957,7.877090180969239 311.4824280548096,7.9918901809692375 310.03942805480955,7.225590180969238 C304.11142805480955,4.075590180969238 297.00042805480956,4.406590180969239 290.3484280548096,4.067990180969238 C285.27942805480956,3.8100901809692385 280.5954280548096,3.263760180969239 275.6144280548096,2.3174501809692387 C271.2104280548096,1.4774801809692386 266.03942805480955,1.1373501809692383 261.4224280548096,1.3642701809692381 C250.27942805480956,1.8749101809692377 239.5134280548096,0.17232018096923873 228.56442805480958,1.8096923870558612e-7 C222.89942805480956,0.019600180969238323 217.59342805480958,1.2892101809692385 211.83042805480957,1.1498801809692383 L201.52642805480957,0.7794501809692385 C200.89242805480956,0.7472101809692386 199.95442805480957,0.4684901809692388 199.67842805480956,0.6854001809692383 C194.09542805480956,3.2495601809692385 187.86242805480958,1.931630180969238 182.02342805480956,2.250300180969239 C178.46242805480958,2.5309501809692385 176.08242805480958,4.565290180969239 173.55142805480958,4.359490180969239 C165.22042805480956,3.704620180969238 157.01342805480957,5.8272901809692375 148.78642805480956,6.255390180969238 C146.18342805480958,6.430890180969238 144.87642805480957,5.055690180969238 141.61242805480958,5.736390180969238 C138.56042805480956,6.427790180969238 135.83842805480958,5.827390180969239 132.60542805480958,7.972290180969239 C130.19242805480957,9.620090180969239 123.77442805480956,8.831490180969238 119.48542805480957,8.844190180969239 C111.54942805480957,8.748290180969239 104.33542805480957,10.074690180969238 97.01342805480957,12.47339018096924 C96.63642805480957,12.608190180969238 95.98742805480957,12.883090180969237 95.83242805480957,12.79819018096924 C87.70542805480957,10.229090180969237 79.85352805480957,15.75709018096924 71.83362805480957,16.27269018096924 C70.71692805480957,16.36979018096924 69.47902805480958,16.768690180969237 68.41912805480958,16.791790180969237 C57.64572805480957,17.32119018096924 46.76102805480957,21.078190180969237 36.25182805480957,25.778090180969237 C33.49262805480957,26.946290180969235 31.14392805480957,28.36639018096924 28.55682805480957,30.313190180969237 C25.64112805480957,32.47429018096924 20.368928054809572,34.13049018096924 16.541928054809567,37.55379018096924 C11.12122805480957,42.127790180969235 6.375328054809572,49.045390180969235 3.935128054809571,57.46609018096924 C3.111928054809571,60.118590180969235 2.8441280548095698,62.26039018096924 1.8214280548095694,64.67169018096924 C0.13592805480957182,68.66589018096924 -0.29797194519042947,73.03179018096924 0.1852280548095706,77.05939018096925 C0.5589280548095701,81.15839018096923 2.800228054809569,84.96749018096924 5.282028054809569,87.17229018096924 C6.9052280548095695,88.56359018096924 8.704428054809572,90.65659018096923 10.212328054809571,93.27369018096924 C14.450528054809567,100.49449018096924 19.89712805480957,106.85349018096923 26.391828054809572,109.26249018096924 C28.050228054809573,109.96249018096924 28.678028054809573,111.14949018096924 29.84552805480957,112.13249018096924 C34.91852805480957,116.47049018096924 39.91722805480957,120.18949018096924 46.63092805480957,122.45549018096924 C54.539528054809566,125.16749018096922 62.88032805480957,128.74749018096924 70.98652805480957,132.77849018096924 C71.60452805480956,133.11749018096924 72.25962805480957,133.76749018096925 72.60972805480957,134.16949018096923 C73.79102805480957,135.92349018096922 75.90112805480958,137.10849018096923 78.11492805480957,137.29849018096922 C81.17342805480958,137.53049018096925 77.73732805480957,135.35449018096924 77.80382805480957,134.04949018096923 C81.53522805480956,137.70349018096923 87.21042805480957,138.53049018096925 91.06142805480957,140.88249018096923 C97.95242805480957,144.85149018096925 105.15942805480957,145.75649018096925 112.12942805480958,148.19049018096925 C117.64842805480956,150.01049018096924 123.68842805480958,150.93349018096924 129.10942805480957,152.59549018096925 C137.33142805480958,155.40049018096923 145.85942805480957,155.29549018096924 154.17542805480957,158.33549018096923 C159.95442805480957,160.24649018096923 165.65442805480956,159.53549018096925 169.56542805480956,157.57949018096923 C170.13042805480956,157.91649018096925 170.54142805480956,158.16749018096922 170.48442805480957,158.24249018096924 C169.64242805480956,161.27849018096924 171.03242805480957,162.04149018096925 177.94542805480958,162.47049018096925 C186.91442805480958,163.08149018096924 195.87242805480957,162.84449018096925 204.98742805480958,163.69349018096923 C207.68042805480957,163.83049018096924 207.73542805480957,162.75549018096925 208.93642805480957,162.04649018096924 C209.65942805480958,164.46949018096925 214.18342805480958,164.00749018096923 216.44542805480958,164.27649018096923 C219.81342805480958,164.67849018096925 222.86042805480957,165.14149018096924 226.11442805480957,165.69149018096923 C229.57942805480957,166.25349018096924 233.32842805480956,166.44449018096924 236.85642805480958,165.77649018096923 C243.11242805480958,164.55549018096923 249.87042805480957,164.89949018096925 256.26542805480955,164.07049018096924 C259.08742805480955,163.75149018096923 260.00042805480956,165.56849018096923 261.8234280548096,165.12249018096924 C268.51742805480956,163.61549018096923 274.8264280548096,164.47549018096925 281.2564280548096,165.03449018096924 C282.7874280548096,165.11249018096925 283.9844280548096,164.48049018096924 285.0714280548096,163.91949018096923 C290.45542805480954,161.11449018096923 293.5864280548096,160.96549018096923 298.90742805480954,163.54549018096924 C300.35442805480955,164.23549018096924 301.2154280548096,166.04949018096923 304.23642805480955,163.89449018096923 C305.00342805480955,163.39449018096923 305.7594280548096,164.12549018096925 306.4344280548096,164.39049018096924 C307.8364280548096,164.92449018096923 309.1004280548096,165.06549018096925 310.73142805480956,164.22449018096924 C314.31742805480957,162.40549018096925 317.7374280548096,162.81049018096923 322.4374280548096,163.04949018096923 C329.24842805480955,163.39649018096924 336.2754280548096,165.75549018096925 343.77042805480954,163.05749018096924 C345.1754280548096,162.51349018096923 345.6634280548096,163.30849018096924 346.6634280548096,163.43549018096923 C350.59942805480955,164.09849018096924 354.7634280548096,164.46449018096925 358.5044280548096,162.72949018096924 C360.29342805480957,161.89749018096924 361.89542805480954,162.67149018096924 363.6124280548096,162.22049018096925 C370.9634280548096,160.28449018096924 378.1264280548096,162.03449018096924 385.53242805480954,161.10349018096923 C389.58442805480956,160.53949018096924 393.3434280548096,159.49949018096925 397.54142805480956,159.17349018096922 C401.6344280548096,158.84349018096924 405.37742805480957,158.11049018096924 409.64742805480955,158.48149018096925 C413.33942805480956,158.74649018096923 418.61342805480956,158.09049018096923 422.48342805480956,155.90149018096923 C423.84642805480956,155.12349018096924 425.3364280548096,154.96849018096924 426.90142805480957,155.43349018096924 C431.65142805480957,156.75249018096923 441.84942805480955,155.03949018096924 445.9054280548096,152.32049018096924 C447.21942805480955,151.46349018096925 448.1094280548096,151.66249018096923 448.6704280548096,152.07649018096924 C450.6754280548096,153.25649018096925 453.6104280548096,152.78949018096924 456.52442805480956,151.70649018096924 C460.46442805480956,150.21349018096925 463.84242805480955,151.46249018096924 468.0094280548096,149.67349018096922 C474.06742805480957,147.13349018096923 480.47442805480955,146.07349018096923 487.12342805480955,144.41049018096925 C498.33442805480956,141.51749018096925 510.2164280548096,138.96549018096923 520.9974280548096,129.96849018096924 C523.3284280548096,127.85449018096924 525.7694280548096,125.66949018096923 527.8374280548096,122.46449018096925 C529.9514280548095,119.41649018096923 531.5024280548096,114.95349018096924 531.4534280548096,110.71649018096925 C531.5974280548096,107.87549018096924 531.1834280548096,101.46549018096924 530.6784280548096,96.82049018096924 C530.5954280548095,94.27649018096923 528.7844280548096,88.25639018096923 526.3794280548095,87.67209018096924 C525.9604280548095,87.57379018096924 525.6714280548096,87.02029018096924 525.2464280548096,85.99789018096924 C522.2334280548096,79.68609018096925 520.3064280548095,76.97069018096924 518.5194280548096,74.64729018096924 C516.6144280548095,72.54879018096923 514.6824280548095,70.98779018096924 510.73342805480956,68.47749018096924 L510.8094280548096,68.01949018096924 z" fill="#391D0D"/>
</svg>