<svg width="611" height="13" viewBox="0 0 611 13" fill="none" xmlns="http://www.w3.org/2000/svg">
<path d="M2 10.9988C34.0097 10.9988 66.0194 10.9988 98.0291 10.9988C115.873 10.9988 133.682 11.0643 151.49 10.2262C170.403 9.33609 189.162 6.09037 208.119 6.09037C224.475 6.09037 240.365 5.66314 256.636 3.81794C272.692 1.99705 289.066 2 305.191 2C330.86 2 356.195 6.09037 381.79 6.09037C408.331 6.09037 434.719 7.72651 461.248 7.72651C483.195 7.72651 504.935 6.09037 526.877 6.09037C541.953 6.09037 557.138 6.90844 572.11 6.90844C584.541 6.90844 596.627 8.54459 609 8.54459" stroke="#AB6333" stroke-width="3" stroke-linecap="round"/>
</svg>
