<?xml version="1.0" encoding="UTF-8"?> <svg xmlns="http://www.w3.org/2000/svg" width="445" height="202" viewBox="0 0 445 202" fill="none"><g clip-path="url(#clip0_526_180)"><path d="M251.62 151.17C251.864 151.376 251.492 152.867 251.494 153.179C251.688 156.189 250.515 157.443 250.012 160.077C249.844 160.944 249.452 164.754 250.738 164.78C253.032 164.834 263.152 155.488 265.538 153.707C269.323 153.266 266.769 155.88 266.293 157.475C266.192 157.822 265.482 160.838 265.622 160.976C265.972 161.354 267.702 160.235 268.152 159.955C270.506 158.624 274.446 155.309 277.039 153.353C278.422 152.305 278.655 150.711 280.637 150.905C283.28 151.199 280.108 154.89 279.596 156.243C279.049 157.666 278.401 159.436 277.82 160.963C277.308 162.316 276.734 164.778 276.431 166.268C276.363 166.511 275.84 166.272 275.738 166.515C275.158 168.181 274.858 170.087 274.349 171.821C274.349 171.89 272.893 172.419 274.804 172.372L282.824 165.948C288.951 162.411 294.839 159.394 300.793 155.823C306.153 146.683 311.4 136.229 319.208 129.461C319.346 129.321 319.205 129.011 319.586 128.8C320.521 128.275 322.987 128.12 323.617 128.773C324.212 129.392 323.226 132.618 322.885 133.521C321.041 138.448 316.396 145.334 312.635 149.374C309.185 153.067 303.571 155.528 301.691 160.144C301.554 160.526 301.732 161.148 301.596 161.564C301.528 161.738 300.732 162.297 300.667 162.92C300.668 163.059 301.124 163.679 301.193 163.678C301.68 163.675 307.954 161.244 308.924 160.823C315.958 157.694 321.494 154.057 330.051 155.246C333.043 155.675 331.62 155.927 332.289 157.169C332.359 157.307 333.122 157.129 333.267 157.993C333.376 158.685 332.435 163.364 332.925 163.915C332.96 163.949 333.864 163.978 334.072 163.907C334.939 163.693 340.357 158.049 341.812 157.382C342.885 156.682 347.121 150.873 347.572 150.731C348.751 150.412 350.178 150.783 351.36 150.706C351.742 150.703 351.635 150.254 352.017 150.251C353.059 150.244 356.988 150.529 357.032 151.775C357.033 152.018 355.597 155.454 355.074 155.181C354.491 156.431 350.156 162.968 351.134 163.723C351.414 163.929 352.143 163.855 352.49 163.783C354.33 163.528 363.234 159.349 365.277 158.228C369.258 155.985 374.556 147.85 379.15 148.892C379.185 148.892 379.883 149.337 379.883 149.371C380.025 149.717 378.887 151.109 378.404 151.597C376.816 153.269 369.76 158.232 369.387 159.619C369.217 160.174 369.338 162.631 369.654 163.113C370.216 163.975 373.335 162.639 374.305 162.182C374.513 162.077 374.44 161.593 374.509 161.558C374.786 161.417 375.205 161.657 375.516 161.482C380.261 158.992 383.852 155.541 387.616 151.95C387.961 151.636 389.025 149.656 389.442 149.584L405.295 150.446C405.829 152.312 403.224 152.503 402.636 152.957C401.495 153.795 394.797 160.279 394.421 161.354C394.08 162.291 393.816 164.301 395.309 164.187C395.448 164.186 395.48 163.77 395.619 163.769C402.183 163.102 416.964 154.383 421.586 149.125C422.069 148.603 422.751 146.729 423.203 146.622C424.07 146.408 425.949 146.776 426.82 147.151C428.075 147.662 433.769 151.985 435.064 153.327C435.519 153.808 437.835 157.185 437.872 157.462C438.019 158.568 437.361 158.919 437.33 159.508C437.267 160.477 440.362 160.803 440.989 161.041C442.662 161.652 444.231 162.473 445.973 163.084C446.356 163.22 446.945 163.008 447.224 163.076C447.328 163.11 447.298 163.837 448.726 164.173C450.745 164.679 451.817 163.945 453.728 163.863C455.083 163.819 457.829 163.904 455.511 165.374C453.746 166.493 449.785 166.658 447.802 166.291C447.628 166.292 447.66 165.911 447.521 165.877C444.91 165.307 442.089 164.426 439.581 163.508C439.511 163.508 439.716 162.988 439.472 162.886C439.159 162.784 436.512 162.005 436.339 162.007C435.852 162.01 433.226 164.208 432.22 164.457C429.791 165.062 423.884 165.241 421.723 164.251C421.374 164.081 419.199 161.084 419.162 160.807C418.867 158.247 427.383 158.502 428.913 158.595C431.069 158.719 436.019 160.936 434.984 156.893C434.913 156.685 434.427 156.827 434.322 156.62C432.982 153.825 430.124 152.598 427.885 150.433C426.287 150.443 425.997 148.784 424.402 149.279C424.055 149.385 420.193 153.808 419.328 154.506C419.087 154.715 418.635 154.822 417.979 155.346C412.966 159.36 402.791 165.66 396.54 166.29C395.706 166.365 393.795 166.378 393.098 166.036C392.958 165.968 391.345 163.867 391.309 163.625C390.985 161.897 392.049 159.951 393.082 158.56C393.668 157.794 399.369 152.875 398.983 152.358C398.703 151.979 395.925 152.344 395.194 152.28C394.29 152.217 392.549 151.709 391.785 151.784C390.361 151.897 388.781 154.677 387.78 155.653C384.119 159.139 376.204 165.527 370.819 165.771C369.707 165.813 367.965 165.167 367.437 164.132C367.12 163.511 366.544 160.573 366.37 160.505C366.265 160.471 364.289 161.246 364.082 161.351C363.978 161.421 364.051 161.905 363.635 162.116C361.141 163.413 351.095 168.154 349.132 165.675C348.326 164.642 348.552 162.113 348.856 160.865C349.262 159.27 352.331 155.649 352.705 154.435C353.045 153.325 352.972 152.737 351.824 152.607C349.077 152.348 348.225 154.812 346.567 156.38C344.011 158.786 336.451 166.349 333.431 166.888C329.023 167.68 330.125 160.957 329.775 160.578C329.214 159.89 328.737 161.278 328.667 161.313C326.628 163.023 322.479 166.131 319.796 165.076C319.622 165.008 318.807 162.798 318.873 162.244C319.173 160.338 323.397 158.025 320.307 158.461C318.988 158.643 315.838 160.499 314.868 160.921C309.704 163.137 304.541 165.352 299.271 167.291C299.941 168.637 299.5 170.336 299.476 171.894C299.48 172.482 300.139 172.339 300.04 173.032C300.041 173.171 299.387 174.145 299.254 174.976C298.988 176.813 298.87 179.929 298.429 181.593C297.616 184.749 292.472 194.891 290.123 197.053C290.019 197.158 287.735 198.592 287.596 198.593C286.97 198.528 285.952 196.908 285.843 196.321C285.484 194.558 287.632 188.416 288.278 186.266C288.686 184.982 289.372 183.593 289.85 182.274C291.964 176.306 294.392 170.44 296.891 164.711C297.096 164.225 298.536 161.273 297.77 161.071C297.004 160.868 286.792 166.822 285.373 167.731C282.432 169.689 276.139 174.474 273.863 177.155C270.933 180.636 269.555 187.673 267.847 191.976C267.573 192.671 267.374 193.987 267.065 194.682C267.066 194.751 266.509 194.651 266.475 194.686C265.652 196.387 263.64 202.078 260.923 201.162C260.296 200.958 259.166 198.266 259.127 197.608C258.932 194.459 262.705 187.061 264.493 184.314C265.663 182.541 268.875 179.577 269.526 178.153C271.306 174.195 272.62 167.921 273.947 163.724C274.593 161.642 276.075 159.798 275.712 157.515C273.396 159.331 271.257 161.769 268.448 162.549C267.308 163.595 265.436 164.3 264.144 163.443C263.481 162.998 262.839 160.614 262.7 160.511C261.687 159.825 257.51 163.973 256.472 164.637C255.953 164.987 253.356 166.493 252.906 166.704C252.629 166.844 252.141 166.605 251.794 166.711C251.724 166.712 251.867 167.265 251.59 167.336C249.439 167.973 247.797 166.738 247.436 164.664C247.364 164.249 247.547 160.474 246.817 160.549C246.366 160.586 241.986 165.6 239.136 165.55C238.684 165.553 238.44 165.451 238.056 165.246C237.987 165.212 237.004 163.73 236.968 163.661C236.859 162.969 237.475 161.442 236.811 160.997C234.219 163.091 231.31 164.634 228.437 166.28C228.333 166.35 228.37 166.765 228.197 166.87C225.947 168.166 221.62 170.688 219.041 169.666C218.205 169.326 218.159 167.63 217.496 167.288L217.683 164.068L210.943 169.548C210.144 169.657 208.954 168.35 208.776 167.728C208.062 164.998 209.539 162.288 206.363 165.529C205.707 166.191 204.193 168.347 203.258 168.873C202.323 169.398 200.902 169.962 199.96 169.518C197.276 168.221 198.867 162.014 199.304 159.726C199.471 158.756 199.254 157.477 199.491 156.54C199.524 156.367 201.173 153.448 201.346 153.412C201.589 153.376 202.597 153.335 202.703 153.542C202.844 153.852 201.42 159.227 201.253 160.198C201.019 161.515 200.253 166.574 201.058 167.399C201.863 168.224 203.475 165.064 203.613 164.924C203.924 164.611 205.515 163.458 205.86 163.04C207.481 161.194 209.376 158.828 210.334 156.606C211.309 156.807 212.59 156.106 212.841 157.247C213.308 159.493 210.494 164.809 211.335 165.911C211.546 166.186 213.829 164.682 214.175 164.368C214.762 163.845 217.004 161.303 217.866 160.328C219.246 158.796 220.887 154.735 223.398 156.102C224.34 156.615 222.653 158.981 222.346 159.813C222.072 160.438 221.941 161.581 221.53 162.519C221.427 162.762 220.939 162.523 220.837 162.766C220.666 163.252 220.783 165.051 220.683 165.778C220.617 166.229 218.993 167.659 221.772 167.433C223.369 167.283 223.397 166.245 223.501 166.209C223.778 166.069 224.197 166.309 224.508 166.133C231.573 162.451 237.651 156.629 244.683 153.224C245.999 152.592 247.318 152.307 248.635 151.813C248.913 151.707 248.77 151.155 248.805 151.154C249.256 151.151 251.724 151.135 251.829 151.203L251.62 151.17ZM319.921 132.121L315.952 136.198C313.366 139.262 311.758 143.046 309.73 146.313C309.455 146.765 306.829 149.102 307.425 149.79C308.3 150.719 309.603 148.045 309.741 147.94C312.711 145.116 314.64 142.576 316.909 138.892C317.046 138.683 317.15 138.682 317.631 137.848C318.662 136.076 319.9 134.129 319.887 132.122L319.921 132.121ZM247.72 155.177C247.126 154.766 242.941 157.771 242.389 158.363C242.217 158.572 242.394 159.124 242.222 159.333C241.636 160.099 239.972 160.699 240.157 162.359C241.304 162.42 248.418 155.657 247.72 155.177ZM430.805 160.867C429.203 160.393 428.131 161.127 427.088 161.134C426.324 161.139 425.417 160.592 424.27 160.634C424.166 160.635 422.606 161.268 422.607 161.372C422.753 162.375 426.996 162.866 427.863 162.687C428.209 162.373 433.069 161.544 430.805 160.867ZM325.186 160.401C325.427 160.088 325.946 159.739 325.457 159.396C325.285 159.57 322.998 160.693 323.522 161.07C324.43 161.722 324.631 160.544 324.7 160.509C324.838 160.404 325.152 160.471 325.22 160.367L325.186 160.401ZM296.567 173.471C295.317 173.653 295.366 175.764 294.99 176.701C293.966 179.408 292.667 182.601 291.609 185.412C291.369 186.037 291.48 187.006 291.207 187.665C291.104 187.908 290.616 187.738 290.582 187.808C290.445 188.155 289.799 190.167 289.974 190.373C290.499 190.958 291.881 189.772 292.156 189.286C292.774 188.208 295.506 181.025 295.811 179.811C296.216 178.077 296.301 175.273 296.602 173.471L296.567 173.471ZM265.531 188.773C263.732 189.962 262.299 193.952 262.731 196.061C264.071 193.871 265.062 191.303 265.531 188.773ZM290.359 190.821C289.871 190.616 289.359 192.039 289.429 192.108C290.129 192.761 290.572 191.477 290.359 190.821Z" fill="#F7F6F5"></path><path d="M173.994 44.0398C173.994 44.0398 173.922 43.6595 174.165 43.6233C174.582 43.5166 175.07 43.721 175.521 43.6141C175.59 43.6137 175.448 43.0608 175.69 42.9899C176.384 42.7429 179.268 42.6889 180.205 42.4403C184.888 41.2664 192.651 37.9256 197.513 37.4429C198.138 37.3695 201.862 38.1751 202.074 38.6237C202.18 38.8999 200.462 41.8192 200.326 42.3394C200.192 42.998 199.937 46.4959 200.08 47.0834C200.223 47.6363 203.189 44.1893 203.849 44.1849C206.437 41.4328 208.121 38.6176 210.116 35.6272C211.733 33.1586 212.784 34.4323 215.008 34.3827C216.607 34.372 217.367 33.7091 219.456 34.3528C223.218 35.5044 220.724 36.7327 219.727 38.4356C219.006 39.6866 216.156 44.8635 216.198 45.9709C216.248 48.186 219.807 45.1159 220.464 44.696C220.741 44.5211 221.229 44.7601 221.472 44.62C221.852 44.3752 224.064 42.4218 224.893 41.7585C226.103 40.8503 231.491 35.7602 232.499 35.788C236.948 35.9657 232.26 41.6743 232.68 42.0522C233.239 42.5677 237.247 39.0099 238.635 38.7582C239.364 38.6149 241.904 39.0131 242.463 39.4248C242.742 39.6306 242.789 41.361 243.241 41.4272C243.832 41.4925 244.97 40.1694 245.455 39.9238C247.429 38.8721 251.481 36.8371 253.405 38.6934C255.679 40.8934 248.297 49.0432 254.691 49.0002C255.768 48.9929 260.939 47.8504 261.77 47.3602C263.328 46.4497 262.929 44.0639 263.408 42.8837C265.015 38.9613 270.01 32.4199 274.916 33.2523C275.159 33.2852 277.077 34.2416 277.322 34.4822C280.333 37.8197 273.454 43.266 271.42 45.6336L266.189 48.2304C265.537 49.3771 266.374 49.8215 267.45 49.7104C273.98 49.1125 282.482 42.0975 287.495 38.2214C288.982 37.0691 287.419 37.1835 290.091 36.577C291.687 36.2201 299.918 35.4377 301.415 35.7392C301.519 35.7385 302.671 36.5615 302.57 36.943C302.435 37.6016 297.016 43.1073 296.574 44.5642C294.969 48.8327 295.847 50.2114 300.467 49.7649C301.856 49.6171 302.093 48.7501 303.766 49.3619C304.497 49.6339 305.43 48.8661 305.057 50.1148C305.057 50.184 303.848 51.2652 303.779 51.3003C299.517 53.3021 292.038 52.2448 292.797 46.2858C293.029 44.4842 294.375 43.1251 295.097 42.0126C295.372 41.5953 296.888 39.5774 296.852 39.4392C296.637 38.3675 290.698 38.996 289.763 39.4869C289.451 39.6621 287.935 41.5762 287.278 42.0652C286.171 42.8688 284.996 43.7768 283.889 44.5804C283.543 44.825 282.848 44.8297 282.571 45.0393C282.295 45.2488 282.507 45.7666 282.334 45.8716C279.186 48.039 271.566 51.9327 268.057 52.0948C264.548 52.2569 264.114 49.7675 263.21 49.6005C262.583 49.5008 260.124 50.6251 259.221 50.8043C256.965 51.2002 252.938 51.9197 251.088 50.6514C249.412 49.4857 249.386 45.6782 249.791 43.8408C249.925 43.1822 252.442 40.1537 249.734 40.5181C249.386 40.5551 244.334 43.7391 243.642 44.263C243.4 44.4377 243.543 44.9906 243.405 45.0954C241.572 46.4923 240.745 47.5018 239.721 45.1202C239.685 45.0166 239.2 45.1583 239.129 44.9511C238.844 43.9145 240.464 41.9652 240.009 41.4144C239.553 40.8982 235.472 43.7988 234.78 44.3227C233.674 45.1609 230.816 49.0917 228.826 47.8244C228.268 47.4474 228.251 44.9551 228.351 44.2622C228.35 44.1237 229.686 41.2416 228.474 42.0113C228.474 42.0113 228.547 42.4608 228.305 42.6701C227.925 42.9496 226.608 43.4777 226.504 43.5477C225.017 44.7346 224.777 45.1516 223.082 46.2707C220.694 47.8791 213.741 52.5645 213.494 46.9238C213.37 44.0515 214.809 40.8572 216.112 38.3215C216.112 38.2522 217.189 38.2796 216.976 37.5887C216.94 37.4159 214.016 36.7779 213.704 36.78C212.557 36.7877 210.742 40.8153 210.156 41.5462C208.537 43.5995 202.426 49.6291 199.787 49.9584C199.266 50.0312 198.779 49.9998 198.36 49.7257C198.116 49.5543 197.023 47.3116 196.952 47.0006C196.701 45.8946 197.486 43.8123 196.064 44.2027C194.399 44.6639 191.987 47.6917 189.171 47.6415C185.661 47.5959 187.857 43.3926 187.056 43.1211C186.011 42.7473 185.81 43.9256 185.706 43.9263C185.359 44.0325 184.697 43.76 184.246 43.9015C183.379 44.1497 181.439 45.132 180.606 45.3107C179.635 45.5249 175.326 45.6232 174.634 46.1471C173.943 46.671 175.211 49.1894 175.286 50.0889C176.074 58.6336 171.561 74.8641 163.116 80.0441C156.644 83.9993 157.376 74.0597 158.116 70.42C158.251 69.7961 159.043 68.7522 159.042 68.6484C159.313 67.5735 159.027 66.3985 159.505 65.1145C159.539 64.9758 160.61 64.034 160.644 63.9299C160.848 63.2708 160.598 62.2686 160.802 61.6442C161.824 58.5911 163.191 55.155 164.387 52.0315C164.694 51.2333 166.654 48.1393 166.163 47.3811C165.741 46.7608 163.537 49.6488 163.329 49.8232C162.914 50.1376 159.733 52.5129 159.525 52.5835C157.062 53.2924 158.021 51.209 159.057 50.1636C162.991 46.0524 166.014 45.9282 169.415 40.0899C175.531 29.5947 179.552 17.7637 186.922 7.81401C187.748 6.66613 190.744 2.52669 191.784 2.1043C193.517 1.40031 196.198 2.10918 196.385 4.15024C196.802 9.30517 189.447 21.4356 186.176 25.9923C185.866 26.4097 184.999 26.6925 184.964 26.762C183.174 29.1971 181.455 32.0126 179.42 34.2763C178.316 35.5299 171.443 41.8762 171.239 42.5353C171.103 42.9862 171.246 43.6083 171.145 44.0936C172.083 44.0181 173.301 44.2868 174.169 44.1425L173.994 44.0398ZM193.812 3.89065C193.812 3.89065 192.664 3.82915 192.493 4.17646C190.599 6.85462 188.289 9.50097 186.5 12.213C186.293 12.526 186.505 12.9746 186.333 13.218C186.299 13.2875 185.811 13.1523 185.674 13.3609C182.613 18.1931 180.597 23.2952 178.095 28.4352C177.718 29.2339 174.513 33.3747 175.214 34.1661C175.809 34.8544 176.527 33.0842 176.804 32.84C183.366 26.7727 188.658 17.8409 192.53 9.71471C192.35 8.74669 194.267 4.40682 193.812 3.92527L193.812 3.89065ZM275.489 35.8446C275.139 35.3623 273.611 35.6495 273.056 35.7917C271.078 36.2551 266.426 42.0672 265.987 43.974C265.716 45.0836 266.134 45.1154 267.209 44.7966C268.11 44.5136 273.124 40.6721 273.709 39.8028C274.019 39.3507 275.63 36.0513 275.489 35.8446ZM194.036 42.3125C194.964 40.887 191.57 42.606 191.608 43.125C191.854 43.5041 193.967 42.4168 194.036 42.3125ZM170.842 45.5149C169.587 44.9349 169.125 48.538 168.713 49.4062C168.576 49.684 168.122 49.3756 167.951 49.7575C165.074 56.0769 163.314 63.0465 161.689 69.496C161.452 70.363 160.591 71.5457 160.428 73.2083C159.417 83.046 164.677 74.4605 166.672 71.3663C170.489 65.3867 174.452 55.1484 172.248 47.8593C172.212 47.7211 170.981 45.5832 170.877 45.5147L170.842 45.5149Z" fill="#F7F6F5"></path><path d="M411.614 90.1437C412.104 90.6942 411.332 99.8726 412.1 100.49C412.24 100.593 413.142 100.414 413.456 100.516C413.665 100.584 413.493 100.931 413.702 100.964C414.258 100.961 413.908 100.513 414.359 100.51C420.13 100.644 426.482 99.5628 432.456 98.9687C434.366 98.7828 444.432 96.915 445.379 98.1894C445.765 98.7406 444.314 100.031 443.897 100.103C441.849 100.429 438.929 100.31 436.915 100.566C429.137 101.518 421.47 103.577 413.127 103.287C412.611 104.018 409.891 102.686 409.435 101.997C408.978 101.308 408.369 98.5771 408.363 97.7118C408.356 96.6733 409.339 93.0321 408.259 92.6586C407.737 92.4544 405.793 92.8137 405.169 93.0602C405.1 93.0606 405.242 93.5789 404.965 93.6846C404.445 93.8612 402.674 94.1501 402.293 94.3257C400.977 94.9576 394.023 99.6776 393.363 99.682C392.077 99.6907 391.579 97.9979 391.815 96.8886C391.814 96.7501 392.878 94.8045 392.912 94.6312C393.413 91.6163 388.581 96.7027 387.682 97.3318C382.736 100.827 375.471 105.791 369.445 103.755C368.226 103.348 367.27 100.827 365.984 100.801C365.776 100.802 363.076 102.482 362.557 102.693C359.056 104.067 352.156 106.502 350.008 102.397C349.797 101.983 349.539 99.7349 349.434 99.6664C348.63 99.0141 344.28 103.301 343.519 103.791C343.277 103.931 342.789 103.761 342.547 103.901C339.916 105.511 337.149 107.434 334.059 107.939C333.11 106.319 332.518 106.184 332.053 104.214C332.017 104.041 331.635 104.079 331.635 104.044C331.492 103.457 332.084 103.66 332.083 103.487C332.178 102.102 332.205 101.029 332.509 99.6419C332.542 99.434 333.65 98.7342 332.674 98.2908C331.453 97.7452 331.219 99.0968 330.977 99.2715C328.66 101.018 326.59 103.213 324.203 104.821C322.508 105.975 320.22 106.89 318.491 108.113C316.789 108.332 317.13 107.292 316.463 106.362C316.358 106.224 315.699 106.367 315.663 106.298C315.628 106.229 315.306 104.777 315.305 104.708C315.226 103.289 316.185 101.206 316.006 100.376C315.898 99.8577 313.103 102.888 312.723 103.133C310.648 104.67 302.063 109.782 299.736 109.867C297.408 109.952 297.074 106.804 297.513 105.001C297.817 103.718 302.061 99.0855 302.196 98.5307C302.23 98.3228 302.295 97.6647 302.26 97.6303C302.085 97.4584 297.323 97.4212 296.941 97.493C295.97 97.6727 295.154 100.413 294.569 101.248C294.121 101.908 293.189 102.814 292.638 103.511C291.88 104.485 291.808 104.208 291.636 104.417C289.465 107.097 287.19 109.882 284.214 111.806C283.902 112.016 283.31 111.708 283.033 111.918C280.818 113.283 278.748 115.616 275.933 115.6C274.022 115.613 272.967 113.82 272.782 112.16C272.483 108.942 274.238 106.369 274.46 103.252C272.286 105.621 270.883 108.746 268.639 111.045C268.501 111.185 267.634 111.467 267.461 111.607C266.045 112.897 264.081 115.438 261.855 115.106C261.785 115.107 260.74 114.699 260.705 114.63C260.599 114.457 260.906 113.624 260.731 113.349C260.695 113.28 260.244 113.352 260.174 113.283C259.4 111.8 259.391 110.45 259.691 108.682C259.758 108.301 260.107 108.403 260.14 108.229C260.242 107.848 260.129 106.533 260.232 106.429C260.301 106.359 261.032 106.527 261.101 106.423C261.205 106.318 261.093 105.211 261.195 104.865C262.526 101.325 266.931 94.8221 271.316 95.6579C272.081 95.7912 273.481 97.3049 273.691 97.4073C274.492 97.7135 275.623 95.3174 276.069 94.5182C277.855 91.3562 279.291 87.7811 281.039 84.2039C282.801 82.6689 283.013 78.029 286.009 79.0127C287.506 79.5218 285.159 81.8223 285.056 82.0653C281.943 89.3901 279.423 97.0918 277.215 104.687C276.943 105.589 276.847 106.767 276.608 107.495C276.506 107.773 275.743 107.986 275.745 108.367L275.528 112.245C275.53 112.557 276.226 112.587 276.469 112.585C279.389 112.704 288.096 105.099 290.095 102.662C290.854 101.757 291.435 100.369 292.089 99.4642C292.262 99.2553 292.68 99.391 292.714 99.3215C292.886 99.078 292.673 98.4218 292.811 98.2132C293.258 97.5871 294.702 95.2235 295.327 95.1154L306.727 95.3156L307.253 96.0043C305.599 98.127 303.219 100.774 301.949 103.102C301.262 104.352 300.228 105.64 300.794 107.09C302.004 106.182 303.774 105.686 305.159 104.949C306.544 104.213 309.313 102.498 310.558 101.624C311.907 100.681 317.223 95.3487 318.091 95.1698C323.922 94.1267 316.341 103.766 318.608 104.893C319.445 105.303 329.611 97.723 330.329 95.9181C332.477 94.8998 333.986 91.8781 336.562 92.553C337.432 92.7549 336.686 95.5292 336.517 96.2572C336.348 96.9161 334.805 100.042 334.741 100.804L334.524 104.786C334.528 105.34 336.158 104.775 336.435 104.669C341.6 102.661 348.094 96.8023 351.82 92.7618C351.993 92.5876 351.85 92.0347 351.919 91.965C352.058 91.8602 354.143 91.95 354.285 92.3644C354.711 93.6423 351.789 98.3698 352.574 101.445C352.93 102.793 353.865 102.163 354.247 102.161C354.872 102.157 355.603 102.29 356.158 102.148C357.512 101.931 365.655 98.311 366.17 97.4075C367.716 94.7317 367.489 91.964 370.392 89.5559C371.878 88.2997 376.314 86.5391 377.885 87.567C377.955 87.6011 378.485 88.8437 378.485 88.9129C378.184 90.6458 373.488 95.212 372.003 96.5374C370.068 98.212 368.155 97.9826 369.704 100.88C370.9 103.122 374.575 101.782 376.481 100.973C377.451 100.551 380.741 98.7286 381.883 98.0632C384.687 96.3828 386.723 94.2921 389.143 92.3373C389.592 91.9882 390.217 91.8801 390.494 91.6705C390.632 91.5658 390.489 90.9436 390.593 90.8737C390.696 90.8038 391.184 90.9736 391.392 90.8337C392.256 90.1702 393.012 88.8151 394.192 88.6687C394.678 88.6308 397.251 88.8212 397.428 89.2007C397.569 89.5113 395.481 94.1985 395.831 94.6115C396.006 94.818 398.292 93.7296 398.569 93.5892C400.162 92.7131 403.967 90.0221 405.948 90.078C406.713 90.0728 411.3 90.0073 411.475 90.1792L411.614 90.1437ZM374.531 90.0127C373.837 90.225 370.69 92.5309 371.32 93.1843C372.195 94.0784 374.466 90.8093 374.531 90.0127ZM271.676 97.594C271.258 97.4237 268.967 97.7853 268.724 97.9254C268.482 98.0655 265.761 101.753 265.486 102.205C265.074 102.9 262.844 107.173 262.743 107.623C261.188 114.142 263.681 112.775 266.89 109.43C267.926 108.35 272.162 102.61 272.433 101.535C272.601 100.807 272.478 97.9001 271.711 97.5937L271.676 97.594Z" fill="#F7F6F5"></path><path d="M343.305 37.6723L335.51 46.4134C332.234 50.2085 327.89 55.3955 323.6 58.2975C322.666 58.9269 318.965 61.548 319.813 58.5653C319.95 58.149 325.689 53.7142 326.656 52.8077C331.801 47.823 336.766 42.0433 340.968 36.3381C342.793 33.8681 346.036 30.3154 346.918 27.1941C347.665 24.5236 346.036 25.2269 344.469 24.7875C340.257 23.6389 339.146 23.8195 334.664 24.0574C334.456 24.0588 334.731 23.6069 334.209 23.6104C334.035 23.6116 334.143 24.0263 333.934 24.0277C328.932 24.4421 324.63 25.5096 319.561 26.3053C319.388 26.3064 319.46 26.6867 319.078 26.7239C317.202 26.875 316.531 25.3564 317.952 24.7584C319.165 24.231 322.15 23.6916 323.434 23.3368C324.232 23.1238 324.758 23.8472 324.959 22.7035C327.636 22.8239 330.477 21.5932 333.048 21.4028C338.084 20.9881 343.131 22.0965 348.104 22.5822C348.415 22.407 349.676 18.5908 349.984 17.931C350.395 16.9937 350.802 15.6063 351.248 14.7033C351.454 14.2865 351.908 14.595 352.01 14.352C352.113 14.109 351.9 13.4527 352.072 13.14C352.312 12.6538 355.165 8.09991 355.443 7.95958C357.312 6.94314 357.218 8.46686 357.323 8.53538C357.532 8.63782 358.574 8.52696 358.717 9.07985C358.824 9.52913 358.732 11.2605 358.665 11.711C358.429 12.7164 356.203 17.6122 355.62 18.8969C354.97 20.3206 352.139 23.1435 353.572 24.4146C355.969 24.1562 358.372 24.9015 360.632 25.0248C366.159 25.2991 372.586 24.9096 377.935 24.4236C378.317 24.421 378.279 23.902 378.696 23.8646C380.814 23.6773 396.48 22.5333 397.076 23.187C397.111 23.2213 397.084 24.4331 397.015 24.5374C396.536 25.6483 393.302 25.3586 392.503 25.4332C381.392 26.8234 369.41 28.081 358.352 27.0824C356.3 26.8886 352.083 25.1862 350.494 26.5469C350.286 26.7214 347.882 30.8915 347.814 31.1342C347.066 33.6316 345.719 39.9753 345.527 42.5036C345.27 45.5861 345.225 54.4134 349.982 53.7582C352.899 53.3578 358.078 48.4421 360.012 46.6291C360.461 46.1761 362.53 43.7737 362.704 43.7379C363.363 43.5257 364.895 43.9308 365.066 43.6527C365.204 43.4441 364.628 40.5056 365.485 38.7691C365.554 38.6302 367.837 37.0571 367.976 37.0561C368.358 37.0536 371.076 38.0045 371.459 38.2442C373.902 39.7163 371.952 44.3333 374.039 44.5269C375.638 44.6546 382.395 41.6668 384.022 40.7212C385.026 40.1259 385.225 38.6708 387.386 39.6947C387.456 39.6942 387.32 40.1105 387.495 40.317C387.915 40.7642 388.501 40.0679 388.166 41.9394C388.065 42.4593 387.037 44.5778 386.935 44.9593C386.631 46.2767 385.885 49.0164 387.999 48.0329C388.068 48.0324 387.995 47.4791 388.203 47.4084C389.728 46.7405 391.253 46.1417 392.672 45.3014C394.541 44.1811 397.169 42.2596 399.107 40.9657C399.453 40.7211 400.279 39.5386 400.626 39.5016C401.39 39.4619 402.924 40.0746 402.963 40.8013C403.039 41.6662 400.114 45.9782 399.601 47.1932C399.361 47.7141 397.89 51.2548 397.822 51.4629C397.386 53.7159 397.387 53.9582 399.364 53.3218C404.635 51.5555 409.596 45.1874 412.729 40.7009C412.866 40.4923 412.687 39.6973 412.79 39.5582C413.342 38.8967 419.079 39.3427 420.295 39.2999C422.658 39.1802 425.816 38.5704 428.353 38.5879C428.875 38.5844 431.312 39.2949 431.661 39.5349C431.836 39.6376 429.701 42.6289 429.529 42.907C429.357 43.1851 428.915 44.6073 428.744 44.9546C428.744 45.0238 427.602 45.6546 427.602 45.7238L427.417 49.1866C427.417 49.1866 428.325 49.8382 428.568 49.8712C429.438 50.0384 433.85 49.7318 434.892 49.5863C435.273 49.5145 435.237 49.2032 435.375 49.1676C435.931 49.0601 436.871 49.3306 437.252 49.2242C437.53 49.1531 437.248 48.6012 437.526 48.5647C440.129 47.9587 441.761 47.8439 444.361 46.7879C444.811 46.6118 445.327 45.7775 445.744 45.7747C445.952 45.7733 447.869 46.5565 447.905 46.6602C447.975 46.7981 445.906 49.2698 445.768 49.3746C443.415 50.8789 431.82 52.7224 429.246 52.4974C423.613 52.0507 423.401 46.3406 426.643 42.5803C427.013 40.847 421.183 42.0978 420.036 42.1401C418.682 42.2185 415.896 41.4757 414.722 42.6259C414.377 42.9744 413.555 44.7454 413.072 45.3025C410.106 48.7148 406.725 52.4068 402.605 54.65C400.77 55.6662 397.586 57.6261 395.564 56.7397C393.159 55.6828 395.269 49.0916 396.229 47.1813C396.367 46.9381 396.82 47.1773 396.923 46.9343C397.848 44.9204 394.075 47.1958 393.66 47.4755C393.521 47.5803 393.63 48.2373 393.561 48.2724C393.457 48.3423 392.83 48.1388 392.622 48.2787C390.511 49.6083 387.642 51.8776 384.995 51.0647C384.717 50.9973 383.764 48.7537 383.763 48.6153L384.01 44.079C384.01 44.079 383.729 43.6309 383.591 43.8395C381.618 44.8912 379.296 45.9107 377.181 46.6173C376.453 46.8645 374.125 46.9494 373.535 47.1957C373.258 47.3014 373.435 47.7848 373.366 47.8199C373.089 47.9603 372.566 47.7215 372.289 47.931C371.874 48.2107 371.062 51.4701 370.754 52.1645C369.794 54.144 364.808 62.07 362.278 57.9331C361.927 57.3817 361.029 53.13 361.025 52.4377C361.018 51.4339 361.668 49.9064 361.598 49.7684C361.104 48.7333 358.415 52.0053 357.897 52.3895C354.369 54.9749 349.045 59.0608 345.333 54.9319C344.597 54.1061 342.581 48.8234 342.612 48.2694L343.201 37.7076L343.305 37.6723ZM354.761 15.0604C354.761 15.0604 354.793 14.6448 354.758 14.645C354.478 14.37 354.45 15.3394 354.761 15.0604ZM370.459 44.5164L370.015 40.5386C367.883 38.7183 368.21 40.8277 367.977 42.387C367.978 42.56 367.317 42.4606 367.529 42.9438C367.53 43.013 368.477 44.3913 368.547 44.4254C368.687 44.5283 370.39 44.5515 370.459 44.5164ZM366.261 45.5139C365.984 45.7581 365.012 45.8339 364.943 45.9036C364.667 46.217 363.984 53.1793 364.059 53.975C364.06 54.1827 364.523 55.7719 364.627 55.8058C365.604 56.4569 370.067 48.1883 369.225 47.0517C369.12 46.9139 366.264 46.0331 366.26 45.4793L366.261 45.5139Z" fill="#F7F6F5"></path><path d="M56.4635 39.8122L64.3175 34.6016C67.2294 33.5089 69.5926 33.493 68.6799 37.3068C68.5113 38.0695 67.3376 39.2544 67.0979 39.7752C66.7552 40.5045 66.6256 41.89 66.2487 42.6886C66.146 42.9316 65.6583 42.7619 65.624 42.8313C65.0078 44.2201 63.0235 48.872 63.2063 50.2207C63.5345 52.5032 68.1735 49.8411 69.2805 49.0721C75.1267 45.0519 83.8157 34.8164 90.97 34.0759C93.2622 33.8528 97.9962 34.9632 97.5647 37.9777C97.4984 38.4627 96.7341 38.5025 96.5986 39.0227C96.464 39.6813 96.3101 42.6246 96.384 43.2818C96.6033 44.8727 98.5867 45.2401 100.01 44.9882C102.301 44.5574 104.997 42.3584 106.59 41.5169C109.81 39.7991 113.65 37.1078 117.407 37.6363C118.381 37.7682 118.837 38.3882 119.948 38.3461C120.053 38.3454 121.717 37.7458 121.786 37.6761C121.924 37.5713 124.027 34.961 124.095 34.7874C126.097 27.5393 126.827 22.5151 132.801 16.7633C134.631 14.9855 136.914 13.4471 139.491 14.2259C142.451 15.1059 140.972 17.3659 139.978 19.3803C138.744 21.9156 132.57 28.8457 130.329 31.5608C128.812 33.371 126.422 34.5987 126.408 37.6796C126.409 37.818 126.792 37.8501 126.827 37.9883C127.16 40.9976 127.695 42.9671 129.898 44.9253C132.59 47.2957 134.571 47.4208 138.148 46.9121C139.015 46.7678 140.33 45.9281 141.06 45.8886C141.164 45.8879 143.046 46.6022 143.048 46.9137C143.049 47.0175 141.319 48.2753 141.181 48.3455C133.488 51.755 126.684 47.6124 124.375 40.2202C124.126 39.4257 125.093 38.4846 123.428 38.9112C121.945 40.6173 119.944 42.8808 118.216 44.2425C115.969 45.9884 109.946 49.6982 107.604 47.5678C107.149 47.1901 106.545 45.1865 106.406 45.1528C104.872 44.5054 100.663 49.0684 96.4428 46.8468C96.1289 46.6759 94.9741 45.5067 94.8682 45.2651C94.6565 44.7819 94.1107 41.151 93.9705 40.9788C93.4803 40.4283 92.7596 41.7832 92.6903 41.8182C90.8211 42.9385 86.9408 44.7301 84.8517 44.1557C83.0411 43.6486 84.1282 39.9374 83.1575 40.2901C81.5326 41.5472 80.1184 43.1491 78.5285 44.4406C75.5209 46.8147 68.334 53.0247 64.9313 53.4976C64.48 53.5699 63.1939 53.5439 62.8112 53.4773C61.9412 53.31 60.706 50.5145 60.7699 49.6833C60.9304 47.7091 62.982 42.7107 63.907 40.7313C64.181 40.141 66.1411 37.047 66.0702 36.8398C65.9284 36.4254 63.3297 37.5852 62.6027 38.0055C60.8721 39.0556 56.4906 43.8275 55.139 44.3904C52.7128 45.376 53.2099 41.7726 53.5124 40.2475C53.681 39.4848 55.5087 37.361 53.9791 37.302C53.7706 37.3034 50.5545 39.679 50.2436 39.958C47.5147 42.4341 43.9304 46.889 41.2386 49.711C40.3413 50.6517 37.5525 54.5474 36.3005 54.4174C35.605 54.3528 35.1402 52.4175 35.3095 51.7586C35.5124 50.9265 36.9912 48.5973 37.4362 47.5904C38.7358 44.4663 40.0974 40.234 41.5019 37.213C42.0158 36.1018 43.5001 34.6034 43.9789 33.4578C44.0475 33.3189 44.76 30.7525 44.6551 30.6494C44.2 30.1678 43.4775 31.2458 43.3734 31.2811C41.1544 32.0576 39.46 33.3152 37.2431 34.4032C36.8275 34.6137 31.9122 37.5545 32.4893 35.5083C32.9987 33.7395 36.3003 33.7518 36.8809 32.2248L46.0573 27.2822C46.5424 27.0713 48.0764 27.7879 48.2523 28.0982C48.3579 28.3052 47.713 30.5942 47.6449 30.8023C46.4829 33.7179 44.4563 37.2623 43.0518 40.2833C42.8463 40.7347 43.0592 41.391 42.9226 41.7381C42.8199 41.9811 42.3318 41.742 42.2292 41.985C41.9206 42.6102 40.2406 46.0139 40.4862 46.3584C41.0121 47.0471 48.0127 38.9691 48.4617 38.5507C50.3961 36.8069 53.2974 34.122 55.8809 35.87C55.9156 35.8697 56.651 36.6956 56.6515 36.7648L56.498 39.7774L56.4635 39.8122ZM138.046 16.3125C138.046 16.3125 135.931 17.1576 135.689 17.3323C134.064 18.5894 131.315 23.2464 130.354 24.9837C130.32 25.0531 129.867 24.8485 129.729 25.1263C129.009 26.4812 128.951 28.1777 127.986 29.465L128.82 29.4594C129.955 27.5825 139.065 17.9326 138.046 16.3125ZM93.6643 36.7924C92.4799 36.385 88.389 37.8664 87.3891 39.0501C87.0787 39.3983 85.8089 41.7954 86.0548 42.1745C86.1247 42.2432 87.9288 41.7811 87.9981 41.746C88.0676 41.7455 87.9253 41.2619 88.2024 41.1215C89.6573 40.4194 92.0489 39.4687 93.1892 38.4918C93.6384 38.108 94.5699 37.0978 93.6643 36.7924ZM117.566 40.6814C117.566 40.6814 114.994 40.6295 114.542 40.6326C114.542 40.6326 114.614 41.0129 114.371 41.0491C112.879 41.3361 110.556 42.1825 109.592 43.4698C106.871 47.1574 112.487 45.008 113.941 44.2713C114.114 44.1663 116.64 42.4877 116.778 42.3483C116.847 42.2786 117.636 40.7502 117.566 40.6814Z" fill="#F7F6F5"></path><path d="M227.065 99.3831C225.985 99.0789 226.708 97.9663 227.506 97.7878C229.067 97.4312 230.808 97.9387 232.302 97.7555C232.441 97.7546 234.659 96.8397 235.075 96.7676C236.012 96.5536 239.238 95.5973 239.663 96.8406C239.664 96.9098 239.22 98.0551 239.151 98.1248C238.943 98.2993 234.051 99.5438 233.773 99.5456C232.279 99.5211 228.179 99.7218 227.065 99.4178L227.065 99.3831Z" fill="#F7F6F5"></path><path d="M325.221 75.3909C325.783 76.3217 324.454 80.2076 323.093 79.3168C322.709 79.077 321.228 75.9716 321.78 75.414C322.126 75.0656 325.045 75.0459 325.256 75.3906L325.221 75.3909Z" fill="#F7F6F5"></path><path d="M178.987 76.6185C179.409 77.3425 177.722 79.7078 176.992 79.7127C176.575 79.7155 175.139 78.1328 175.101 77.6485C174.878 75.5384 178.705 76.1357 178.987 76.6185Z" fill="#F7F6F5"></path><path d="M200.235 83.8137C201.629 84.5312 201.824 87.6453 201.521 89.032C200.847 92.1519 196.683 98.2377 194.546 100.917C192.788 103.145 191.636 102.322 191.87 106.128C191.871 106.232 192.3 108.029 192.37 108.132C193.185 110.377 195.378 110.985 197.567 110.866C201.944 110.595 210.224 106.662 213.843 107.33C213.877 107.33 214.714 107.774 214.75 107.843C215.457 109.673 210.42 109.984 209.414 110.302C202.894 112.388 195.142 117.148 190.262 109.843C190.086 109.567 190.361 109.046 190.22 108.839C190.185 108.77 189.699 108.842 189.664 108.774C189.382 108.291 189.651 106.835 188.538 106.808C188.226 106.81 184.805 109.741 184.147 110.161C180.341 112.644 173.732 116.877 169.206 115.661C169.101 115.662 168.015 114.354 167.909 114.147C166.18 110.212 168.134 106.184 169.117 102.543C169.286 101.849 170.171 99.0047 169.751 98.6268C169.262 98.2147 168.815 99.0139 168.434 99.0857C166.976 99.3378 164.442 99.8741 163.088 99.9871C162.08 100.063 156.516 99.5813 156.24 99.8255C155.86 100.174 156.671 101.83 156.536 102.524C156.237 104.464 153.841 110.019 152.463 111.724C151.911 112.42 149.042 114.759 148.173 114.73C147.583 114.734 146.655 111.244 146.755 110.482C147.149 107.121 149.097 102.262 150.431 99.0685C150.568 98.7214 150.39 98.0995 150.492 97.8565C150.526 97.7524 152.261 97.2215 151.246 96.2245C150.826 95.8119 145.429 99.4483 144.667 99.8688C142.902 100.885 140.718 101.661 139.094 103.056C137.469 104.452 136.789 106.568 135.304 107.963C135.165 108.068 132.745 109.884 132.606 109.954C130.978 110.761 130.103 109.729 130.508 108.03C130.98 105.915 134.895 103.985 135.239 103.463C135.651 102.803 136.292 99.9599 134.801 100.455C134.177 100.666 128.121 109.673 126.984 111.065C124.778 113.78 117.813 121.996 115.148 123.641C114.733 123.886 113.138 124.52 112.787 123.934C111.873 122.451 115.992 120.035 116.89 119.129C122.861 113.066 128.024 105.589 133.295 98.6646C133.143 96.7964 132.749 95.0337 132.528 93.1313C132.527 92.9929 132.144 92.9608 132.143 92.8224C132.02 89.9501 135.343 82.8661 139.029 83.2221C139.134 83.2214 141.049 83.8315 141.154 83.9001C141.468 84.1056 141.856 84.8992 141.893 85.3143C142.19 88.1162 139.616 92.9105 138.244 95.5505C138.072 95.8978 136.692 97.3956 136.659 97.5689C136.454 98.1934 137.758 100.815 137.967 100.883C138.141 100.951 140.944 99.2362 141.464 98.9558C142.191 98.5701 143.436 97.5925 144.197 97.1374C145.755 96.2615 151.986 92.5502 153.307 92.576C153.411 92.5753 155.464 92.9768 155.534 93.0456C155.919 93.4584 153.957 96.3101 155.84 97.1628C155.979 97.2311 158.52 97.837 158.66 97.8707C160.328 97.9633 167.237 96.8783 168.763 96.418C169.596 96.1701 171.322 94.5662 172.504 94.489C172.99 94.4857 174.242 94.6503 174.488 94.9949C174.558 95.0982 173.982 97.2483 173.948 97.387C172.277 102.175 170.563 105.579 169.728 110.708C169.527 111.851 170.023 113.198 171.24 113.259C174.369 113.411 185.131 106.519 187.372 103.943C187.821 103.42 188.586 103.485 188.823 102.652C189.095 101.681 188.844 100.575 189.046 99.6738C189.282 98.5298 189.931 96.7947 190.339 95.5804C190.51 95.0254 190.331 94.2651 190.467 93.918C190.57 93.675 191.058 93.914 191.161 93.671C191.981 91.6924 195.06 84.4024 197.001 83.6624C197.903 83.3101 199.466 83.2996 200.338 83.7437L200.235 83.8137ZM198.618 86.2823C198.165 86.1468 197.336 86.914 197.129 87.1923C196.302 88.2363 193.765 93.3765 193.425 94.5211C193.324 94.9026 192.615 98.092 192.721 98.2298C193.212 98.9534 193.892 96.6642 193.961 96.5945C196.164 93.4988 198.54 90.1944 198.618 86.2823ZM139.636 85.5026C138.13 83.8166 136.182 88.7105 135.977 89.2311C135.943 89.3352 135.42 89.131 135.352 89.3738C134.704 91.109 133.812 98.0035 136.77 93.4835C137.561 92.2666 139.687 87.9254 139.852 86.6089C139.884 86.2625 139.846 85.7435 139.636 85.5026ZM153.344 103.341C153.548 102.544 154.577 100.633 153.877 99.876C153.002 98.9473 152.126 103.038 151.887 103.663C151.785 103.94 150.996 105.503 150.928 105.711C150.724 106.405 151.01 107.649 150.736 108.24C150.565 108.656 149.973 108.487 149.904 108.591C149.594 109.009 149.636 110.012 150.466 109.488C151.885 108.578 152.903 104.936 153.345 103.376L153.344 103.341Z" fill="#F7F6F5"></path></g><path d="M65.749 64.1189C67.4398 62.9499 65.916 63.096 64.2878 63.1795C61.0941 63.3256 57.9212 63.1169 54.6648 63.3465C51.158 63.597 47.5676 63.6179 44.019 63.764C41.4723 63.8684 39.1135 63.2421 36.5669 63.597C31.9746 64.2232 27.3614 63.6805 22.7691 64.0354C21.5792 64.1397 20.3685 64.1815 19.1787 64.1189C18.5734 64.0771 17.8428 64.0562 17.3 64.1606C13.4592 64.9121 9.53484 64.6407 5.69399 64.5155C3.06385 64.432 1.70703 65.0373 0.308458 65.7053C-0.255145 65.9767 -0.0464024 66.1645 0.934684 66.2689C3.1056 66.4985 5.33913 66.1645 7.53092 66.3524C10.8917 66.6446 14.2942 66.1436 17.6549 66.1854C22.1846 66.248 26.6934 65.8932 31.2649 65.914C33.7489 65.9349 36.6921 66.1228 39.3014 65.58C39.5728 65.5174 39.9276 65.4965 40.2199 65.5174C44.2277 65.7262 48.2564 65.3713 52.2643 65.3922C55.3328 65.3922 58.4222 65.0999 61.5324 65.3296C63.2232 65.4548 65.1436 65.1834 66.9806 65.1417C72.8045 65.0164 78.6492 65.0373 84.4314 64.7242C88.8776 64.4946 93.3655 64.7033 97.77 64.2232C98.1248 64.1815 98.5214 64.2232 98.8972 64.2232C100.838 64.3276 102.571 64.4528 104.7 64.0771C107.038 63.6596 109.647 64.2232 112.236 64.0771C114.615 63.931 117.204 64.2024 119.375 63.8892C121.817 63.5344 124.197 63.8892 126.639 63.4718C127.662 63.2839 129.874 62.8873 131.231 63.5344C131.357 63.597 131.732 63.6179 131.941 63.5761C135.677 62.9708 139.393 63.6388 143.109 63.3674C143.213 63.3674 143.422 63.4091 143.464 63.3883C145.405 62.5115 147.931 63.4509 150.039 62.8873C150.77 62.6994 151.938 62.6785 152.815 62.7412C154.047 62.8038 155.007 62.8664 155.988 62.3863C156.197 62.2819 157.741 62.5115 158.597 62.6577C160.956 63.0334 163.378 62.8247 165.674 62.5324C167.531 62.3028 168.972 62.6785 170.579 62.7412C172.479 62.8247 173.731 62.6994 174.587 62.0732C176.361 62.762 178.678 62.4489 180.766 62.3863C183.521 62.3028 186.297 61.6766 189.011 62.2819C191.203 61.5305 193.791 62.3237 196.025 61.8436C196.797 61.6766 197.256 61.6974 198.049 61.8436C199.594 62.1149 201.306 62.2193 202.892 61.6557C203.978 61.28 205.335 61.5513 206.566 61.4052C207.526 61.28 208.299 61.0295 209.76 61.4052C211.284 61.8018 214.06 61.5722 216.252 61.4052C217.963 61.3008 219.759 61.28 221.429 60.7372C222.201 60.4867 224.455 60.6746 225.666 60.9251C228.317 61.4887 231.072 60.9669 233.744 61.0086C234.287 61.0086 234.746 60.9042 234.35 60.6955C233.118 60.0901 234.892 60.0066 235.56 59.7979C235.957 59.6727 236.75 59.6935 237.084 59.9023C237.376 60.0901 236.855 60.2154 236.5 60.3198C236.166 60.4241 235.874 60.5285 236.061 60.6955C236.291 60.8834 236.792 60.7999 237.23 60.8207C241.384 61.0295 245.622 60.2989 249.755 60.6955C250.694 60.779 251.634 60.612 252.489 60.4033C252.907 60.2989 253.199 60.1945 253.032 59.9858C252.886 59.7979 251.821 59.7144 252.489 59.4639C253.116 59.2343 253.575 59.5892 254.097 59.6727C258.146 60.2571 262.175 60.0901 266.204 59.3804C266.663 59.2969 267.06 59.3178 267.498 59.3178C270.525 59.3178 273.551 59.5057 276.62 59.276C276.912 59.2552 277.33 59.3595 277.58 59.443C279.688 60.1319 281.985 59.9231 284.302 59.5057C285.011 59.3804 285.638 59.1925 286.452 59.276C288.226 59.4222 289.958 59.5265 291.754 59.0673C292.693 58.8168 293.57 59.276 294.613 59.2552C297.932 59.1925 301.189 59.1717 304.508 58.7542C306.157 58.5454 308.098 58.8377 309.914 58.8168C310.874 58.8168 312.315 59.0464 312.711 58.3367C312.878 58.0236 313.087 58.295 313.212 58.3367C316.009 59.3595 319.015 59.0047 322.418 58.5872C324.255 58.3576 326.53 58.2532 328.659 58.4411C330.788 58.6289 332.876 58.128 334.984 58.0653C337.155 57.9818 339.305 58.2741 341.539 57.961C343.563 57.6687 345.755 58.1071 347.696 57.7731C351.203 57.1886 354.585 57.8566 357.883 57.627C361.16 57.3974 364.563 57.4809 367.757 56.9381C369.406 56.6668 371.305 56.7085 372.725 56.8546C375.396 57.1469 377.922 56.7711 380.511 56.792C381.951 56.792 383.391 56.6668 384.832 56.6042C385.27 56.5833 385.854 56.6042 386.126 56.4998C388.61 55.4978 391.115 56.1449 393.432 56.4163C394.58 56.5415 395.269 56.3745 396.062 56.2075C396.876 56.0614 396.479 55.7901 396.229 55.5604C395.916 55.2891 396.417 55.2265 396.939 55.143C397.607 55.0595 397.857 55.143 397.878 55.4143C397.961 56.0823 398.963 56.3328 400.612 56.291C402.867 56.2284 405.121 56.2493 407.417 56.1449C410.319 56.0197 413.262 56.124 416.164 55.9988C418.919 55.8944 421.946 56.1032 424.159 55.0595C424.639 54.8507 424.973 55.143 425.056 55.2473C425.474 55.7901 426.559 55.8318 427.624 55.6857C429.502 55.4561 431.423 55.5187 433.343 55.2891C435.577 55.0177 438.165 55.1638 440.545 55.2473C441.943 55.2891 443.175 55.0177 444.281 54.7463C445.074 54.5585 444.532 54.141 444.281 53.8488C443.843 53.3687 442.862 53.1599 441.422 53.1599C439.501 53.1599 437.602 53.2434 435.827 53.3269C433.99 53.3895 432.237 53.8696 430.337 53.64C429.732 53.5565 429.043 53.4104 428.709 53.8488C428.584 54.0158 428.083 53.974 427.791 53.8488C427.665 53.807 427.561 53.7235 427.457 53.6818C425.348 54.4124 424.159 53.3269 422.322 53.3687C420.276 53.4104 418.439 53.5774 416.665 53.974C415.934 54.141 415.078 54.2662 414.515 54.0784C412.135 53.3478 409.442 53.7653 406.896 53.8905C404.954 53.9949 403.159 54.0158 401.218 53.8696C399.506 53.7444 397.523 53.807 395.77 53.9949C391.532 54.4332 387.378 54.0992 383.183 54.1827C381.012 54.2245 379.008 54.7046 376.795 54.642L372.85 54.5376C372.599 54.5376 372.244 54.4541 372.14 54.4959C370.032 55.2473 367.631 54.809 365.398 54.8716C364.02 54.9133 363.143 55.4978 362.162 55.4143C358.969 55.1221 355.837 55.6231 352.685 55.5813C351.683 55.5813 351.203 55.143 349.951 55.2682C348.782 55.3934 347.738 55.1638 346.486 55.7483C345.567 56.1867 343.104 55.8109 341.476 55.6857C338.449 55.4352 335.673 55.6439 332.876 56.1449C332.73 56.1658 332.479 56.2284 332.437 56.2075C329.348 55.1638 326.3 56.6459 323.232 56.458C322.814 56.4372 322.334 56.4998 321.917 56.458C317.826 56.1449 313.672 56.4372 309.538 56.5624C308.453 56.6042 307.514 56.7085 306.449 56.9381C305.197 57.2095 303.276 56.9799 301.669 56.8964C299.415 56.792 297.16 56.7711 294.947 57.0843C294.238 57.1886 293.716 57.3139 293.048 57.126C290.856 56.5207 289.458 56.5833 287.287 57.293C286.577 57.5226 285.7 57.6687 284.782 57.5644C282.235 57.3139 279.73 57.3974 277.246 57.8566C276.599 57.9818 276.223 57.7522 275.722 57.6896C273.447 57.4182 271.297 57.2095 268.688 57.627C265.598 58.128 262.238 58.3158 258.919 58.2323C258.668 58.2323 258.355 58.128 258.209 58.0236C257.624 57.6687 256.748 57.6061 255.934 57.8357C254.786 58.1697 256.247 58.3576 256.33 58.7542C254.639 58.1697 252.51 58.6289 250.903 58.3993C248.043 57.9818 245.33 58.5663 242.553 58.5246C240.382 58.4828 238.065 58.8586 235.936 58.7542C232.68 58.6081 229.486 59.2343 226.188 58.8794C223.913 58.6498 221.804 59.1717 220.406 60.0066C220.176 59.9231 220.03 59.9023 220.03 59.8605C220.218 58.8794 219.654 58.7333 217.024 58.9212C213.58 59.1717 210.177 59.5474 206.691 59.61C205.669 59.61 205.669 59.9858 205.23 60.2363C204.875 59.5265 203.164 59.777 202.287 59.7562C200.972 59.7562 199.803 59.6309 198.571 59.5474C197.235 59.443 195.795 59.4848 194.48 59.7353C192.121 60.1945 189.533 60.2154 187.091 60.5076C186.026 60.6329 185.629 60.0901 184.941 60.2363C182.394 60.779 179.972 60.5285 177.488 60.3824C176.904 60.3406 176.445 60.5702 176.048 60.7372C174.023 61.614 172.813 61.6557 170.746 60.8834C170.182 60.6746 169.828 60.111 168.7 60.7581C168.408 60.9251 168.116 60.6746 167.845 60.612C167.302 60.445 166.801 60.4033 166.196 60.6537C164.839 61.2173 163.524 61.0712 161.728 60.9877C159.098 60.8834 156.406 60.111 153.546 60.9251C153.003 61.0712 152.815 60.8416 152.439 60.7999C150.916 60.5911 149.329 60.445 147.91 60.9669C147.242 61.2173 146.616 60.9669 145.968 61.0921C143.15 61.6348 140.416 61.0295 137.577 61.2173C136.032 61.3217 134.592 61.5931 132.985 61.614C131.419 61.614 130 61.7601 128.351 61.5722C126.931 61.4052 124.927 61.447 123.445 62.0106C122.923 62.1984 122.339 62.1984 121.754 62.0106C119.959 61.4678 116.056 61.5931 114.469 62.2402C113.968 62.4489 113.634 62.3445 113.405 62.1984C112.653 61.7392 111.547 61.7601 110.399 61.9271C108.875 62.1776 107.623 61.614 105.994 61.9271C103.656 62.3446 101.172 62.2819 98.6467 62.3028C94.3049 62.3446 89.8795 62.3445 85.5168 62.7203C83.5755 62.8873 81.5716 62.7203 79.6721 63.263C79.0458 63.43 77.4594 63.4926 76.3739 63.096C75.7686 62.8873 74.2657 62.6577 73.5977 63.3465C73.4933 63.4509 73.3054 63.4718 72.9923 63.4509C70.3204 63.27 67.913 63.4857 65.7699 64.098L65.749 64.1189Z" fill="#F2F0EE"></path><defs><clipPath id="clip0_526_180"><rect width="423.811" height="198.932" fill="white" transform="translate(23.8589 2.85474) rotate(-0.385921)"></rect></clipPath></defs></svg> 