<svg width="47" height="47" viewBox="0 0 47 47" fill="none" xmlns="http://www.w3.org/2000/svg">
<path d="M20.7046 0.497412C40.1978 -1.72976 53.6862 19.2744 43.5259 36.0002C29.9581 58.3512 -6.62455 42.3912 1.23787 16.9415C3.74715 8.85153 12.2171 1.46575 20.7046 0.497412ZM39.2028 39.0813C53.4837 24.0544 41.0078 -2.09069 19.9298 2.25803C3.4654 5.65601 -3.64863 25.2517 7.35699 38.1305C15.0433 47.1273 30.9883 47.7083 39.2028 39.0725V39.0813Z" fill="#F2F0EE"/>
<path d="M10.3859 37.4175C7.5773 34.7766 4.0555 28.8081 5.35857 24.8643C5.95727 23.0597 9.9369 21.9505 11.4865 20.8501C12.7808 19.9346 14.0838 18.2004 15.3076 17.0648C16.9981 15.5067 19.7451 14.5207 19.9476 11.5541C20.0973 9.3269 17.4912 7.35501 19.7275 5.42714C20.9777 4.1683 25.4152 4.43239 27.2553 4.70528C36.4825 6.05215 43.9311 16.8535 43.1475 25.8943C41.7475 41.9599 21.6557 48.0076 10.3947 37.4175H10.3859ZM25.9963 12.3287C24.1738 14.5823 25.9259 18.1036 29.0515 18.0595C36.4472 17.9539 29.3596 8.1737 25.9963 12.3287ZM17.7025 21.123C16.2937 21.5632 15.9944 25.2252 18.0282 25.2781C21.867 25.3837 20.7048 20.1811 17.7025 21.123ZM33.577 27.7429C34.9769 28.6848 36.4736 28.2359 37.495 27.0035C38.305 24.8819 36.729 22.9717 34.5807 22.8572C32.8726 23.8696 32.6085 26.0791 33.5682 27.7429H33.577ZM23.2141 27.919C19.7539 28.9489 19.7627 37.3999 25.5649 36.2027C31.7192 34.9262 27.9157 26.5281 23.2141 27.919ZM14.4096 32.8575C15.4133 31.3874 13.2914 29.2306 11.5041 29.9525L11.9003 33.1568C12.3669 33.5529 14.2159 33.1392 14.4096 32.8575Z" fill="#F2F0EE"/>
</svg>
