<svg width="86" height="79" viewBox="0 0 86 79" fill="none" xmlns="http://www.w3.org/2000/svg">
<path d="M35.0887 23.8664C43.6538 19.7804 64.4548 23.8664 64.4548 38.8482C64.4548 55.6459 41.2066 62.0019 31.8258 53.83C22.4449 45.6581 26.5235 27.9523 35.0887 23.8664Z" fill="#391D0D"/>
<path d="M20.5273 15.6429C2.91972 31.5646 5.48273 42.0918 13.347 57.5275C16.0273 62.7885 22.3233 64.764 24.5133 65.5221C31.4229 67.9139 38.7486 70.8228 46.2377 70.8228C62.9637 70.8228 77.0863 60.7935 77.0863 43.0591C77.0863 32.0348 73.9149 18.7812 64.9641 11.8194C59.3151 7.42578 50.6204 5.91041 43.2831 5.91041C35.0625 5.91041 25.026 7.57016 19.0387 13.5574C16.7332 15.8629 14.8777 18.4055 13.3469 21.1609C11.5751 24.3503 10.4967 29.3184 8.43724 31.8928C6.77283 33.9733 8.26345 43.2147 8.26345 45.7964C8.26345 50.8756 8.97413 53.0399 11.218 57.5275C13.2883 61.6681 15.3265 65.0251 18.6042 68.3028C22.376 72.0746 27.5572 73.3733 32.1168 75.9063C36.1155 78.1278 41.7004 75.9063 46.2377 75.9063C50.8828 75.9063 58.8979 76.7196 63.0273 74.0918C67.7136 71.1096 72.1864 70.9843 74.5273 65.5221C77.6431 58.252 84.125 53.4128 84.125 45.4053C84.125 35.0433 85.3891 23.5113 77.5208 15.6429C74.8555 12.9777 71.5281 11.3013 68.8745 8.64768C65.0818 4.85506 60.4112 4.92969 55.9702 2.95589C54.1064 2.12755 51.311 3.04456 49.3225 2.73865C46.4725 2.30018 44.0677 2.00002 41.1107 2.00002C36.7409 2.00002 30.6151 3.90545 26.425 5.30212C22.1784 6.71767 19.0067 9.56466 14.9111 11.3849C12.3728 12.5131 7.63822 18.7286 7.48137 21.552C7.383 23.3226 6.2372 25.3454 5.48272 27.0699C4.8891 28.4268 4.19517 33.253 3.17994 34.0652C1.83796 35.1388 2.00682 43.8644 2.00683 45.7964" stroke="#391D0D" stroke-width="3" stroke-linecap="round"/>
</svg>
