<svg width="939" height="13" viewBox="0 0 939 13" fill="none" xmlns="http://www.w3.org/2000/svg">
<path d="M2 10.9988C51.3066 10.9988 100.613 10.9988 149.92 10.9988C177.406 10.9988 204.839 11.0643 232.269 10.2262C261.402 9.33609 290.298 6.09037 319.498 6.09037C344.691 6.09037 369.168 5.66314 394.231 3.81794C418.964 1.99705 444.185 2 469.024 2C508.564 2 547.588 6.09037 587.015 6.09037C627.898 6.09037 668.543 7.72651 709.408 7.72651C743.215 7.72651 776.703 6.09037 810.501 6.09037C833.723 6.09037 857.113 6.90844 880.177 6.90844C899.324 6.90844 917.941 8.54459 937 8.54459" stroke="#8A8F63" stroke-width="3" stroke-linecap="round"/>
</svg>
