<svg width="807" height="11" viewBox="0 0 807 11" fill="none" xmlns="http://www.w3.org/2000/svg">
<path d="M533.757 2.42534C534.192 2.22509 535.106 2.12891 536.416 2.20319L536.808 2.22533C538.266 2.30756 539.834 2.396 541.401 2.53335C543.109 2.68309 544.819 2.71655 546.389 2.63094C547.958 2.60347 548.678 2.26855 548.69 1.62899C550.259 1.60151 551.256 1.67918 551.534 2.03361C551.814 2.3299 551.949 2.68154 551.941 3.08854C554.507 3.13873 555.364 3.03917 554.799 2.79545C554.091 2.54894 553.955 2.19729 554.392 1.74052L558.668 1.82417C558.945 2.23674 559.367 2.53582 559.789 2.8349C560.211 3.13398 560.917 3.43863 561.907 3.86515C563.475 3.89582 564.191 3.73533 564.198 3.38648L564.22 2.28177C567.639 2.40683 570.062 2.45423 571.346 2.42118C572.63 2.38814 574.479 2.65695 577.032 3.34671C578.6 3.37738 579.601 3.22247 579.892 2.93734C580.182 2.6522 580.614 2.428 581.331 2.26751C581.896 2.51123 583.176 2.71076 584.882 2.91864C586.59 3.12653 587.733 2.97441 588.457 2.40693C589.739 2.49016 590.019 2.72831 589.584 3.12694C589.148 3.52558 589.286 3.76093 590.283 3.83859C591.861 3.34598 593.433 3.14409 595 3.2329C596.446 3.31487 597.534 3.09255 598.152 2.51802C598.188 2.46894 598.237 2.41853 598.297 2.36675C598.252 2.41965 598.203 2.47006 598.152 2.51802C597.746 3.06199 598.773 3.44229 601.122 3.70165L608.663 4.54714C609.386 4.0378 610.817 3.77497 613.096 3.87773C615.376 3.98048 617.23 3.95859 618.516 3.80926C618.519 3.63483 618.235 3.57111 617.808 3.56274L616.383 3.53486C616.383 3.53486 615.385 3.51534 614.959 3.39069C614.533 3.32419 614.536 3.14976 615.254 2.93113C617.538 2.80131 619.104 2.89013 620.242 3.02872C621.38 3.16731 622.66 3.36683 624.228 3.3975C623.225 3.61056 623.079 3.7822 623.504 3.96499C623.928 4.14778 624.208 4.38593 624.2 4.79293C625.204 4.52173 626.634 4.31704 628.63 4.29794C630.627 4.27883 632.766 4.26252 634.763 4.24341C636.759 4.2243 638.471 4.19962 639.898 4.11122C641.326 4.02282 641.758 3.79861 641.053 3.37767C642.905 3.47206 645.182 3.6911 647.601 3.97107C650.019 4.25105 652.582 4.47566 655.144 4.70028C657.706 4.9249 660.129 4.9723 662.411 4.95877C664.835 4.94803 666.694 4.69356 668.27 4.25909C669.837 4.34791 670.83 4.6 671.394 4.96001C671.815 5.31723 672.378 5.67723 672.942 5.9791C675.231 5.61671 677.516 5.42876 680.084 5.36266C682.652 5.29656 685.079 5.1114 687.651 4.87087C688.644 5.12296 689.351 5.42762 689.77 5.84298C690.19 6.25834 690.896 6.62114 691.888 6.93137C691.598 7.15836 690.74 7.31606 689.597 7.41004C688.312 7.50123 687.029 7.47613 685.606 7.33196C684.182 7.24594 682.901 7.10456 681.622 6.90504C680.343 6.70552 679.776 6.51994 679.781 6.28737C679.064 6.44785 678.633 6.61391 678.059 6.83533C677.627 7.05954 677.053 7.22281 676.479 7.38608C674.632 7.05912 672.784 6.79031 671.36 6.70428C669.793 6.61547 669.228 6.3136 669.523 5.85404C667.951 5.99779 666.521 6.20248 665.231 6.58438C663.94 6.96629 662.37 7.0519 660.52 6.84122C659.237 6.81613 658.667 6.80498 658.67 6.68869C658.671 6.63055 658.673 6.51426 658.96 6.40355C658.963 6.28727 659.25 6.17656 659.395 6.06307C659.54 5.94957 659.114 5.82492 658.262 5.63376C656.691 5.77751 655.691 5.87428 655.26 6.04035C654.829 6.20641 653.835 6.01246 652.704 5.52501C651.135 5.55249 650.419 5.71297 650.84 6.01205C651.05 6.16041 651.4 6.25428 651.927 6.30855C652.661 6.3333 653.39 6.35275 654.113 6.36689C653.179 6.37793 652.462 6.36368 651.927 6.30855C649.187 6.21618 646.379 6.05011 643.572 5.8117C640.014 5.50943 636.73 5.73601 633.862 6.55238C632.294 6.52171 631.156 6.38312 630.306 6.07567C629.457 5.76823 628.891 5.52451 628.183 5.278C626.612 5.42175 626.324 5.5906 627.174 5.8399C628.025 6.0892 627.879 6.26084 626.735 6.41296C624.458 6.19392 622.322 6.03581 619.9 5.93027C617.478 5.82473 616.06 5.44799 615.502 4.79727C613.931 4.94102 612.782 5.38385 612.197 6.12855C604.65 5.57378 597.24 5.37064 590.11 5.40566C582.98 5.44067 575.997 5.2459 569.448 4.71064C565.304 5.15306 560.739 5.2964 555.466 5.13509C550.336 4.97657 545.063 4.81526 539.647 4.70931C531.797 4.61193 523.813 4.56623 515.696 4.51976L514.84 4.51485C506.571 4.46942 498.304 4.30769 490.039 4.02969C489.181 4.18738 488.607 4.35066 488.603 4.58323C475.344 4.49834 461.802 4.29159 447.834 4.01834C433.865 3.74508 421.459 3.79321 410.757 4.22366C407.915 3.70275 403.641 3.50282 397.794 3.56292C391.947 3.62303 387.236 3.87987 383.379 4.26973C372.408 3.82246 361.003 3.71568 349.449 3.95497C337.894 4.19425 325.06 4.29216 311.229 4.25427C310.521 4.00775 309.812 3.81938 309.101 3.68916C308.391 3.55893 307.825 3.3152 307.546 3.01891C306.54 3.40639 305.537 3.67759 304.25 3.88507C302.962 4.09254 301.106 4.23072 298.539 4.23867C298.545 3.96577 298.927 3.70024 299.803 3.49249C297.252 4.05483 294.02 4.32741 289.839 4.3593C285.561 4.39194 281.71 4.43294 278.288 4.42416C277.579 4.23579 277.299 3.9395 277.307 3.53251C277.315 3.12551 276.893 2.82643 275.899 2.63248C274.897 2.84553 274.463 3.12788 274.456 3.53488C274.448 3.94188 273.873 4.16329 272.587 4.31263C271.305 4.22939 269.88 4.20151 268.168 4.22619C266.457 4.25087 264.886 4.33649 263.46 4.36675C262.033 4.39701 260.749 4.43005 259.752 4.41054C258.754 4.39102 258.044 4.26079 258.048 4.02822C256.484 3.82312 255.77 3.86733 255.764 4.15804C255.759 4.44875 255.47 4.6176 254.754 4.77808C250.34 4.45907 246.064 4.37542 241.783 4.52435C237.504 4.61511 233.367 4.76681 229.229 4.9185L229.228 4.91855C225.09 5.07026 221.096 5.16661 217.245 5.20761C213.252 5.24582 209.405 5.05425 205.705 4.69104C204.412 5.18923 202.982 5.39392 201.417 5.24696C199.851 5.1 198.281 5.18562 196.703 5.67823C191.996 5.76064 187.576 5.73235 183.3 5.6487C179.024 5.56505 175.17 5.78048 171.739 6.23684C166.462 6.3081 161.329 6.26586 156.627 6.11571C151.925 5.96555 148.354 6.2447 145.775 6.89222C139.505 6.71139 133.517 6.65243 127.809 6.88975C122.102 7.06893 116.536 7.30904 111.113 7.55194C105.548 7.79205 100.268 7.97959 94.9898 8.109C89.8541 8.24119 84.8665 8.08546 80.1709 7.58644C78.5996 7.7302 78.3111 7.89905 79.4457 8.21207C80.5802 8.52509 80.4332 8.75487 79.1458 8.96235C69.0248 8.82252 59.1843 8.92084 49.1978 9.1908C39.2113 9.46076 29.6525 9.73908 20.2361 10.0202C18.6648 10.164 17.9533 10.0919 17.959 9.80115C17.9647 9.51044 17.683 9.33043 16.9738 9.14206C15.6853 9.40768 14.3991 9.55701 13.2599 9.47657C11.9771 9.45147 10.6966 9.31009 9.27351 9.16592L5.00433 8.73342C3.58127 8.58925 2.29962 8.50601 1.01681 8.48092C0.313241 8.00184 0.605132 7.65856 1.46375 7.50086C2.32236 7.34316 2.61312 7.05802 1.90841 6.63708C5.61543 6.65144 8.02941 7.16398 9.00781 8.17192C10.2918 8.13888 10.8642 8.03374 10.8664 7.91746C10.8687 7.80117 10.5859 7.67932 10.1618 7.49653L10.1617 7.49652C9.73754 7.31373 9.16965 7.18629 8.4604 6.99792C7.89367 6.81234 7.46949 6.62954 7.47404 6.39697C8.47177 6.41649 9.04304 6.3695 9.33152 6.20065C9.62 6.0318 10.335 5.92945 11.1913 5.88804C13.4719 5.93266 14.4616 6.35918 14.4468 7.11503C16.0193 6.91313 18.163 6.66424 20.8768 6.4265C23.5906 6.18877 26.447 5.95382 29.5872 5.7826C32.7275 5.61137 35.7242 5.4955 38.7197 5.43777C41.7152 5.38004 44.4222 5.49116 46.9832 5.77392C47.981 5.79343 48.4143 5.51109 48.4245 4.9878C59.6892 4.97551 70.3872 4.77764 80.2323 4.44675C90.0774 4.11586 100.637 3.68263 111.626 3.19961C111.908 3.37962 112.619 3.4517 113.76 3.47401L117.038 3.53814C118.178 3.56045 119.033 3.57717 119.601 3.70461C120.17 3.77391 120.594 3.9567 120.59 4.18927C121.882 3.74923 123.17 3.48361 124.598 3.3952C126.025 3.3068 127.452 3.27654 128.877 3.30443C130.303 3.33231 131.585 3.35741 132.87 3.26622C134.154 3.23317 135.015 2.95918 135.737 2.50798C137.587 2.71866 139.865 2.87956 142.57 3.10696C145.274 3.33437 147.419 3.02734 149.004 2.18588C149.994 2.61239 150.989 2.74819 152.131 2.71236C153.272 2.67652 154.13 2.57697 154.987 2.47741C155.702 2.37507 156.416 2.33087 157.13 2.28667L157.13 2.28667C157.7 2.29782 158.266 2.4834 158.542 2.95411C161.116 2.5973 164.115 2.36515 167.683 2.20229C171.251 2.03942 174.238 2.38869 176.359 3.30265C178.234 2.23419 182.092 1.7862 187.651 1.89494L187.635 2.70894C194.919 2.09529 202.342 1.65886 210.045 1.51871C217.747 1.37857 225.592 1.24121 233.435 1.22014C241.278 1.19907 249.122 1.11986 256.822 1.096C264.522 1.07214 271.942 0.810133 279.224 0.31277C279.793 0.382065 280.788 0.517867 282.069 0.659247C283.35 0.800626 284.489 0.881074 285.628 0.961523C286.768 0.983829 287.623 1.00056 288.481 0.901003C289.196 0.79866 289.628 0.57446 289.636 0.167462C292.478 0.630226 295.469 0.805064 298.894 0.697557C302.174 0.5873 305.597 0.479829 309.02 0.37236L309.024 0.372244L309.024 0.37223C312.448 0.264726 315.872 0.157225 319.152 0.163214C322.431 0.169203 325.563 0.404976 328.405 0.925882C329.408 0.654688 330.552 0.502566 332.12 0.533238L336.824 0.625252L341.1 0.708901C342.382 0.733996 343.242 0.518155 343.963 0.125099C345.242 0.324596 346.379 0.521303 347.515 0.718012L347.516 0.718088C348.653 0.914821 348.93 1.3274 348.635 1.8451C349.347 1.85905 349.635 1.74834 349.64 1.45763L349.653 0.818057C353.36 0.832411 357.069 0.730479 360.493 0.622971L360.494 0.622961C363.918 0.515456 367.342 0.407954 370.622 0.355801C373.903 0.303648 377.182 0.309637 380.317 0.429121C383.453 0.490465 386.441 0.781586 389.284 1.24435C390.282 1.26387 390.569 1.15316 390.432 0.859661C390.295 0.56616 390.441 0.394521 390.73 0.22567C395.152 0.13768 399.713 0.226904 404.415 0.377061L404.843 0.390719C409.394 0.536104 413.812 0.67721 418.096 0.761025C422.515 0.847463 426.506 0.925534 430.072 0.820814C433.638 0.774237 436.781 0.486726 439.357 0.0136331C445.62 0.543316 453.6 0.815748 463.152 0.88628C472.704 0.956812 480.973 1.00225 487.961 0.964448C488.53 1.03374 488.81 1.27189 488.662 1.55982C488.514 1.84774 489.079 2.09146 490.218 2.17191C490.932 2.12771 491.221 1.95886 491.225 1.72629L491.239 1.02858C494.944 1.15922 498.508 1.17078 501.648 0.999555C500.921 1.74147 501.337 2.33126 502.614 2.64706C504.179 2.85216 505.322 2.70004 505.902 2.24605C506.623 1.79486 506.202 1.49578 504.922 1.29626C507.491 1.17202 509.913 1.27756 512.476 1.44404C515.039 1.66866 517.743 1.89606 521.018 2.13462C521.59 2.08763 522.023 1.80528 522.032 1.34014C524.169 1.44011 526.023 1.41821 527.453 1.21353C528.883 1.00884 530.02 1.20558 531.007 1.74838C531.001 2.03909 529.859 2.13307 527.724 1.91682C528.661 2.43179 530.631 2.6005 533.757 2.42534Z" fill="white"/>
<path d="M115.788 1.82691C115.647 1.76598 115.359 1.87669 115.069 2.16183C115.349 2.39997 115.633 2.46369 115.777 2.40833C116.063 2.35577 116.065 2.23948 116.067 2.1232C116.07 2.00691 115.787 1.88505 115.788 1.82691Z" fill="white"/>
<path d="M639.341 3.46049C638.626 3.56284 637.913 3.5489 637.2 3.53496L637.058 3.53217C636.345 3.51823 635.774 3.56522 635.486 3.73407C636.2 3.63172 636.77 3.64287 637.626 3.6596C638.481 3.67633 639.052 3.62935 639.341 3.46049Z" fill="white"/>
<path d="M658.148 4.17741C658.148 4.17741 657.864 4.11369 658.433 4.18299C658.86 4.24949 658.86 4.24949 658.148 4.17741Z" fill="white"/>
<path d="M705.75 5.34128C705.742 5.74827 705.878 6.09992 706.157 6.39621C706.437 6.69249 707.432 6.8283 709.001 6.80083C710.004 6.52963 711.149 6.31937 712.718 6.2919C714.287 6.26443 715.856 6.23696 717.423 6.32577L721.699 6.40942C722.982 6.43451 723.984 6.22146 724.988 5.95027C726.552 6.15537 727.833 6.29675 728.969 6.49348C730.106 6.69021 731.387 6.83159 732.951 7.03669C732.658 7.43811 732.508 7.84232 732.64 8.3684C732.772 8.89447 731.771 9.04938 729.637 8.83313C728.075 8.51174 727.652 8.27081 728.51 8.11311C729.226 7.95262 729.943 7.73399 730.662 7.45722C728.093 7.58146 726.24 7.54521 724.818 7.3429C723.396 7.14059 721.83 6.99363 720.408 6.79132C716.982 7.01511 713.838 7.36077 710.979 7.712C708.121 8.06323 704.982 8.17632 701.562 8.05126C701.28 7.87125 700.855 7.7466 700.431 7.56381C700.007 7.38101 699.869 7.14566 700.159 6.86052C698.592 6.82985 697.736 6.81312 697.592 6.92662C697.448 6.98197 697.446 7.09826 697.585 7.27547C697.724 7.45269 697.722 7.56898 697.578 7.62433C697.434 7.67968 696.863 7.72667 695.865 7.70715C695.589 7.23644 694.883 6.87364 694.033 6.62434C693.04 6.37225 692.905 5.96247 693.63 5.33684C695.487 5.19866 696.631 4.98839 696.924 4.58697C698.489 4.79207 699.199 4.9223 698.769 5.03022C698.482 5.14093 698.192 5.36792 697.757 5.76656C700.036 5.86931 701.605 5.84184 702.748 5.74786C703.891 5.59574 704.892 5.49897 705.75 5.34128C705.75 5.34128 706.04 5.11428 706.466 5.18079C706.894 5.18915 706.749 5.30265 705.75 5.34128Z" fill="white"/>
<path d="M718.952 8.33329C720.234 8.41652 720.665 8.25046 720.388 7.83789C718.823 7.63279 717.54 7.66584 716.394 7.93424C715.248 8.20265 715.529 8.38265 717.094 8.58775C717.099 8.29704 717.67 8.30819 718.952 8.33329Z" fill="white"/>
<path d="M739.225 7.04309C737.378 6.71613 735.667 6.68267 734.092 7.059L733.949 7.05621C734.801 7.24737 735.509 7.49388 735.787 7.84831C736.065 8.20274 736.63 8.50461 737.196 8.74833C740.76 8.7599 743.048 8.39751 744.345 7.7249C742.778 7.63608 741.072 7.37005 739.225 7.04309Z" fill="white"/>
<path d="M746.039 8.57235C745.898 8.51142 745.611 8.62213 745.32 8.90727C745.6 9.14542 745.884 9.20913 746.028 9.15378C746.314 9.10121 746.316 8.98493 746.319 8.86864C746.321 8.75236 746.181 8.63329 746.039 8.57235Z" fill="white"/>
<path d="M753.199 7.02563C752.632 6.84005 751.636 6.7624 750.067 6.78987C749.208 6.94757 748.775 7.22991 748.909 7.6397C749.044 8.04949 750.181 8.24622 752.463 8.23269L752.463 8.23258C753.466 7.96142 754.47 7.69027 755.757 7.48282C754.475 7.39958 753.623 7.20843 753.199 7.02563Z" fill="white"/>
<path d="M776.414 8.41041C775.42 8.21647 774.998 7.91739 775.006 7.51039L774.862 7.56574C772.723 7.58206 770.867 7.6621 769.44 7.7505C768.015 7.72262 766.161 7.74451 763.596 7.63618C765.151 8.30642 767.285 8.58081 769.994 8.57565C772.704 8.57049 775.408 8.79789 778.25 9.3188C777.973 8.90622 777.408 8.60436 776.414 8.41041Z" fill="white"/>
<path d="M786.539 8.31767C785.114 8.28978 783.262 8.19539 780.696 8.20335L780.554 8.14242C780.826 8.8457 782.53 9.16988 785.524 9.22843C788.518 9.22884 790.66 9.0381 791.952 8.59805C789.672 8.55344 787.963 8.46184 786.539 8.31767Z" fill="white"/>
<path d="M791.647 9.63904C791.791 9.58369 791.504 9.63625 790.503 9.79116L790.361 9.78837C789.642 10.0651 789.356 10.1177 789.642 10.0651C789.929 10.0126 790.645 9.85209 790.645 9.85209L791.647 9.63904Z" fill="white"/>
<path d="M801.938 8.38624C800.656 8.303 799.231 8.27512 797.662 8.30259C797.368 8.76215 797.646 9.11658 798.639 9.36867C799.778 9.44912 800.633 9.46585 800.922 9.297C801.352 9.18908 802.066 9.14488 803.347 9.22812C803.641 8.76855 803.219 8.46947 801.938 8.38624Z" fill="white"/>
<path d="M805.92 8.92945C805.778 8.86852 805.491 8.97923 805.2 9.26436C805.481 9.50251 805.765 9.56623 805.908 9.51088C806.194 9.45831 806.197 9.34202 806.199 9.22574C806.201 9.10945 806.061 8.99038 805.92 8.92945Z" fill="white"/>
</svg>
