<svg width="684" height="17" viewBox="0 0 684 17" fill="none" xmlns="http://www.w3.org/2000/svg">
<path d="M452.603 5.95275C452.975 5.75764 453.752 5.67221 454.86 5.76182L455.191 5.78854C456.424 5.88783 457.75 5.99461 459.074 6.15029C460.518 6.32001 461.966 6.3735 463.298 6.3063C464.627 6.29722 465.244 5.97083 465.267 5.33157C466.597 5.32249 467.439 5.41181 467.668 5.76941C467.898 6.0689 468.006 6.42204 467.991 6.82883C470.163 6.90907 470.891 6.81959 470.417 6.56931C469.822 6.31456 469.715 5.96142 470.094 5.50988L473.714 5.64361C473.94 6.05932 474.291 6.36327 474.643 6.66721C474.994 6.97115 475.587 7.28401 476.416 7.72201C477.744 7.77104 478.353 7.61899 478.366 7.27031L478.407 6.16614C481.301 6.33123 483.352 6.40702 484.44 6.38902C485.529 6.37102 487.089 6.66143 489.237 7.38092C490.564 7.42995 491.415 7.28682 491.667 7.00516C491.92 6.72351 492.29 6.50442 492.9 6.35237C493.374 6.60265 494.454 6.81712 495.895 7.04495C497.337 7.27278 498.308 7.1341 498.933 6.57525C500.017 6.67348 500.25 6.91486 499.873 7.30828C499.496 7.70171 499.608 7.93862 500.45 8.02793C501.797 7.55394 503.133 7.37052 504.458 7.47767C505.681 7.57656 506.607 7.36705 507.142 6.79995C507.174 6.75129 507.216 6.70145 507.268 6.65037C507.229 6.70274 507.187 6.75259 507.142 6.79995C506.787 7.339 507.65 7.73122 509.634 8.01803L516.004 8.95165C516.626 8.45091 517.844 8.20492 519.772 8.33436C521.701 8.4638 523.272 8.46363 524.364 8.3294C524.37 8.15506 524.131 8.08803 523.769 8.07466L522.563 8.03008C522.563 8.03008 521.718 7.99888 521.36 7.86928C521 7.79779 521.007 7.62345 521.619 7.41328C523.556 7.31026 524.881 7.41741 525.842 7.5693C526.803 7.72119 527.883 7.93565 529.21 7.98468C528.357 8.18594 528.23 8.35582 528.585 8.54354C528.941 8.73125 529.173 8.97262 529.158 9.37942C530.014 9.12005 531.229 8.93217 532.921 8.93646C534.612 8.94076 536.424 8.94951 538.116 8.9538C539.807 8.95809 541.257 8.95347 542.468 8.88182C543.679 8.81017 544.05 8.59108 543.462 8.162C545.028 8.27806 546.952 8.52373 548.995 8.83196C551.038 9.1402 553.203 9.39478 555.369 9.64935C557.535 9.90393 559.586 9.97971 561.519 9.99292C563.572 10.0106 565.152 9.77796 566.496 9.36208C567.821 9.46923 568.657 9.73289 569.127 10.0994C569.476 10.4615 569.946 10.828 570.418 11.1364C572.364 10.8009 574.303 10.6398 576.479 10.6038C578.656 10.5678 580.715 10.4111 582.898 10.2008C583.734 10.4644 584.327 10.7773 584.674 11.1975C585.021 11.6176 585.611 11.9886 586.445 12.3104C586.195 12.5339 585.465 12.6815 584.495 12.7621C583.405 12.8382 582.319 12.7981 581.117 12.6373C579.912 12.5346 578.83 12.3782 577.751 12.1638C576.671 11.9493 576.195 11.7571 576.204 11.5247C575.594 11.6767 575.225 11.8377 574.734 12.0523C574.364 12.2714 573.875 12.4279 573.386 12.5843L573.385 12.5844C571.827 12.2359 570.267 11.9455 569.063 11.8428C567.738 11.7357 567.266 11.4273 567.524 10.9713C566.19 11.0966 564.975 11.2845 563.874 11.6511C562.773 12.0178 561.441 12.085 559.879 11.8527C558.793 11.8126 558.31 11.7948 558.315 11.6786C558.317 11.6204 558.321 11.5042 558.567 11.3969C558.571 11.2807 558.817 11.1734 558.942 11.0616C559.067 10.9498 558.709 10.8202 557.991 10.6191C556.658 10.7444 555.809 10.8295 555.44 10.9904C555.072 11.1514 554.234 10.9459 553.285 10.4453C551.956 10.4544 551.346 10.6064 551.697 10.9104C551.872 11.0611 552.167 11.1591 552.612 11.2195C553.233 11.2529 553.85 11.2809 554.462 11.3035C553.67 11.3035 553.064 11.2809 552.612 11.2195C550.293 11.0951 547.918 10.8961 545.546 10.6249C542.538 10.281 539.751 10.4691 537.306 11.2516C535.979 11.2026 535.017 11.0507 534.304 10.7334C533.591 10.4161 533.117 10.1658 532.522 9.91103C531.188 10.0363 530.941 10.2018 531.656 10.461C532.371 10.7202 532.244 10.8901 531.273 11.0287C529.348 10.7831 527.543 10.6 525.493 10.4661C523.444 10.3322 522.25 9.93893 521.791 9.28185C520.458 9.40715 519.475 9.8364 518.964 10.5741C512.584 9.931 506.312 9.6411 500.272 9.59256C494.232 9.54402 488.321 9.26748 482.786 8.65563C479.267 9.04939 475.397 9.1392 470.935 8.91615C466.593 8.69756 462.13 8.47452 457.545 8.30513C450.898 8.11581 444.137 7.97657 437.263 7.835L436.538 7.82008C429.535 7.67776 422.536 7.41922 415.542 7.04445C414.812 7.19205 414.322 7.34856 414.314 7.58101C403.085 7.3408 391.62 6.97543 379.794 6.53859C367.969 6.10174 357.46 6.0045 348.387 6.30943C345.991 5.75537 342.375 5.50541 337.421 5.49699C332.467 5.48857 328.472 5.69015 325.197 6.03471C315.914 5.45902 306.257 5.21864 296.466 5.32249C286.674 5.42633 275.801 5.37383 264.088 5.1739C263.493 4.91915 262.896 4.72252 262.297 4.584C261.698 4.44549 261.224 4.1952 260.994 3.89571C260.134 4.27131 259.279 4.53068 258.184 4.72301C257.089 4.91535 255.514 5.03175 253.34 5.00962C253.35 4.73686 253.679 4.47587 254.425 4.27843C252.253 4.81074 249.51 5.04538 245.969 5.02828C242.344 5.01078 239.082 5.00665 236.184 4.95778C235.587 4.76115 235.356 4.46167 235.372 4.05487C235.387 3.64807 235.035 3.34413 234.197 3.13858C233.344 3.33984 232.971 3.61703 232.956 4.02383C232.941 4.43063 232.45 4.64525 231.357 4.77948C230.273 4.68124 229.067 4.63667 227.617 4.64129C226.166 4.64592 224.835 4.71311 223.626 4.72665C222.417 4.74019 221.329 4.75818 220.484 4.72698C219.64 4.69577 219.041 4.55726 219.049 4.3248C217.728 4.10143 217.123 4.13725 217.112 4.42782C217.101 4.71839 216.854 4.88382 216.244 5.03587C212.512 4.66523 208.892 4.5315 205.263 4.63023C201.637 4.67084 198.129 4.77402 194.622 4.87719L194.621 4.87722C191.113 4.9804 187.728 5.02993 184.465 5.0258C181.083 5.01721 177.829 4.78063 174.702 4.37416C173.597 4.85707 172.382 5.04495 171.059 4.87969C169.736 4.71443 168.404 4.78162 167.057 5.25561C163.069 5.28285 159.326 5.20278 155.706 5.06905C152.086 4.93532 148.817 5.10554 145.902 5.52158C141.431 5.53099 137.085 5.42863 133.105 5.22342C129.125 5.0182 126.095 5.25545 123.897 5.87258C118.59 5.61833 113.52 5.48923 108.681 5.65961C103.843 5.77187 99.1243 5.9467 94.5261 6.126C89.8072 6.30084 85.3317 6.42647 80.8585 6.494C76.5059 6.56598 72.2847 6.35185 68.3177 5.79795C66.9839 5.92326 66.7361 6.08869 67.6907 6.41492C68.6453 6.74115 68.5161 6.96915 67.4215 7.16149C58.852 6.90311 50.5152 6.8861 42.0514 7.03898C33.5875 7.19186 25.4856 7.35812 17.5044 7.52883C16.1706 7.65413 15.5694 7.57373 15.5802 7.28316C15.5909 6.99259 15.356 6.80933 14.7591 6.6127C13.6624 6.86315 12.5699 6.99738 11.6067 6.9036C10.5207 6.86348 9.43902 6.70714 8.23664 6.54633L4.62952 6.06392C3.42714 5.90312 2.3433 5.80488 1.25729 5.76477C0.671133 5.27757 0.925347 4.9378 1.65579 4.7902C2.38623 4.6426 2.6383 4.36095 2.04999 3.93186C5.18948 3.98964 7.22366 4.53034 8.03183 5.54948C9.11998 5.53148 9.60694 5.43308 9.61123 5.31686C9.61552 5.20063 9.3785 5.07549 9.02295 4.88779L9.02292 4.88777C8.66736 4.70006 8.18897 4.566 7.59207 4.36937C7.11584 4.1772 6.76029 3.98948 6.76887 3.75702C7.61354 3.78822 8.09835 3.74794 8.34613 3.58251C8.5939 3.41709 9.20155 3.32315 9.9277 3.29178C11.8584 3.3631 12.688 3.80111 12.6601 4.55659C13.996 4.37317 15.8168 4.14946 18.1202 3.94358C20.4236 3.73771 22.8476 3.53629 25.5109 3.4019C28.1742 3.26751 30.7146 3.18678 33.2529 3.16416C35.7912 3.14155 38.0818 3.28435 40.2452 3.59705C41.0899 3.62825 41.4626 3.35105 41.4819 2.82803C51.0232 2.94772 60.0883 2.87525 68.4336 2.65979C76.779 2.44434 85.7319 2.13495 95.0491 1.78082C95.284 1.96408 95.8852 2.04448 96.8505 2.08014L99.6258 2.18267C100.591 2.21833 101.315 2.24507 101.794 2.37913C102.274 2.45508 102.63 2.64279 102.621 2.87525C103.724 2.45045 104.821 2.2 106.032 2.12835C107.243 2.0567 108.452 2.04316 109.658 2.08774C110.865 2.13231 111.951 2.17243 113.041 2.09632C114.129 2.07833 114.864 1.8145 115.485 1.37187C117.047 1.60416 118.973 1.79172 121.26 2.05075C123.546 2.30979 125.369 2.02797 126.728 1.2053C127.558 1.6433 128.398 1.79073 129.366 1.76827C130.333 1.74582 131.061 1.65635 131.79 1.56687L131.79 1.56686C132.397 1.47292 133.003 1.43709 133.608 1.40127C134.091 1.4191 134.567 1.61126 134.791 2.08509C136.978 1.75853 139.523 1.56157 142.548 1.44056C145.574 1.31954 148.097 1.70372 149.875 2.64229C151.484 1.59608 154.762 1.19341 159.468 1.36726L159.438 2.18085C165.619 1.65271 171.916 1.30337 178.442 1.25351C184.969 1.20365 191.617 1.15824 198.26 1.22907C204.903 1.2999 211.548 1.31261 218.071 1.37898C224.593 1.44535 230.883 1.27035 237.06 0.858432C237.541 0.934377 238.381 1.08181 239.463 1.23815C240.545 1.3945 241.508 1.48827 242.471 1.58205C243.436 1.61771 244.16 1.64445 244.889 1.55497C245.496 1.46103 245.867 1.24195 245.882 0.835155C248.28 1.33111 250.81 1.54094 253.712 1.47358C256.494 1.40178 259.396 1.33443 262.298 1.26709L262.299 1.26705L262.3 1.26704C265.202 1.19968 268.104 1.13233 270.882 1.17674C273.659 1.22115 276.307 1.49356 278.703 2.04763C279.559 1.78826 280.531 1.64958 281.858 1.69861L285.84 1.84571L289.46 1.97944C290.546 2.01956 291.279 1.81385 291.897 1.42934C292.976 1.64376 293.935 1.85373 294.894 2.0637L294.894 2.0638C295.853 2.27381 296.08 2.68952 295.819 3.20363C296.422 3.22592 296.668 3.11861 296.679 2.82804L296.702 2.18878C299.842 2.24657 302.985 2.18812 305.888 2.12077L305.888 2.12076C308.791 2.0534 311.693 1.98605 314.472 1.97234C317.252 1.95864 320.03 2.00305 322.682 2.15923C325.337 2.2573 327.862 2.58336 330.26 3.07931C331.105 3.11052 331.351 3.00321 331.241 2.70818C331.131 2.41315 331.258 2.24327 331.506 2.07784C335.253 2.04169 339.114 2.18433 343.094 2.38954L343.456 2.40821C347.308 2.60688 351.047 2.79971 354.674 2.9337C358.415 3.07189 361.793 3.1967 364.816 3.1338C367.837 3.12901 370.505 2.8784 372.696 2.43561C377.991 3.03854 384.744 3.4044 392.833 3.58683C400.922 3.76926 407.925 3.91157 413.844 3.95566C414.324 4.0316 414.557 4.27297 414.426 4.55908C414.294 4.8452 414.768 5.09548 415.731 5.18926C416.337 5.15343 416.585 4.98801 416.593 4.75555L416.619 4.05818C419.754 4.23219 422.773 4.28552 425.436 4.15113C424.805 4.88432 425.146 5.47884 426.221 5.80952C427.542 6.0329 428.513 5.89422 429.013 5.44714C429.634 5.00451 429.283 4.70057 428.203 4.48611C430.381 4.39201 432.431 4.5259 434.598 4.72237C436.764 4.97695 439.05 5.23598 441.819 5.51285C442.304 5.47257 442.677 5.19537 442.694 4.73045C444.502 4.85543 446.073 4.85527 447.288 4.66739C448.503 4.47951 449.462 4.68951 450.287 5.24374C450.277 5.53431 449.307 5.61488 447.503 5.37368C448.286 5.8995 449.952 6.09125 452.603 5.95275Z" fill="#996239"/>
<path d="M98.6021 0.45724C98.4835 0.394668 98.2379 0.501984 97.9859 0.783639C98.2186 1.02501 98.4578 1.09204 98.5806 1.03838C98.8241 0.989181 98.8284 0.872952 98.8327 0.756724C98.837 0.640496 98.5999 0.515353 98.6021 0.45724Z" fill="#996239"/>
<path d="M542.009 8.22473C541.402 8.31867 540.798 8.29639 540.195 8.2741L540.074 8.26964C539.471 8.24735 538.986 8.28764 538.738 8.45306C539.346 8.35913 539.829 8.37695 540.553 8.40369C541.277 8.43044 541.762 8.39016 542.009 8.22473Z" fill="#996239"/>
<path d="M557.924 9.16182C557.924 9.16182 557.685 9.0948 558.166 9.17074C558.526 9.24223 558.526 9.24223 557.924 9.16182Z" fill="#996239"/>
<path d="M598.219 10.8831C598.204 11.2899 598.311 11.6431 598.542 11.9425C598.773 12.242 599.613 12.3895 600.942 12.3804C601.798 12.121 602.772 11.9242 604.101 11.9151C605.431 11.9061 606.76 11.897 608.085 12.0041L611.705 12.1379C612.791 12.178 613.645 11.9767 614.5 11.7174C615.821 11.9407 616.903 12.0971 617.862 12.3071C618.821 12.5171 619.902 12.6734 621.223 12.8968C620.967 13.2947 620.831 13.697 620.932 14.2245C621.034 14.752 620.183 14.8951 618.379 14.6539C617.063 14.3143 616.709 14.0685 617.44 13.9209C618.049 13.7689 618.661 13.5587 619.275 13.2904C617.097 13.3845 615.528 13.3266 614.328 13.1076C613.128 12.8887 611.805 12.7235 610.604 12.5045C607.698 12.6881 605.028 12.9969 602.6 13.3145C600.171 13.6321 597.51 13.7084 594.616 13.5433C594.381 13.3601 594.024 13.2305 593.668 13.0428C593.313 12.855 593.2 12.6181 593.453 12.3365C592.125 12.2874 591.401 12.2607 591.276 12.3725C591.153 12.4261 591.149 12.5423 591.263 12.7211C591.378 12.8999 591.373 13.0162 591.251 13.0698C591.128 13.1235 590.643 13.1638 589.798 13.1326C589.574 12.6587 588.984 12.2878 588.268 12.0286C587.432 11.7649 587.326 11.3536 587.953 10.7367C589.528 10.6203 590.502 10.4235 590.759 10.0256C592.08 10.249 592.679 10.3875 592.312 10.4904C592.067 10.5977 591.817 10.8212 591.44 11.2146C593.368 11.3441 594.698 11.335 595.667 11.2544C596.639 11.1157 597.488 11.0307 598.219 10.8831C598.219 10.8831 598.469 10.6596 598.828 10.7311C599.19 10.7444 599.065 10.8562 598.219 10.8831Z" fill="#996239"/>
<path d="M609.34 14.029C610.424 14.1273 610.792 13.9663 610.566 13.5506C609.245 13.3272 608.157 13.3452 607.181 13.6001C606.205 13.855 606.439 14.0383 607.76 14.2617C607.771 13.9711 608.254 13.9889 609.34 14.029Z" fill="#996239"/>
<path d="M626.537 12.9767C624.979 12.6282 623.531 12.5747 622.188 12.9325L622.068 12.928C622.785 13.1291 623.38 13.3838 623.609 13.7414C623.837 14.099 624.309 14.4074 624.783 14.6577C627.802 14.7111 629.748 14.3756 630.859 13.7183C629.534 13.6112 628.095 13.3252 626.537 12.9767Z" fill="#996239"/>
<path d="M632.277 14.5854C632.159 14.5228 631.913 14.6302 631.661 14.9118C631.894 15.1532 632.133 15.2202 632.256 15.1666C632.499 15.1174 632.504 15.0011 632.508 14.8849C632.512 14.7687 632.396 14.648 632.277 14.5854Z" fill="#996239"/>
<path d="M638.373 13.123C637.897 12.9308 637.054 12.8415 635.725 12.8506C634.994 12.9982 634.622 13.2754 634.727 13.6866C634.833 14.0979 635.792 14.3079 637.724 14.3211C638.58 14.0617 639.435 13.8024 640.53 13.61C639.446 13.5118 638.728 13.3107 638.373 13.123Z" fill="#996239"/>
<path d="M658.007 14.7794C657.169 14.5739 656.818 14.2699 656.833 13.8631L656.71 13.9168C654.898 13.908 653.325 13.9663 652.114 14.038C650.907 13.9934 649.336 13.9935 647.167 13.8552C648.47 14.5435 650.272 14.8428 652.567 14.8694C654.861 14.896 657.148 15.155 659.544 15.7091C659.317 15.2934 658.846 14.985 658.007 14.7794Z" fill="#996239"/>
<path d="M666.585 14.8053C665.379 14.7608 663.812 14.6447 661.638 14.6226L661.519 14.56C661.735 15.2663 663.172 15.6103 665.706 15.7039C668.243 15.7394 670.061 15.5739 671.164 15.1491C669.234 15.0777 667.788 14.9661 666.585 14.8053Z" fill="#996239"/>
<path d="M670.884 16.1862C671.007 16.1325 670.764 16.1817 669.913 16.3249L669.792 16.3204C669.178 16.5887 668.934 16.6379 669.178 16.5887C669.421 16.5395 670.031 16.3875 670.031 16.3875L670.884 16.1862Z" fill="#996239"/>
<path d="M679.626 15.0543C678.542 14.9561 677.336 14.9115 676.006 14.9206C675.748 15.3766 675.976 15.7342 676.812 15.9978C677.775 16.0916 678.499 16.1183 678.747 15.9529C679.113 15.8501 679.719 15.8142 680.803 15.9125C681.061 15.4565 680.71 15.1525 679.626 15.0543Z" fill="#996239"/>
<path d="M682.988 15.644C682.869 15.5815 682.623 15.6888 682.371 15.9704C682.604 16.2118 682.843 16.2788 682.966 16.2252C683.21 16.176 683.214 16.0597 683.218 15.9435C683.222 15.8273 683.106 15.7066 682.988 15.644Z" fill="#996239"/>
</svg>
